<?xml version="1.0" encoding="utf-8"?>
<!-- Generator: Adobe Illustrator 19.2.1, SVG Export Plug-In . SVG Version: 6.00 Build 0)  -->
<svg version="1.1" id="Layer_1" xmlns="http://www.w3.org/2000/svg" xmlns:xlink="http://www.w3.org/1999/xlink" x="0px" y="0px"
	 viewBox="0 0 300 1500" style="enable-background:new 0 0 300 1500;" xml:space="preserve">
<style type="text/css">
	.st0{fill:url(#SVGID_1_);}
	.st1{fill:none;stroke:#036D75;stroke-width:13;stroke-miterlimit:10;}
	.st2{opacity:0.42;fill:#036D75;}
</style>
<linearGradient id="SVGID_1_" gradientUnits="userSpaceOnUse" x1="-206.0957" y1="634.2975" x2="506.0957" y2="865.7025">
	<stop  offset="0" style="stop-color:#005966"/>
	<stop  offset="1" style="stop-color:#262262"/>
</linearGradient>
<rect class="st0" width="300" height="1500"/>
<path class="st1" d="M300,150.9v207h-78.6c-28.2,0-51-22.8-51-51v-105c0-28.2,22.8-51,51-51H300z"/>
<path class="st1" d="M221.4,432.9h-73.1c-19.6,0-35.5-15.9-35.5-35.5v-73.1c0-19.6,15.9-35.5,35.5-35.5h73.1
	c19.6,0,35.5,15.9,35.5,35.5v73.1C256.9,417,241,432.9,221.4,432.9z"/>
<path class="st1" d="M86.7,1432.4v67.6H0v-118.6h35.7C63.9,1381.4,86.7,1404.3,86.7,1432.4z"/>
<path class="st1" d="M300,721.3v203.4c-4.3,1.2-8.9,1.8-13.6,1.8h-105c-28.2,0-51-22.8-51-51v-105c0-28.2,22.8-51,51-51h105
	C291.1,719.4,295.7,720.1,300,721.3z"/>
<path class="st1" d="M172.2,806.8H87.6c-22.7,0-41.1-18.4-41.1-41.1v-84.6c0-22.7,18.4-41.1,41.1-41.1h84.6
	c22.7,0,41.1,18.4,41.1,41.1v84.6C213.2,788.4,194.9,806.8,172.2,806.8z"/>
<path class="st2" d="M202.5,1030h-105c-28.2,0-51-22.8-51-51V874c0-28.2,22.8-51,51-51h105c28.2,0,51,22.8,51,51v105
	C253.5,1007.1,230.7,1030,202.5,1030z"/>
<path class="st1" d="M126.4,1082.9h-67c-18,0-32.5-14.6-32.5-32.5v-67c0-18,14.6-32.5,32.5-32.5h67c18,0,32.5,14.6,32.5,32.5v67
	C158.9,1068.3,144.4,1082.9,126.4,1082.9z"/>
<path class="st2" d="M161.3,1484.9H64.4c-21.5,0-39-17.5-39-39V1349c0-21.5,17.5-39,39-39h96.9c21.5,0,39,17.5,39,39v96.9
	C200.3,1467.5,182.9,1484.9,161.3,1484.9z"/>
<path class="st2" d="M245.4,389.3h-64.8c-18.8,0-34-15.2-34-34v-64.8c0-18.8,15.2-34,34-34h64.8c18.8,0,34,15.2,34,34v64.8
	C279.4,374,264.2,389.3,245.4,389.3z"/>
<path class="st1" d="M170.4,27.8v100.9c0,27.8-22.5,50.3-50.3,50.3H13.7c-4.8,0-9.4-0.7-13.7-1.9V0h162
	C167.3,8,170.4,17.5,170.4,27.8z"/>
<path class="st2" d="M195.5,65.7H97.5C76.3,65.7,59,82.9,59,104.2v93.3c0,21.3,17.2,38.5,38.5,38.5h97.9c21.3,0,38.5-17.2,38.5-38.5
	v-93.3C233.9,82.9,216.7,65.7,195.5,65.7z"/>
</svg>
