<?xml version="1.0" encoding="utf-8"?>
<!-- Generator: Adobe Illustrator 19.2.1, SVG Export Plug-In . SVG Version: 6.00 Build 0)  -->
<svg version="1.1" id="Layer_1" xmlns="http://www.w3.org/2000/svg" xmlns:xlink="http://www.w3.org/1999/xlink" x="0px" y="0px"
	 viewBox="0 0 841.9 595.3" style="enable-background:new 0 0 841.9 595.3;" xml:space="preserve">
<style type="text/css">
	.st0{fill:url(#SVGID_1_);}
	.st1{fill:url(#SVGID_2_);}
	.st2{stroke:#000000;stroke-miterlimit:10;}
	.st3{fill:none;stroke:#000000;stroke-miterlimit:10;}
	.st4{fill:#8265AC;}
	.st5{fill:#FFFEFF;}
	.st6{stroke:#000000;stroke-width:3;stroke-miterlimit:10;}
	.st7{fill:url(#SVGID_3_);stroke:#000000;stroke-miterlimit:10;}
	.st8{fill:#FFFFFF;}
</style>
<g>
	<radialGradient id="SVGID_1_" cx="448.753" cy="331.391" r="76.0072" gradientUnits="userSpaceOnUse">
		<stop  offset="0" style="stop-color:#9E1F63"/>
		<stop  offset="1" style="stop-color:#232042"/>
	</radialGradient>
	<path class="st0" d="M525.3,306.3c0-0.3,0-0.6,0-1c-5.3,3.6-11.1,7.3-17.5,11c-7.9,4.6-16.6,9.2-26.1,13.5
		c-5.9-9-11.9-17.8-17.7-26.4c-0.2,0.4-0.3,0.7-0.3,0.7c14.5,21.9,18.3,31.7,18.7,36.5c0,0.4,0.7,6.3,3.2,7.4
		c1.2,0.5,2.6-0.1,4.1-0.1c3.1,0,2.4-4.5,1.2-7.2c-1.2-2.7,2-16.5,7.5-15.5c5.4,1,4.4,41.4,4.4,41.4c5.9,12.1,10.4-2.7,10.4-2.7
		c-10.9-3-1.7-37.2-3.7-42.8C507.3,315.6,525.3,306.3,525.3,306.3z M409.3,297.3c-3.3-5.3-6.8-9.5-10-12.8c-1.6-1.6-3.1-3-4.5-4.3
		c-2.8,4.6-5.6,9.7-8.3,15.3c-0.1,0.2-0.2,0.3-0.2,0.5c-1.1,0.7-1.8,2-1.8,3.4c0,0.1,0,0.3,0,0.4v0c-0.8,1.7-1.5,3.4-2.2,5.1
		c-4.7,11-7.8,21.5-10,30.7c0.5,0.2,1,0.4,1.6,0.6c0.5,0.6,1.2,1,2.1,1c0.3,0,0.5,0,0.8-0.1c0,0,0,0,0,0c5.1,1.5,12.4,2.8,21,1.6
		c0.3,0,0.5-0.1,0.7-0.1c1-0.2,2.1-0.3,3-0.6c0.2,0,0.3,0,0.5,0c0.7,0,1.4-0.2,1.9-0.6c8-2.1,13.9-5.7,17.2-8.1
		c-0.8-5.1-2.3-12.7-5.9-21C413.6,304.8,411.7,301,409.3,297.3z"/>
	<g>
		<path d="M525.3,304.2c0-0.3,0-0.7,0-1c0-0.1,0-0.2,0-0.3c-11.7,7.9-23.9,15-36.7,21.2c-1.1,0.6-2.3,1.1-3.5,1.6
			c-0.6,0.3-1.2,0.5-1.8,0.8c-1.4,1.3-2.3,1.1-2.8-0.8c-2.5-2-4.5-6.7-6.3-9.4c-1.7-2.6-3.5-5.2-5.2-7.7c-1-1.5-2.1-3.1-3.1-4.6
			c-0.7-1.1-1.4-3.7-2.3-2.3c-0.5,0.8-0.2,4,0,4.9c0.6,2.5,3.5,5.4,5,7.7c1.9,3,3.7,5.9,5.4,9c3.2,5.5,6.7,11.5,8,17.8
			c0.5,2.2,0.5,4.4,1.3,6.5c1.4,3.5,7.4,4.9,8.5,0.6c0.4-1.7,0.2-4.1,0-5.8c0-0.4-0.8-4.7-1.1-4.6c0.8-0.3-0.9,4.3,0.2,0.6
			c0.3-0.9,0.4-1.9,0.7-2.9c1.3-4.4,6.6-12,8.9-4.3c2.1,6.7,2,14.5,2.1,21.4c0.1,5.2-0.9,11.3,0,16.2c0.6,3,3.7,6.4,6.7,4.3
			c1.9-1.4,3-4.4,3.7-6.6c0.1-0.5,0.2-4.9,0-5c-8.6-2.9-4.9-19.1-4.2-25.4c0.7-6.3,0.5-12.2,0.3-18.4c0,1.6,0,3.3,0,4.9
			c1-6.3,11-11.1,16.1-13.7c0.7-0.4-0.7-4.7,0-5c-5.1,2.6-13,6.5-15.5,11.9c-0.9,1.9-0.8,4.4-0.6,6.5c0,0.5,0,2,0.4,2.4
			c-0.3-0.2,0.2-3.3-0.1,0.5c-0.1,0.9-0.2,1.7-0.2,2.6c-0.8,7.6-1.6,15.1-1.6,22.7c0,5.1-0.5,14,5.5,16c0-1.7,0-3.3,0-5
			c-0.6,2-1.5,4.3-3,5.9c-3.2,3.5-5.8-0.1-7.4-3.2c0,1.6,0,3.3,0,4.9c0.3-12.6,0.6-25.7-1.3-38.3c-0.3-2.1-0.5-6.3-2.4-7.7
			c-3.1-2.3-5.9,3.3-6.8,5.5c-1.3,3.2-1.7,6.5-1.7,9.9c0,3.2,1,5.7,1.3,8.9c0-1.6,0-3.3,0-4.9c-0.1,3-3.6,4.4-6.3,3.2
			c-2-0.9-2.6-3.9-3-5.8c-0.5-2.4-0.8-4.7-1.6-7.1c-3.9-11.1-10.9-21.3-17.3-31c0,1.7,0,3.3,0,5c0.5-1.4,1.9,1.6,2.3,2.3
			c1,1.5,2.1,3,3.1,4.6c1.9,2.8,3.8,5.7,5.7,8.5c1.7,2.6,3.5,6.5,5.8,8.7c0.3,1.6,0.9,2,1.9,1.2c0.9-0.4,1.8-0.8,2.6-1.2
			c1.7-0.8,3.4-1.6,5.2-2.5c5.9-2.9,11.8-6,17.5-9.4c3.1-1.8,6.2-3.7,9.2-5.6c0.6-0.4,8.3-4.9,8.3-4.8c0,1,0-0.8,0-0.9
			C525.6,306.6,525.4,305.2,525.3,304.2z"/>
		<path d="M409.3,294.8c-2.9-4.6-6.2-8.9-10-12.8c-0.9-1-1.9-1.9-2.9-2.8c-1.6-1.4-1-1.6-2.5-0.1c-1.7,1.9-3,5.1-4.2,7.4
			c-1.2,2.3-2.2,4.7-3.5,6.9c-0.9,1.5-1.6,1.7-1.8,3.6c-0.2,1.2,0,7.3,0,2.7c0-0.8,0-1.7,0-2.5c-5.2,11.5-9.3,23.5-12.3,35.8
			c-0.1,0.5-0.2,4.9,0,5c8.1,3,17,4.3,25.9,3c8.3-1.2,16.1-4.4,23-9.2c0.4-0.3,0.1-4.4,0-5C419.2,315.4,415.3,304.7,409.3,294.8
			c0.7,1.2-0.7,3.8,0,5c6,9.9,9.9,20.6,11.7,32c0-1.7,0-3.3,0-5c-6.9,4.8-14.7,8-23,9.2c-8.8,1.3-17.8,0-25.9-3c0,1.7,0,3.3,0,5
			c2.4-9.8,5.4-19.5,9.3-28.8c1.1-2.7,2.7-5.3,3-8.2c0.1-1.3,0-2.8,0-4.1c0,1.6,0,3.3,0,4.9c0.5-2.8,3.1-6.1,4.5-8.7
			c0.6-1.2,4.6-10.3,5.9-10.4c1.5-0.2,6.6,6.5,7.5,7.5c2.6,3,4.9,6.2,7.1,9.6C408.6,298.6,410.1,296,409.3,294.8z"/>
	</g>
</g>
<g>
	<g>
		<g>
			<path d="M244.4,373c0,0.7,0,1.4,0.1,2.1c0,0,0,0.1,0,0.1c0.1-0.3,0.2-0.6,0.2-0.9c0.1-1,0-1.9,0-2.9c0-1,0.2-2.3-0.3-3.3
				c0,0.1,0,0.7,0,0.7c0,0.6,0,1.2,0,1.8c0,0.6,0,1.2,0,1.8C244.3,372.6,244.3,373,244.4,373c0.2,0.4,0.3,0.8,0.3,1.1
				c0-1.6,0-3.2,0-4.8c0,0.1,0,0.6-0.1,0.7c-0.1,0.1-0.1,0.1-0.1-0.1c0-0.1,0-0.2,0-0.3c0-0.5,0-0.9-0.1-1.4c0-0.3,0,0.4,0,0.3
				c0,0.5,0,1,0,1.5C244.3,371,244.3,372,244.4,373z"/>
			<path d="M245.1,354.9c0,0.4-0.1,0.8-0.2,1.2c-0.1,0.8,0,1.7,0,2.5c0,0.6,0,1.2,0,1.8c0,0.2,0.1,0.6,0,0.7
				c0.4-0.8,0.2-1.8,0.2-2.6c0-0.9,0-1.8,0-2.6C245.2,355.5,245.2,355.2,245.1,354.9c0,0.2,0,0.6,0,0.7c0,0.6,0,1.2,0,1.8
				c0,0.6,0,1.2,0,1.8c0,0.2,0,0.5,0,0.7c0,0.1,0,0.2,0,0.3c0-1.6,0-3.2,0-4.8c0,0.3-0.1,0.5-0.2,0.7c0,1.7,0,3.3,0,5
				c0.1-0.4,0.1-0.8,0.2-1.2c0.1-0.8,0-1.7,0-2.5c0-0.6,0-1.2,0-1.8C245.1,355.4,245.1,355.1,245.1,354.9z"/>
			<path d="M247.8,341.5C247.8,341.5,247.8,341.5,247.8,341.5c-0.1,0.3,0,0.7,0,0.8c0,0.6,0,1.2,0,1.8c0,0.6,0,1.2,0,1.8
				c0,0.1,0.1,0.6,0,0.7c0.8-1.2,0.6-2.9,0.6-4.3c0-0.6,0-1.2,0-1.8c0-0.2-0.1-0.6,0-0.7C248.1,340.4,248,340.9,247.8,341.5
				c-0.1,0.2,0,0.6,0,0.7c0,0.6,0,1.2,0,1.8c0,0.6,0,1.2,0,1.8c0,0.2,0.1,0.5,0,0.7c0.2-0.6,0.4-1.1,0.5-1.7c0-0.8,0-1.7,0-2.5
				c0,0.4,0,0,0-1.1c0.1-1.1,0-1.4,0-0.9c0,0.2-0.1,0.3-0.1,0.5C248.1,341.1,247.9,341.3,247.8,341.5c0,1.8,0,3.4,0,5.1
				c0,0,0-0.1,0-0.1c0.1-0.2,0-0.6,0-0.7c0-0.6,0-1.2,0-1.8c0-0.6,0-1.2,0-1.8C247.8,342,247.7,341.7,247.8,341.5z"/>
		</g>
	</g>
	<g>
		<g>
			<linearGradient id="SVGID_2_" gradientUnits="userSpaceOnUse" x1="340.7504" y1="324.3595" x2="389.7505" y2="486.3596">
				<stop  offset="0" style="stop-color:#EE2A7B"/>
				<stop  offset="1" style="stop-color:#262262"/>
			</linearGradient>
			<path class="st1" d="M535.9,500.5c-1.9,0.8-3.8,1.6-5.9,2.4c-11,4-24.2,6.4-38.3,3.5c0,0-0.5-1.3-1.6-3.9
				c-0.5-1.2-1.1-2.6-1.8-4.3c-0.4-1-0.8-2.1-1.3-3.3c-0.5-1.2-1-2.5-1.6-3.9c-0.5-1.1-0.9-2.3-1.4-3.6c-1.1-2.7-2.2-5.6-3.5-8.7
				c-1-2.5-2-5-3.1-7.7c-0.5-1.3-1-2.6-1.5-3.9c-0.5-1.1-0.9-2.3-1.4-3.5c-0.4-0.9-0.7-1.9-1.1-2.8c-0.3-0.9-0.7-1.8-1.1-2.7
				c-1.7-4.3-3.5-8.8-5.4-13.5c-0.4-1.1-0.8-2.1-1.3-3.2c-1.2-3-2.4-6.1-3.7-9.3c-0.4-1.1-0.9-2.3-1.3-3.4c-0.7-1.8-1.4-3.5-2.1-5.3
				c-10.6,3-21.7,5.4-33.2,6.9c-17.6,2.3-36,2.7-55,0.5c-3.2-0.4-6.4-0.8-9.6-1.3c-2.9-0.5-5.8-1-8.8-1.6c-0.8-0.2-1.6-0.3-2.5-0.5
				c-0.5-0.1-1-0.2-1.5-0.3c-1.4-0.3-2.7-0.6-4.1-1c-1.9,7.2-3.7,14.2-5.5,20.8c7.8,1.8,17.5,3.6,28.7,4.4c4.3,0.3,8.8,0.5,13.6,0.5
				c2.5,0,5,0,7.5-0.1c15.9-0.6,29.6-3.1,40.4-6c2.6-0.7,5-1.4,7.2-2c0.4,1,0.8,2,1.2,3c0.4,1.1,0.9,2.2,1.3,3.3
				c1,2.6,2.1,5.3,3.2,7.9c1.4,3.5,2.8,7,4.2,10.5c3,7.3,6,14.7,9.1,22.1c0.5,1.3,1,2.6,1.6,3.8c0.6,1.4,1.2,2.8,1.7,4.2
				c0,0.1,0,0.1,0.1,0.2c3.4,8,6.8,16,10.1,23.9c6.5,0.9,19,2,33.8-1.8c1.9-0.5,3.8-1,5.7-1.6c3.5-1.2,6.7-2.5,9.7-3.9
				c1.5-0.7,2.9-1.4,4.3-2.2c9.2-5,15.4-10.6,18.9-14.1C539.3,499.5,537.6,500,535.9,500.5z M377.3,221.2c-2.4-0.2-4.4,0-5.9,0.2
				c0,0-0.3-0.1-0.8-0.1c-0.9,0-2.5,0.4-4.8,2.4c-0.3,0.3-0.6,0.5-0.9,0.8c-0.1,0.1-0.2,0.1-0.2,0.2c-0.4,0.6-0.9,1.5-1.5,2.5
				c-0.5,0.8-1,1.6-1.5,2.6c-0.9,1.5-1.9,3.2-3,5.1c-0.9,1.6-2,3.4-3.1,5.4c-0.5,0.9-1,1.8-1.6,2.8c-1.7,2.9-3.5,6.1-5.4,9.5
				c-0.4,0.7-0.8,1.4-1.2,2.1c-0.1,0.2-0.2,0.3-0.3,0.5c-0.4,0.7-0.8,1.4-1.2,2.1c-0.9,1.7-1.9,3.4-2.9,5.2c-0.5,0.9-1,1.7-1.5,2.6
				c-1,1.8-2,3.6-3,5.4c-0.9,1.7-1.8,3.3-2.8,5.1c-0.9,1.6-1.8,3.3-2.7,5c-0.4,0.7-0.8,1.4-1.1,2.1c-0.5,0.8-0.9,1.7-1.4,2.5
				c-0.8,1.5-1.6,3-2.4,4.5c-0.4,0.8-0.9,1.6-1.3,2.5c-0.9,1.7-1.8,3.4-2.7,5.2c-0.4,0.7-0.7,1.4-1.1,2.1c-0.5,1-1,2-1.6,3
				c-1.9,3.6-3.8,7.3-5.8,11c-0.7,1.3-1.3,2.5-2,3.8c-0.8,1.5-1.6,3-2.3,4.6c-0.5,0.9-0.9,1.8-1.4,2.7c-0.6,1.1-1.1,2.2-1.7,3.3
				c-0.3,0.6-0.6,1.3-1,1.9c-0.6,1.1-1.2,2.3-1.7,3.4c-1,1.9-1.9,3.8-2.9,5.7c3.4,1.2,6.8,2.3,10.5,3.4c0.5-1,1-2,1.5-3
				c0.6-1.3,1.2-2.5,1.8-3.8c0.7-1.5,1.5-3,2.2-4.5c1.2-2.5,2.5-5,3.7-7.5c1-1.9,1.9-3.8,2.9-5.7c4.8-9.6,9.6-18.9,14.2-27.7
				c0.4-0.8,0.8-1.6,1.3-2.4c1-1.9,2-3.8,3-5.7c1.1-2.1,2.2-4.2,3.3-6.2c0.4-0.7,0.7-1.4,1.1-2.1c7.7-14.3,14.8-27,20.6-37.5
				c0.8-1.3,1.5-2.7,2.2-3.9c2-3.4,3.7-6.6,5.4-9.4c0.1-0.2,0.2-0.3,0.3-0.5C376.9,221.9,377.2,221.5,377.3,221.2L377.3,221.2z
				 M302.9,505c-0.2,0-0.4-0.1-0.6-0.1c-0.8-0.2-1.5-0.4-2.3-0.6c0,0,0,0,0,0c-0.4-0.1-0.9-0.2-1.3-0.3c-7.2-2-13.8-5.4-19.1-8.8
				c-1-0.6-1.9-1.3-2.8-1.9c-2.6-1.8-4.9-3.6-6.7-5.2c-0.8-0.7-1.6-1.4-2.2-1.9c-1.7-1.5-2.6-2.5-2.6-2.5c0.5-3.8,1.2-7.7,2-11.8
				c0.3-1.3,0.5-2.6,0.8-3.9c0.8-3.8,1.7-7.7,2.8-11.7c0.3-1,0.5-2,0.8-3c0.7-2.8,1.5-5.6,2.4-8.4c0-0.2,0.1-0.4,0.2-0.6
				c3.8-12.9,8.5-26.5,13.8-40.3c-2.3-1.2-4.5-2.4-6.6-3.7c-1.1-0.6-2.1-1.2-3.2-1.9c-0.5-0.3-1-0.6-1.6-0.9c-0.5-0.3-1-0.6-1.5-0.9
				c-1-0.6-2-1.2-3-1.9c-2-1.2-3.9-2.5-5.8-3.7c-1-0.7-2-1.3-2.9-2c-0.9-0.6-1.8-1.2-2.6-1.8c-0.8-0.6-1.7-1.2-2.5-1.7
				c-1.7-1.2-3.4-2.4-5-3.6c-0.8-0.6-1.5-1.1-2.3-1.7c-2.3-1.7-4.4-3.4-6.4-5c0-0.2,0-0.5-0.1-0.7c0,0,0-0.1,0-0.1
				c0-0.4-0.1-0.9-0.1-1.3c0-0.1,0-0.3,0-0.4c0-0.3,0-0.7,0-1c0-0.4,0-0.7,0-1.1c0-1,0-2,0-3c0-0.3,0-0.7,0-1c0-0.8,0.1-1.7,0.1-2.5
				c0-0.4,0-0.9,0.1-1.3c0.1-1.3,0.2-2.7,0.4-4.2c0.1-0.4,0.1-0.8,0.2-1.2v0c0-0.4,0.1-0.8,0.2-1.3c0.1-0.9,0.2-1.7,0.4-2.6
				c0.1-0.4,0.1-0.9,0.2-1.3c0.3-1.5,0.5-2.9,0.9-4.4c0.3-1.2,0.6-2.4,1-3.6c0,0,0,0,0,0c0,0,0-0.1,0-0.1c0.2-0.6,0.4-1.1,0.5-1.7v0
				c0.2-0.5,0.3-1,0.5-1.4c0.2-0.5,0.3-1,0.5-1.4c-1.1-0.6-2.2-1.2-3.3-1.8c-4,1.7-7.2,4.2-9.8,7.4c0,0,0,0,0,0
				c-1.1,1.4-2.2,2.9-3.1,4.5c0,0,0,0,0,0c-0.6,1-1.1,2-1.6,3.1c-2.3,4.9-3.8,10.4-4.7,15.6c-0.3,1.8-0.6,3.6-0.8,5.4
				c-0.7,5.5-0.9,10.4-0.7,14.3c0.1,1.2,0.1,2.3,0.3,3.4c3.2,2.5,6.7,5.2,10.5,8c0.1,0,0.1,0.1,0.2,0.1c2.1,1.5,4.3,3.1,6.5,4.7
				c2.8,1.9,5.7,3.9,8.8,5.8c0,0,0,0,0,0c1.8,1.1,3.6,2.3,5.5,3.4l0,0c3.8,2.3,7.7,4.6,11.9,6.8c-1.3,3.3-2.5,6.6-3.7,9.9
				c0,0,0,0,0,0c-0.3,0.7-0.5,1.3-0.7,2c-8.9,24.6-15.6,48-18.3,67.7c0,0,11.5,12,27.8,18.4h0c3,1.2,6.2,2.2,9.5,2.8c0,0,0,0,0,0
				c2.3,0.5,4.7,0.8,7.1,1h0c1.1,0.1,2.1,0.1,3.2,0.1c3.3,0,6.7-0.4,10.2-1.3c0,0,0.5-2,1.5-5.6c0,0,0,0,0,0
				c0.3-1.2,0.7-2.7,1.1-4.3c0.4-1.5,0.9-3.2,1.3-5C306.4,505.6,304.6,505.4,302.9,505z"/>
			<g>
				<path d="M535.9,498c-7.9,3.5-16.2,6-24.7,6.8c-4.6,0.5-9.2,0.5-13.7,0c-1.5-0.2-4.6,0-5.7-1c-0.7-0.6-1.3-3.1-1.5-3.8
					c-5.9-14.6-11.7-29.2-17.5-43.8c-3.3-8.4-6.6-16.8-9.9-25.1c-0.8-2-1.5-3.9-2.3-5.9c-0.4-1-0.6-2.8-1.4-3.5
					c-0.1-0.3-0.2-0.6-0.3-0.9c-0.9,0.3-1.8,0.5-2.7,0.7c-4.8,1.3-9.7,2.5-14.5,3.5c-18.8,3.9-38.1,5.4-57.3,4.4
					c-10.8-0.6-21.4-2-32-4.2c-2-0.4-4-0.9-6-1.3c-1.6-0.4-1.4-0.6-2.3,0.4c-0.6,0.7-1,3.6-1.2,4.5c-1.4,5.1-2.7,10.3-4.1,15.4
					c-0.1,0.5-0.1,5,0,5c17.6,4.1,35.6,5.7,53.6,4.7c9-0.5,18-1.7,26.9-3.5c3.3-0.7,6.5-1.4,9.7-2.3c1.8-0.5,4-1.6,5.9-1.6
					c2.6-0.1,0.7-0.5,2,1.1c0.8,1,1.1,2.8,1.6,4c6.6,16.6,13.3,33.1,20.2,49.5c1.9,4.6,3.8,9.1,5.8,13.7c1,2.3,1.9,4.5,2.9,6.8
					c0.3,0.7,0.6,2,1.1,2.5c0.9,1,0.8,0.7,2.1,1.1c6.4,1.8,15,0.8,21.4,0c18.5-2.3,35.9-10.6,49.2-23.7c0.5-0.5-0.5-4.8,0-5
					C539.3,497,537.6,497.5,535.9,498c-0.5,0.1,0.4,4.9,0,5c1.7-0.5,3.4-1,5.1-1.6c0-1.7,0-3.3,0-5c-11.5,11.4-26.3,19.3-42.2,22.6
					c-8,1.7-16.1,2.2-24.2,1.6c-1.2-0.1-2.5-0.2-3.7-0.4c-2.1-0.2-2-0.2-2.9-2c-2.5-4.5-4.2-9.7-6.2-14.5
					c-7-16.6-13.9-33.3-20.6-50.1c-0.8-2.1-1.7-4.2-2.5-6.4c-0.4-0.9-1.7-5.8-2.5-6.3c-0.7-0.4-4.8,1.4-5.7,1.6
					c-1.8,0.5-3.7,1-5.5,1.4c-8.3,2-16.8,3.4-25.3,4.2c-20.4,2-41,0.5-60.9-4.1c0,1.7,0,3.3,0,5c1.1-4.2,2.2-8.5,3.4-12.7
					c0.5-1.9,0.8-4.4,1.6-6.2c1.4-3.1-0.2-1.3,1.8-1.5c1-0.1,2.5,0.6,3.5,0.8c9,2,18.2,3.4,27.5,4.3c19.2,1.7,38.6,0.9,57.6-2.4
					c4.7-0.8,9.3-1.7,13.9-2.8c2.1-0.5,4.2-1,6.3-1.6c1-0.3,2.6-1.1,3.6-1c1.1-0.6,1.6-0.1,1.6,1.5c0.2,0.6,0.5,1.2,0.7,1.8
					c3.3,8.5,6.7,17,10,25.4c5.8,14.8,11.7,29.6,17.7,44.3c0.9,2.2,1.8,4.4,2.6,6.6c0.3,0.8,0.6,2.6,1.3,3.1c1.3,1.1,5.9,1,7.6,1.1
					c2.4,0.2,4.9,0.2,7.4,0.2c10.1-0.3,20-3.1,29.2-7.1C536.5,502.7,535.3,498.3,535.9,498z"/>
				<path d="M377.3,218.7c-4.6-0.2-9.3-0.3-12.5,3.5c-3.5,4.2-5.9,10.1-8.7,14.8c-5.9,10.3-11.7,20.6-17.4,30.9
					c-12.4,22.5-24.4,45.2-35.8,68.3c-0.2,0.4-0.2,4.9,0,5c2.4,0.8,7.1,3.5,9.6,3.2c1,0.6,1.5,0.2,1.6-1.2c0.3-0.7,0.7-1.4,1-2.1
					c0.5-1,1-2.1,1.5-3.1c2.6-5.4,5.3-10.9,8-16.3c5.8-11.5,11.7-23,17.7-34.4c11.3-21.4,23-42.6,35.1-63.5
					C377.6,223.2,377.2,218.7,377.3,218.7C377.4,218.7,377.4,218.7,377.3,218.7c0,0,0,5,0,5c0,0,0,0,0,0
					C377.4,222,377.4,220.3,377.3,218.7c-12.1,20.9-23.8,42.1-35,63.5c-6,11.4-11.9,22.9-17.7,34.4c-2.6,5.2-5.1,10.3-7.7,15.5
					c-0.7,1.4-2.5,7.1-3.6,7.5c-1.8,0.7-8.7-2.8-10.5-3.4c0,1.7,0,3.3,0,5c11.4-23,23.4-45.7,35.8-68.3c5.6-10.1,11.2-20.2,17-30.2
					c2.9-5,5.5-11,9.1-15.5c3.1-3.9,8.1-3.8,12.5-3.5C377.3,223.7,377.5,218.7,377.3,218.7z"/>
				<path d="M302.9,502.5c-14.1-2.9-27.6-11.1-37.6-21.3c0,1.7,0,3.3,0,5c3.9-27.4,12.9-53.9,22.7-79.7c0.2-0.5,0.3-4.9,0-5
					c-12.3-6.7-24-14.2-35.2-22.5c-2.2-1.6-5.9-3.6-7.5-5.8c-1-1.3-0.9-3.1-0.9-4.8c0-3.7,0.7-7.3,0.7-11c0,0.8,0,1.7,0,2.5
					c0.8-5.8,3.2-11.7,3.2-17.6c0,0.8,0,1.7,0,2.5c0.3-1,0.7-1.9,1-2.9c0.2-0.5,0.3-4.9,0-5c-2.1-1.2-2.5-1.9-4.7-1.1
					c-0.9,0.3-1.9,1-2.7,1.6c-2.1,1.4-4,3.2-5.6,5.2c-2.1,2.5-3.1,4-3.1,7c0-0.8,0-1.7,0-2.5c-5,9-6.9,19.2-7.6,29.4
					c-0.4,4.8-1,10.9-0.1,15.7c0.7,3.7,6.2,6.4,9.2,8.6c3.6,2.7,7.3,5.2,11,7.7c7.5,5.1,15.3,9.8,23.3,14.1c0-1.7,0-3.3,0-5
					c-6.6,17.3-12.6,34.8-17.2,52.7c-2,7.9-3.8,15.9-5,24c-0.3,2.1-1.2,6.2-0.3,8.1c0.5,1.1,2.3,2.2,3.2,3c2.2,2,4.5,3.8,6.9,5.6
					c5.8,4.2,12.2,7.8,19,10.3c7.5,2.7,15.5,4,23.4,2.9c1.1-0.1,4.5-0.3,5.2-1.2c0.6-0.7,0.8-2.9,1-3.8c0.4-1.6,0.5-2.6,0.5-4.2
					c0,0.8,0,1.7,0,2.5c0.8-3.1,1.7-6.1,2.5-9.2c0.1-0.5,0.1-5,0-5C306.4,503.1,304.7,502.8,302.9,502.5c0.3,0-0.3,4.9,0,5
					c1.7,0.3,3.4,0.6,5.2,0.8c0-1.7,0-3.3,0-5c-1,3.9-2.5,7.7-2.5,11.7c0-0.8,0-1.7,0-2.5c-1,3.5-0.4,5.5-4.1,6.2
					c-3.6,0.7-7.2,0.9-10.8,0.7c-6.8-0.4-13.5-2.3-19.7-5.1c-9-4.1-17.8-10-24.7-17.1c0,1.7,0,3.3,0,5c3.9-27.4,12.9-53.9,22.7-79.7
					c0.2-0.5,0.3-4.9,0-5c-13.7-7.4-26.7-15.9-39-25.4c-1.1-0.9-3.7-2.2-4.3-3.4c-0.9-1.7-0.1-7.4,0.1-9.1c0.4-4.5,1.1-9,2.1-13.3
					c1.1-4.5,2.7-8.6,4.6-12.7c0.8-1.8,0.9-2.1,0.9-4c0,0.8,0,1.7,0,2.5c1.8-2.9,3.7-5.6,6.3-7.8c1.2-1,2.4-1.9,3.8-2.7
					c2.8-1.6,3.3-1.1,6.1,0.4c0-1.7,0-3.3,0-5c-0.8,2-1.1,3.3-1.1,5.4c0-0.8,0-1.7,0-2.5c-1.8,5.6-3.2,11.6-3.2,17.6
					c0-0.8,0-1.7,0-2.5c-0.6,4.7-0.8,9.5-0.8,14.3c0,1.6,0,3.3,0.1,4.9c0.1,2.5,0,3.4,2.1,5.1c13,10.3,26.9,19.4,41.5,27.3
					c0-1.7,0-3.3,0-5c-9.3,24.4-18,49.6-22.1,75.5c-0.4,2.4-1.1,5.7-0.6,8.1c0.6,3,4.8,5.4,7.2,7.3c8.9,7,19.3,12.7,30.5,15
					C302.6,507.5,303.3,502.6,302.9,502.5z"/>
			</g>
		</g>
		<g>
			<g>
				<path d="M377.3,218.7c-0.2,0.4-0.4,0.7-0.6,1.1c-0.1,0.1,0,0.7,0,0.7c0,0.6,0,1.2,0,1.8c0,0.6,0,1.2,0,1.8c0,0.2,0.1,0.6,0,0.7
					c0.2-0.4,0.4-0.7,0.6-1.1c0.1-0.1,0-0.7,0-0.7c0-0.6,0-1.2,0-1.8C377.4,221,377.4,218.7,377.3,218.7
					C377.4,218.7,377.4,218.7,377.3,218.7c0,0,0,5,0,5c0,0,0,0,0,0C377.4,222,377.4,220.3,377.3,218.7c-0.2,0.4-0.4,0.7-0.6,1.1
					c0,1.7,0,3.3,0,5c0.2-0.4,0.4-0.7,0.6-1.1c0.1-0.1,0-0.7,0-0.7c0-0.6,0-1.2,0-1.8c0-0.6,0-1.2,0-1.8
					C377.4,219.2,377.3,218.8,377.3,218.7z"/>
			</g>
		</g>
		<path class="st2" d="M381.4,214.1c-0.7,1.1-1.4,2.4-2.2,3.8c-0.6,1-1.2,2-1.8,3.2v0h0c-2.4-0.2-4.4,0-5.9,0.2c0,0-0.3-0.1-0.8-0.1
			c-0.9,0-2.5,0.4-4.8,2.4c-0.3,0.3-0.6,0.5-0.9,0.8c-0.1,0.1-0.2,0.1-0.2,0.2c-0.4,0.6-0.9,1.5-1.5,2.5c-0.5,0.8-1,1.6-1.5,2.6
			c-0.9,1.5-1.9,3.2-3,5.1c-0.9,1.6-2,3.4-3.1,5.4c-0.5,0.9-1,1.8-1.6,2.8c-1.7,2.9-3.5,6.1-5.4,9.5c-0.4,0.7-0.8,1.4-1.2,2.1
			c-0.1,0.2-0.2,0.3-0.3,0.5c-0.4,0.7-0.8,1.4-1.2,2.1c-0.9,1.7-1.9,3.4-2.9,5.2c-0.5,0.9-1,1.7-1.5,2.6c-1,1.8-2,3.6-3,5.4
			c-0.9,1.7-1.8,3.3-2.8,5.1c-0.9,1.6-1.8,3.3-2.7,5c-0.4,0.7-0.8,1.4-1.1,2.1c-0.5,0.8-0.9,1.7-1.4,2.5c-0.8,1.5-1.6,3-2.4,4.5
			c-0.4,0.8-0.9,1.6-1.3,2.5c-0.9,1.7-1.8,3.4-2.7,5.2c-0.4,0.7-0.7,1.4-1.1,2.1c-0.5,1-1,2-1.6,3c-1.9,3.6-3.8,7.3-5.8,11
			c-0.7,1.3-1.3,2.5-2,3.8c-0.8,1.5-1.6,3-2.3,4.6c-0.5,0.9-0.9,1.8-1.4,2.7c-0.6,1.1-1.1,2.2-1.7,3.3c-0.3,0.6-0.6,1.3-1,1.9
			c-0.6,1.1-1.2,2.3-1.7,3.4c-1,1.9-1.9,3.8-2.9,5.7c-2.1-0.7-4.1-1.5-6.1-2.3c-4.4-1.7-8.5-3.4-12.4-5.2c11.8-9,39.2-34.9,64.1-95
			C348.5,236.3,358.6,206.4,381.4,214.1z"/>
		<line class="st3" x1="368.5" y1="224.3" x2="372.8" y2="227.1"/>
		<line class="st3" x1="365.3" y1="225.5" x2="371.9" y2="229.9"/>
		<line class="st3" x1="362.1" y1="226.4" x2="371.3" y2="232.3"/>
		<line class="st3" x1="361.3" y1="229.4" x2="369.3" y2="234.3"/>
		<line class="st3" x1="358.3" y1="236.3" x2="365.3" y2="232.1"/>
		<line class="st3" x1="355.3" y1="240.5" x2="367.1" y2="233.1"/>
		<line class="st3" x1="353.9" y1="243.1" x2="368.6" y2="234.5"/>
		<line class="st3" x1="353.3" y1="245.3" x2="368.3" y2="236.9"/>
		<line class="st3" x1="364.7" y1="242.2" x2="363.2" y2="240.2"/>
		<line class="st3" x1="363" y1="245.5" x2="360.6" y2="241.3"/>
		<line class="st3" x1="361.3" y1="249.3" x2="358.1" y2="242.8"/>
		<line class="st3" x1="359" y1="253.3" x2="355.5" y2="244.3"/>
		<line class="st3" x1="356.6" y1="256.9" x2="353.3" y2="246.3"/>
		<line class="st3" x1="350" y1="250.4" x2="356.6" y2="256.6"/>
		<line class="st3" x1="351.2" y1="248.6" x2="355.2" y2="252.2"/>
		<line class="st3" x1="348.8" y1="252.7" x2="356.1" y2="258.4"/>
		<line class="st3" x1="346.4" y1="254.5" x2="355.2" y2="260.5"/>
		<line class="st3" x1="345" y1="256.5" x2="354" y2="262.7"/>
		<line class="st3" x1="345.3" y1="259.3" x2="352.9" y2="264.5"/>
		<line class="st3" x1="347.9" y1="261.1" x2="342.7" y2="262.5"/>
		<line class="st3" x1="341.4" y1="265.1" x2="350" y2="262.6"/>
		<line class="st3" x1="340.8" y1="267.4" x2="351.9" y2="263.9"/>
		<line class="st3" x1="338.1" y1="270.7" x2="352.3" y2="265.4"/>
		<line class="st3" x1="337.8" y1="272.8" x2="351" y2="268"/>
		<line class="st3" x1="334.5" y1="276" x2="349.5" y2="270.7"/>
		<line class="st3" x1="335.3" y1="276.9" x2="341.8" y2="284.8"/>
		<line class="st3" x1="337.7" y1="274.8" x2="343.9" y2="282"/>
		<line class="st3" x1="341.2" y1="273.3" x2="345.5" y2="278.4"/>
		<line class="st3" x1="344.5" y1="272.3" x2="347.2" y2="275.8"/>
		<line class="st3" x1="346.9" y1="271.6" x2="348.3" y2="273.7"/>
		<line class="st3" x1="337.3" y1="279.5" x2="333.1" y2="280.5"/>
		<line class="st3" x1="338.9" y1="281.5" x2="331.2" y2="282.7"/>
		<line class="st3" x1="340.7" y1="283" x2="329.9" y2="285.3"/>
		<line class="st3" x1="329.7" y1="287.5" x2="341.8" y2="285.1"/>
		<line class="st3" x1="328" y1="289.7" x2="341.6" y2="287.4"/>
		<line class="st3" x1="326.8" y1="292.1" x2="339.5" y2="290"/>
		<line class="st3" x1="336" y1="295.8" x2="336.3" y2="290.5"/>
		<line class="st3" x1="332.9" y1="301.8" x2="333.5" y2="291.4"/>
		<line class="st3" x1="330.8" y1="291.3" x2="330" y2="306.7"/>
		<line class="st3" x1="327.8" y1="292" x2="327.6" y2="312"/>
		<line class="st3" x1="324" y1="297.2" x2="327.6" y2="297.7"/>
		<line class="st3" x1="322.9" y1="299.3" x2="327.8" y2="300.2"/>
		<line class="st3" x1="321" y1="302.2" x2="327.5" y2="303.2"/>
		<line class="st3" x1="320.3" y1="304.8" x2="327.6" y2="305.8"/>
		<line class="st3" x1="319.3" y1="307.6" x2="327.6" y2="308.4"/>
		<line class="st3" x1="317.8" y1="309.5" x2="327.9" y2="310.9"/>
		<line class="st3" x1="316.9" y1="311.9" x2="326.8" y2="313.2"/>
		<line class="st3" x1="325.5" y1="318.4" x2="324" y2="312.8"/>
		<line class="st3" x1="323.7" y1="320.5" x2="321.4" y2="312.3"/>
		<line class="st3" x1="322.6" y1="323.8" x2="318.7" y2="312.2"/>
		<line class="st3" x1="316.4" y1="312.3" x2="321" y2="326.1"/>
		<line class="st3" x1="313.5" y1="316.3" x2="318.8" y2="331"/>
		<line class="st3" x1="311.4" y1="321.6" x2="316.7" y2="325"/>
		<line class="st3" x1="310" y1="324.3" x2="318.4" y2="329.5"/>
		<line class="st3" x1="307.5" y1="327.1" x2="317.5" y2="332.5"/>
		<line class="st3" x1="307" y1="329.3" x2="317.3" y2="335.8"/>
		<line class="st3" x1="304.9" y1="332.4" x2="315.1" y2="339.3"/>
	</g>
	<ellipse class="st3" cx="239.5" cy="350.1" rx="6.3" ry="5.9"/>
	<path class="st3" d="M241.2,363.6c0,4.7-2.7,8.7-6.6,10.3c-0.8,0.3-1.7,0.6-2.6,0.7c-0.4,0.1-0.8,0.1-1.2,0.1
		c-1.7,0-3.3-0.4-4.7-1.2c0.2-1.7,0.5-3.5,0.8-5.4c0.9-5.2,2.4-10.7,4.7-15.6c0.9,0.1,1.7,0.3,2.4,0.5c1.6,0.6,3.1,1.5,4.2,2.8
		C240,357.9,241.2,360.6,241.2,363.6z"/>
	<path class="st3" d="M248.3,342.3L248.3,342.3c0,0.7-0.2,1.3-0.6,1.8c0,0,0,0,0,0c-0.6,0.9-1.7,1.4-2.8,1.4c-1.9,0-3.4-1.4-3.4-3.2
		s1.5-3.2,3.4-3.2C246.8,339.2,248.3,340.5,248.3,342.3z"/>
	<ellipse class="st3" cx="235.8" cy="382" rx="9.2" ry="8.2"/>
	<path class="st3" d="M236.2,398.4c0,0.1,0,0.3,0,0.4c0,0.1,0,0.3,0,0.4c-3.8-2.8-7.3-5.5-10.5-8c-0.1-1-0.2-2.1-0.3-3.4
		c0.2,0,0.3,0,0.5,0c5.1,0,9.3,3.8,10.1,8.9C236.1,397.3,236.2,397.8,236.2,398.4z"/>
	<path class="st3" d="M263.5,389.1c-0.7,2.8-3.5,4.9-6.8,4.9c-3.9,0-7-2.9-7-6.4c0-2.4,1.5-4.6,3.7-5.6c1.6,1.2,3.3,2.4,5,3.6
		c0.8,0.6,1.6,1.2,2.5,1.7C261.7,387.9,262.6,388.5,263.5,389.1z"/>
	<circle class="st3" cx="248.2" cy="382.8" r="2.7"/>
	<circle class="st3" cx="242.7" cy="397.3" r="6.7"/>
	<circle class="st3" cx="247.1" cy="388.6" r="2.6"/>
	<circle class="st3" cx="258.6" cy="404.8" r="8.6"/>
	<path class="st3" d="M244.7,371.8c0,0.3-0.1,0.7-0.2,1c-0.4,0.8-1.1,1.3-2,1.3c-1.3,0-2.3-1-2.3-2.3s1-2.3,2.3-2.3
		c0.8,0,1.5,0.5,1.9,1.1C244.6,370.9,244.7,371.3,244.7,371.8z"/>
	<path class="st3" d="M245.2,357.8c0,0.3-0.1,0.5-0.2,0.8c-0.3,0.6-0.9,1-1.5,1c-1,0-1.8-0.8-1.8-1.8c0-1,0.8-1.8,1.8-1.8
		c0.8,0,1.5,0.6,1.7,1.3v0C245.2,357.5,245.2,357.6,245.2,357.8z"/>
	<path class="st3" d="M267.9,486.1c0.6,0.6,1.4,1.2,2.2,1.9C269.7,487.1,268.9,486.4,267.9,486.1z M271.7,453.3c-0.3,1-0.5,2-0.8,3
		c0.5-0.8,0.8-1.7,0.8-2.7C271.7,453.5,271.7,453.4,271.7,453.3z M276.8,493.2c0.9,0.6,1.9,1.3,2.8,1.9
		C278.9,494.2,277.9,493.5,276.8,493.2z M300,504.3C300,504.3,300,504.3,300,504.3c0.8,0.2,1.6,0.4,2.3,0.6c0.2,0,0.4,0.1,0.6,0.1
		C302,504.6,301,504.3,300,504.3z"/>
	<path class="st3" d="M272.2,395.3c0,2.4-2,4.4-4.4,4.4s-4.4-2-4.4-4.4c0-2,1.3-3.6,3-4.2c1.9,1.2,3.8,2.5,5.8,3.7
		C272.2,394.9,272.2,395.1,272.2,395.3z"/>
	<circle class="st3" cx="278.8" cy="408.5" r="6.3"/>
	<circle class="st3" cx="271.1" cy="402.4" r="3.3"/>
	<circle class="st3" cx="269.3" cy="413.2" r="4.5"/>
	<circle class="st3" cx="274.8" cy="423.1" r="5.4"/>
	<circle class="st3" cx="279.3" cy="416.9" r="1.8"/>
	<circle class="st3" cx="269.9" cy="432.8" r="5.4"/>
	<path class="st3" d="M306.3,510.9c0,1.4-0.4,2.6-1.1,3.7c0,0,0,0,0,0c-1.2,1.7-3.2,2.9-5.5,2.9c-3.6,0-6.6-2.9-6.6-6.6
		c0-3.6,2.9-6.6,6.6-6.6c1,0,2,0.2,2.8,0.7c2.1,1,3.6,3.1,3.7,5.5C306.3,510.6,306.3,510.8,306.3,510.9z"/>
	<circle class="st3" cx="281" cy="512.3" r="9"/>
	<circle class="st3" cx="292.4" cy="518.9" r="3.4"/>
	<circle class="st3" cx="257.8" cy="495.8" r="7.7"/>
	<circle class="st3" cx="266.1" cy="506.9" r="5.9"/>
	<path class="st3" d="M274.3,443.2c0,0.4,0,0.8-0.1,1.2c-0.1,0.2-0.1,0.4-0.2,0.6c-0.7,2-2.6,3.4-4.9,3.4c-1.7,0-3.2-0.8-4.1-2
		c-0.3-0.3-0.5-0.7-0.7-1.1v0c-0.3-0.6-0.4-1.3-0.4-2c0-2.7,2.1-4.9,4.7-5.1c0.1,0,0.3,0,0.5,0c0.4,0,0.8,0,1.2,0.1
		C272.6,438.7,274.3,440.7,274.3,443.2z"/>
	<path class="st3" d="M280.8,498.6c0,3.1-2.5,5.6-5.6,5.6s-5.6-2.5-5.6-5.6c0-3.1,2.5-5.6,5.6-5.6c0.5,0,1,0.1,1.5,0.2
		c1.1,0.3,2.1,1,2.8,1.9C280.4,496.1,280.8,497.3,280.8,498.6z"/>
	<circle class="st3" cx="291.3" cy="505.4" r="3.1"/>
	<path class="st3" d="M271.7,453.6c0,1-0.3,2-0.8,2.7c-0.9,1.4-2.5,2.3-4.3,2.3c-2,0-3.7-1.1-4.5-2.8c0,0,0,0,0,0
		c-0.1-0.2-0.2-0.3-0.2-0.5c0,0,0,0,0,0c-0.2-0.5-0.3-1.1-0.3-1.8c0-2.8,2.3-5.1,5.1-5.1c2.7,0,4.9,2.1,5.1,4.8
		C271.7,453.4,271.7,453.5,271.7,453.6z"/>
	<ellipse class="st3" cx="262.8" cy="447" rx="2.4" ry="2.5"/>
	<path class="st3" d="M270.3,489.3c0,1.8-1.5,3.3-3.4,3.3c-1.9,0-3.4-1.5-3.4-3.3c0-1.8,1.5-3.3,3.4-3.3c0.3,0,0.7,0,1,0.1
		c1,0.3,1.8,1,2.2,1.9C270.3,488.4,270.3,488.8,270.3,489.3z"/>
	<path class="st3" d="M268.1,468c-0.3,1.3-0.6,2.6-0.8,3.9c-1,1.6-2.7,2.6-4.7,2.6c-2.6,0-4.9-1.8-5.4-4.3c-0.1-0.4-0.1-0.7-0.1-1.1
		c0-0.1,0-0.1,0-0.2c0-3.1,2.5-5.6,5.6-5.6C265.4,463.3,267.7,465.4,268.1,468z"/>
	<circle class="st3" cx="256.5" cy="481.5" r="6.3"/>
	<circle class="st3" cx="259.5" cy="456.7" r="2.7"/>
	<circle class="st3" cx="267" cy="460.8" r="2.2"/>
	<circle class="st3" cx="258.3" cy="461.8" r="2.3"/>
	<circle class="st3" cx="255.1" cy="469.9" r="2.1"/>
	<circle class="st3" cx="264" cy="476.5" r="1.9"/>
	<g>
		<path class="st4" d="M421,329.3c-3.3,2.3-9.1,6-17.2,8.1c-0.8,0.2-1.6,0.4-2.4,0.6c-1,0.2-2,0.4-3,0.6c-0.2,0-0.5,0.1-0.7,0.1
			c-8.6,1.2-15.9-0.1-21-1.6c0,0,0,0,0,0c-1.1-0.3-2-0.6-2.9-0.9c-0.6-0.2-1.1-0.4-1.6-0.6c2.2-9.2,5.4-19.6,10-30.7
			c0.7-1.7,1.5-3.4,2.2-5.1v0c0.6-1.3,1.2-2.5,1.8-3.8c0.1-0.2,0.1-0.3,0.2-0.5c2.7-5.5,5.5-10.6,8.3-15.3c1.4,1.2,2.9,2.6,4.5,4.3
			c3.3,3.3,6.8,7.6,10,12.8c2.3,3.8,4.2,7.5,5.8,11C418.7,316.7,420.2,324.2,421,329.3z"/>
		<g>
			<path d="M421.3,329.8c-0.7,0.6-1.5,1.2-2.3,1.8c-0.8,0.6-1.6,1.1-2.4,1.7c-1.7,1.1-3.4,2.1-5.2,2.9c-1.8,0.9-3.6,1.7-5.5,2.3
				l-1.4,0.5l-1.4,0.4l-0.7,0.2l-0.3,0.1l-0.4,0.1l-1.4,0.3l-0.7,0.2l-0.4,0.1l-0.2,0l-0.3,0.1c-0.3,0-0.4,0.1-0.8,0.1l-0.7,0.1
				c-0.9,0.2-2,0.3-3,0.4c-2,0.2-4.1,0.3-6.1,0.3c-4.1,0-8.2-0.5-12.2-1.5l0.9,0.1l0,0l-0.4,0l-0.5-0.1l-2.4-0.7l-0.6-0.2l-0.6-0.2
				l-1.1-0.4l-2.8-0.9l0.6-3.1c0.6-3.2,1.3-6.3,2-9.4c0.7-3.1,1.6-6.2,2.5-9.3c0.9-3.1,1.9-6.2,3-9.2l0.8-2.3l0.4-1.1l0.5-1.2
				l1.7-4.4l-0.4,2l0,0l0-0.9l0.5-1.2l2.2-5.3l1.1-2.6l1.2-2.6c0.8-1.7,1.6-3.5,2.5-5.1c0.9-1.7,1.7-3.4,2.7-5l3.8-6.5l5.5,5
				l2.9,2.6l1.4,1.3l0.7,0.7l0.6,0.7c0.9,1,1.7,1.9,2.6,2.9c0.8,1,1.6,2,2.3,3c1.5,2.1,2.9,4.2,4.1,6.5c1.2,2.2,2.4,4.5,3.3,6.8
				c0.5,1.2,0.9,2.3,1.4,3.5c0.4,1.2,0.8,2.4,1.2,3.6c0.3,1.1,0.7,2.4,0.9,3.6c0.3,1.2,0.5,2.4,0.7,3.7c0.4,2.4,0.7,4.9,0.8,7.4
				c0.1,1.2,0.1,2.5,0.1,3.7c0,1.2-0.1,2.5-0.2,3.7l0,0.4L421.3,329.8z M420.3,329.1l-1.3-3c-0.4-1.1-1-2.2-1.4-3.3
				c-1-2.2-2-4.3-3-6.3c-0.5-1-1-2-1.6-3.1c-0.5-1-1.1-1.9-1.7-3c-0.5-0.9-1.1-1.9-1.7-2.9c-0.6-1-1.2-1.9-1.8-2.8
				c-1.2-1.9-2.5-3.7-3.8-5.4l-2-2.6c-0.7-0.9-1.4-1.7-2.1-2.5c-0.7-0.8-1.5-1.6-2.2-2.4c-0.7-0.8-1.5-1.6-2.2-2.3l-0.6-0.6
				l-0.6-0.5l-1.2-1.1l-2.3-2.3l9.3-1.5l-2.9,4.5c-1,1.5-1.9,3-2.9,4.5l-1.4,2.3l-1.3,2.3l-1.3,2.4l-1.3,2.4l0.5-2.1l0,0l-0.1,1.3
				l-0.4,0.8l-2.1,4.3l-0.3,0.5l-0.1,0.1l0,0.1l0,0c0,0,0.1-0.1,0-0.1l0,0l0,0l-0.1,0.3l-0.5,1l-1,2.1c-1.3,2.8-2.4,5.7-3.6,8.5
				c-1.1,2.9-2.1,5.8-3.2,8.7c-1,2.9-1.9,5.9-2.8,8.9l-2.2-4l1.1,0.5l0.5,0.2l0.5,0.2l2.1,0.8l-0.9-0.1l0,0l0.6,0l0.3,0.1
				c3.4,1.2,7,2,10.7,2.4c1.8,0.2,3.7,0.3,5.5,0.3c0.9,0,1.8,0,2.8-0.1l0.7,0c0.1,0,0.5,0,0.7-0.1l0.1,0l0,0c0,0-0.2,0-0.1,0l0,0
				l0,0l0.2,0l0.4,0l0.7-0.1l1.4-0.2l0.2,0l0.1,0l0,0c0,0,0.1,0-0.1,0l0,0l0,0l0.4-0.1l0.7-0.1l1.4-0.3l1.4-0.3
				c1.8-0.4,3.6-1,5.4-1.6c1.8-0.6,3.6-1.4,5.3-2.2c0.9-0.4,1.7-0.8,2.6-1.3C418.9,329.9,419.6,329.5,420.3,329.1z"/>
		</g>
	</g>
	<circle class="st2" cx="387.2" cy="328.3" r="4.5"/>
	<circle class="st2" cx="401.3" cy="306.5" r="6.7"/>
	<circle class="st2" cx="412.3" cy="327.1" r="4.8"/>
	<circle class="st2" cx="386.3" cy="313.6" r="3.7"/>
	<path class="st2" d="M405.3,334.7c0,1.1-0.6,2.1-1.4,2.7c-0.5,0.4-1.2,0.6-1.9,0.6c-0.2,0-0.3,0-0.5,0c-1.6-0.2-2.9-1.6-2.9-3.3
		c0-1.8,1.5-3.3,3.3-3.3C403.8,331.3,405.3,332.8,405.3,334.7z"/>
	<path class="st2" d="M392.6,299.3c0,2.3-1.8,4.1-4.1,4.1c-2.1,0-3.8-1.6-4.1-3.7v0c0-0.1,0-0.3,0-0.4c0-1.4,0.7-2.7,1.8-3.4
		c0.7-0.4,1.4-0.7,2.3-0.7C390.8,295.3,392.6,297.1,392.6,299.3z"/>
	<path class="st2" d="M378.5,334.5c0,1.2-0.8,2.2-1.8,2.5c0,0,0,0,0,0c-0.3,0.1-0.5,0.1-0.8,0.1c-0.8,0-1.6-0.4-2.1-1
		c-0.3-0.4-0.5-1-0.5-1.6c0-1.5,1.2-2.6,2.6-2.6C377.3,331.9,378.5,333.1,378.5,334.5z"/>
	<circle class="st2" cx="400" cy="322.3" r="5.4"/>
	<circle class="st2" cx="396.9" cy="290.7" r="3.3"/>
	<line class="st3" x1="348.3" y1="426.8" x2="342.8" y2="447.1"/>
	<line class="st3" x1="355.6" y1="429.1" x2="351.8" y2="447.4"/>
	<line class="st3" x1="352.3" y1="427.6" x2="347.9" y2="447.1"/>
	<line class="st3" x1="361" y1="429.3" x2="357" y2="449.4"/>
	<line class="st3" x1="365.4" y1="430.1" x2="361.9" y2="449.1"/>
	<line class="st3" x1="370.6" y1="430.4" x2="367.4" y2="451.3"/>
	<line class="st3" x1="380.6" y1="432.4" x2="369.6" y2="437.5"/>
	<line class="st3" x1="368.5" y1="442.6" x2="387.4" y2="434"/>
	<line class="st3" x1="367.9" y1="447.8" x2="397.3" y2="433.8"/>
	<line class="st3" x1="369.4" y1="451" x2="405.4" y2="433.9"/>
	<line class="st3" x1="380.9" y1="452.6" x2="381.5" y2="444.9"/>
	<line class="st3" x1="387.5" y1="442.3" x2="387.5" y2="451.3"/>
	<line class="st3" x1="392.6" y1="440" x2="392.9" y2="450.9"/>
	<line class="st3" x1="398" y1="437.3" x2="399.6" y2="450.4"/>
	<line class="st3" x1="404.3" y1="433.9" x2="405.8" y2="449.8"/>
	<line class="st3" x1="409.4" y1="432.6" x2="411.1" y2="448.5"/>
	<line class="st3" x1="415.8" y1="431.9" x2="417.5" y2="447.8"/>
	<line class="st3" x1="421" y1="431.1" x2="424" y2="446"/>
	<line class="st3" x1="425.5" y1="430.1" x2="429.1" y2="446.4"/>
	<line class="st3" x1="426.8" y1="435.9" x2="430.3" y2="431.8"/>
	<line class="st3" x1="427.5" y1="439.3" x2="435.3" y2="430.4"/>
	<line class="st3" x1="428.8" y1="443" x2="439.9" y2="429.8"/>
	<line class="st3" x1="434.6" y1="443" x2="444.3" y2="428.8"/>
	<line class="st3" x1="451.5" y1="426.9" x2="437.3" y2="446.6"/>
	<line class="st3" x1="455.5" y1="426.1" x2="461.2" y2="428.8"/>
	<line class="st3" x1="451" y1="427.6" x2="462.2" y2="432"/>
	<line class="st3" x1="449" y1="430.5" x2="463.2" y2="435.3"/>
	<line class="st3" x1="447.5" y1="432.7" x2="464.8" y2="439.7"/>
	<line class="st3" x1="445.1" y1="435.8" x2="451.1" y2="434.1"/>
	<line class="st3" x1="443.2" y1="438.3" x2="455.5" y2="436.1"/>
	<line class="st3" x1="441.3" y1="441" x2="460.4" y2="437.9"/>
	<line class="st3" x1="439.5" y1="443.6" x2="464.3" y2="439.7"/>
	<line class="st3" x1="438" y1="446.3" x2="466" y2="441.3"/>
	<line class="st3" x1="442.7" y1="445.4" x2="438.7" y2="449.8"/>
	<line class="st3" x1="447.5" y1="444.7" x2="440.7" y2="454"/>
	<line class="st3" x1="452.3" y1="443.7" x2="441.7" y2="457.9"/>
	<line class="st3" x1="456.1" y1="443" x2="443.3" y2="461.1"/>
	<line class="st3" x1="455.3" y1="444.5" x2="468.4" y2="448.2"/>
	<line class="st3" x1="460.2" y1="442.3" x2="467.3" y2="444.6"/>
	<line class="st3" x1="453.1" y1="447" x2="468.8" y2="450.3"/>
	<line class="st3" x1="452.1" y1="448.8" x2="470.3" y2="453.5"/>
	<line class="st3" x1="450.8" y1="450.8" x2="458" y2="450.3"/>
	<line class="st3" x1="448.1" y1="454.5" x2="462.3" y2="451.4"/>
	<line class="st3" x1="446.8" y1="456.2" x2="468.8" y2="453.4"/>
	<line class="st3" x1="445" y1="458.5" x2="471.3" y2="455.4"/>
	<line class="st3" x1="447.5" y1="458.2" x2="444.7" y2="463.5"/>
	<line class="st3" x1="450.1" y1="457.9" x2="446" y2="468.4"/>
	<line class="st3" x1="453.1" y1="457.6" x2="447.6" y2="471.9"/>
	<line class="st3" x1="456.2" y1="457.5" x2="449.4" y2="475.3"/>
	<line class="st3" x1="460.5" y1="456.5" x2="451.3" y2="480.9"/>
	<line class="st3" x1="465.6" y1="455.9" x2="452.9" y2="484.6"/>
	<line class="st3" x1="472.9" y1="458.1" x2="464.7" y2="458.3"/>
	<line class="st3" x1="473.9" y1="460.8" x2="463.8" y2="460.9"/>
	<line class="st3" x1="475.1" y1="463.6" x2="462.4" y2="463.5"/>
	<line class="st3" x1="461.1" y1="466" x2="476.4" y2="467.1"/>
	<line class="st3" x1="459.6" y1="469.8" x2="477.6" y2="470.9"/>
	<line class="st3" x1="458.3" y1="472.4" x2="478.9" y2="474.6"/>
	<line class="st3" x1="456.7" y1="475.7" x2="480.8" y2="478.7"/>
	<line class="st3" x1="456.1" y1="478.4" x2="482.4" y2="483.4"/>
	<line class="st3" x1="461.1" y1="479.4" x2="453.9" y2="482.4"/>
	<line class="st3" x1="454.1" y1="486.1" x2="466.1" y2="480.3"/>
	<line class="st3" x1="455.1" y1="490.4" x2="470.9" y2="481.4"/>
	<line class="st3" x1="456.4" y1="494.4" x2="476" y2="482.1"/>
	<line class="st3" x1="458.4" y1="498.4" x2="481.4" y2="483.4"/>
	<line class="st3" x1="465.5" y1="493.6" x2="461.9" y2="506.1"/>
	<line class="st3" x1="469.7" y1="491.1" x2="465.1" y2="513.4"/>
	<line class="st3" x1="475.1" y1="487.5" x2="467.9" y2="519.7"/>
	<line class="st3" x1="484.4" y1="487.4" x2="476.4" y2="486.8"/>
	<line class="st3" x1="474.8" y1="488.9" x2="486.2" y2="491.1"/>
	<line class="st3" x1="474.3" y1="491.6" x2="487.1" y2="494.9"/>
	<line class="st3" x1="473.5" y1="494.6" x2="488.6" y2="498.3"/>
	<line class="st3" x1="473.1" y1="498.1" x2="490.3" y2="502.6"/>
	<line class="st3" x1="471.6" y1="502.6" x2="494.1" y2="507.1"/>
	<line class="st3" x1="471.1" y1="505.4" x2="494.5" y2="509.1"/>
	<line class="st3" x1="470.3" y1="509.5" x2="475.6" y2="506.3"/>
	<line class="st3" x1="469.8" y1="511.8" x2="479.2" y2="506.8"/>
	<line class="st3" x1="468.9" y1="516" x2="483.7" y2="507.4"/>
	<line class="st3" x1="468.8" y1="520.3" x2="488.4" y2="508.1"/>
	<line class="st3" x1="474.8" y1="522.1" x2="492.9" y2="508.9"/>
	<line class="st3" x1="524.1" y1="506.2" x2="525.8" y2="509.7"/>
	<line class="st3" x1="519.9" y1="507.5" x2="522.3" y2="513.4"/>
	<line class="st3" x1="515.8" y1="507.7" x2="518" y2="515.7"/>
	<line class="st3" x1="509.8" y1="508.2" x2="512.2" y2="517"/>
	<line class="st3" x1="503.6" y1="508.7" x2="505.8" y2="519.4"/>
	<line class="st3" x1="496.4" y1="508.4" x2="498.8" y2="521.1"/>
	<line class="st3" x1="499.9" y1="507.6" x2="502.6" y2="521.3"/>
	<line class="st3" x1="489.9" y1="511.3" x2="497.6" y2="512.4"/>
	<line class="st3" x1="486.4" y1="513.6" x2="498.1" y2="516.4"/>
	<line class="st3" x1="483.5" y1="516.1" x2="496.9" y2="520.8"/>
	<line class="st3" x1="479.8" y1="518.5" x2="483.7" y2="522.5"/>
</g>
<g>
	<path class="st5" d="M509.4,321.1c2,5.6-7.1,39.7,3.7,42.8c0,0-4.4,14.8-10.4,2.7c0,0,1-40.4-4.4-41.4c-5.4-1-8.7,12.8-7.5,15.5
		c1.2,2.7,1.9,7.2-1.2,7.2c-1.5,0-2.9,0.7-4.1,0.1c-2.5-1.1-3.1-7-3.2-7.4c-0.4-4.8-4.2-14.6-18.7-36.5c0,0,0.1-0.2,0.3-0.7
		c1.8-4.5,12.1-29.8,20-28.3c0.7,0.1,1.4,0.5,3.3,2.5c6.7,6.8,7.7,10.7,10.6,13.8c8.2,8.8,22.5,2.6,26.6,10.6
		c0.6,1.2,0.8,2.3,0.9,3.2c0,0.4,0,0.7,0,1C525.3,306.3,507.3,315.6,509.4,321.1z"/>
	<path d="M509.5,321.1c0.1,0.4,0.2,0.9,0.3,1.4c0,0.5,0.1,0.9,0.1,1.4c0,0.9,0,1.9-0.1,2.8c-0.1,1.9-0.3,3.7-0.5,5.6
		c-0.2,1.9-0.4,3.7-0.5,5.6c-0.1,1.9-0.2,3.7-0.3,5.6c-0.1,1.9-0.1,3.7-0.1,5.6c0,1.9,0.2,3.7,0.4,5.5c0.1,0.5,0.1,0.9,0.2,1.3
		c0.1,0.4,0.2,0.9,0.3,1.3c0.1,0.4,0.2,0.9,0.4,1.3c0.1,0.4,0.3,0.8,0.5,1.2c0.2,0.4,0.4,0.7,0.6,1.1c0.3,0.3,0.5,0.7,0.8,0.9
		c0.5,0.6,1.2,0.8,1.9,1.1l1.1,0.4l-0.3,1c-0.2,0.7-0.5,1.4-0.7,2.1c-0.3,0.7-0.6,1.4-0.9,2c-0.3,0.7-0.7,1.3-1.2,2
		c-0.2,0.3-0.5,0.6-0.8,0.9c-0.3,0.3-0.7,0.6-1.1,0.8c-0.4,0.2-0.9,0.4-1.4,0.5c-0.5,0.1-1.1,0-1.6-0.1c-0.5-0.1-0.9-0.4-1.3-0.6
		l-0.5-0.4l-0.5-0.4c-0.3-0.3-0.5-0.6-0.8-0.9c-0.2-0.3-0.5-0.6-0.7-1c-0.4-0.6-0.8-1.3-1.1-2l-0.1-0.3l0-0.3
		c0.1-2.6,0.1-5.1,0.1-7.7c0-2.6,0-5.1,0-7.7c0-5.1-0.1-10.3-0.6-15.4c-0.2-2.5-0.5-5.1-1.2-7.5c-0.2-0.6-0.4-1.2-0.7-1.7
		c-0.3-0.5-0.6-0.9-0.9-0.9c-1.1-0.2-2.1,0.4-2.9,1.3c-1.6,1.8-2.6,4.2-3.3,6.7c-0.3,1.2-0.6,2.5-0.8,3.7c-0.1,0.6-0.1,1.3-0.1,1.9
		c0,0.3,0,0.6,0.1,0.9c0,0.2,0.2,0.5,0.3,0.8c0.5,1.3,0.8,2.6,0.8,3.9c0,0.7,0,1.4-0.4,2.1c-0.3,0.7-1.1,1.3-1.9,1.4
		c-0.4,0.1-0.7,0-1,0.1c-0.3,0-0.6,0.1-0.9,0.1c-0.6,0.1-1.3,0.3-2.1,0.2c-0.2,0-0.4-0.1-0.6-0.1l-0.1-0.1c0,0,0,0-0.1-0.1l-0.1,0
		l-0.2-0.1c-0.2-0.1-0.7-0.5-0.9-0.7c-0.5-0.5-0.8-1.2-1.1-1.8c-0.6-1.2-0.9-2.5-1.1-3.8c-0.1-0.7-0.2-1.3-0.3-1.9
		c-0.1-0.6-0.2-1.2-0.4-1.8c-0.6-2.4-1.7-4.8-2.7-7.1c-1.1-2.3-2.3-4.5-3.6-6.8c-1.3-2.2-2.6-4.4-3.9-6.6c-2.7-4.4-5.5-8.6-8.4-12.9
		l-0.4-0.6l0.3-0.7c1.4-3.7,2.9-7.2,4.6-10.8c1.7-3.5,3.5-7,5.6-10.3c1.1-1.7,2.2-3.3,3.6-4.8c1.4-1.5,2.9-3,5.2-3.9
		c0.3-0.1,0.6-0.2,0.9-0.2c0.3,0,0.7-0.1,1-0.1c0.4,0,0.7,0,1.1,0.1c0.1,0,0.4,0.1,0.6,0.2c0.2,0.1,0.4,0.2,0.5,0.2
		c0.7,0.4,1.1,0.7,1.5,1.1c0.4,0.4,0.7,0.7,1.1,1.1c0.7,0.8,1.3,1.4,2,2.2c0.7,0.7,1.3,1.5,1.9,2.3c1.2,1.5,2.4,3.2,3.5,4.8
		c1.1,1.6,2,3.3,3.1,4.6l0.4,0.5l0.5,0.5c0.3,0.4,0.6,0.6,0.9,0.9c0.7,0.5,1.4,1,2.2,1.4c1.5,0.8,3.3,1.4,5.1,1.8
		c1.8,0.4,3.7,0.7,5.6,0.9c1.9,0.3,3.9,0.5,5.8,1.1c1.9,0.6,3.9,1.6,5.2,3.3c1.3,1.7,1.7,3.9,1.6,5.8l0,0.4l-0.3,0.1
		c-1.7,0.8-3.4,1.7-5,2.7c-1.6,0.9-3.2,2-4.8,3.1c-1.5,1.1-3,2.3-4.3,3.7c-0.6,0.7-1.2,1.4-1.6,2.3c-0.2,0.4-0.4,0.8-0.4,1.3
		C509.3,320.2,509.4,320.7,509.5,321.1L509.5,321.1z M509.2,321.2c-0.1-0.5-0.2-1-0.1-1.5c0.1-0.5,0.2-1,0.5-1.4
		c0.4-0.9,1-1.6,1.7-2.4c1.3-1.4,2.8-2.7,4.3-3.8c1.5-1.2,3.1-2.2,4.7-3.3c1.6-1,3.2-2,4.9-3l-0.3,0.5l0-0.7l0-0.2c0,0,0-0.1,0-0.1
		l0-0.1l0-0.3c-0.1-0.4-0.2-0.9-0.3-1.3c-0.1-0.4-0.3-0.8-0.5-1.2c-0.2-0.4-0.5-0.7-0.7-1.1c-1.1-1.3-2.8-2.1-4.6-2.5
		c-1.8-0.4-3.7-0.5-5.6-0.7c-1.9-0.2-3.9-0.3-5.8-0.6c-2-0.3-4-0.9-5.9-1.8c-0.9-0.5-1.8-1-2.7-1.7c-0.4-0.3-0.9-0.7-1.2-1.1
		l-0.5-0.5l-0.6-0.6c-1.4-1.6-2.4-3.3-3.4-4.9c-1-1.6-2.1-3.1-3.3-4.5c-0.6-0.7-1.2-1.4-1.8-2.1c-0.6-0.7-1.3-1.4-2-2
		c-0.3-0.3-0.7-0.6-1-0.9c-0.3-0.3-0.6-0.6-0.8-0.7c0,0-0.1,0-0.1,0c-0.1,0,0.1,0-0.1,0c-0.1,0-0.3,0-0.4,0c-0.1,0-0.3,0-0.4,0
		c-0.2,0-0.3,0.1-0.5,0.1c-1.3,0.5-2.7,1.7-3.9,3c-1.2,1.3-2.3,2.9-3.3,4.4c-2.1,3.1-3.9,6.5-5.6,9.9c-1.7,3.4-3.2,6.9-4.6,10.4
		l-0.1-1.3c1.4,2.2,2.8,4.3,4.2,6.6c1.4,2.2,2.7,4.4,4,6.7c2.6,4.5,5,9.1,7.1,13.9c1,2.4,2,4.9,2.6,7.4c0.2,0.6,0.3,1.3,0.4,2
		c0.1,0.6,0.1,1.3,0.2,1.9c0.2,1.2,0.5,2.5,0.9,3.6c0.5,1.1,1.1,2.1,2.1,2.3c0.5,0.1,1.1,0,1.8-0.1c0.3,0,0.6-0.1,1-0.1
		c0.4,0,0.7,0,0.9-0.1c0.5-0.1,0.9-0.3,1.1-0.8c0.2-0.5,0.3-1.1,0.3-1.7c0-1.2-0.3-2.5-0.8-3.6l-0.2-0.4c-0.1-0.1-0.1-0.4-0.2-0.5
		c-0.1-0.4-0.1-0.7-0.1-1c0-0.7,0-1.3,0.1-2c0.1-1.3,0.4-2.6,0.7-3.9c0.3-1.3,0.8-2.5,1.3-3.7c0.5-1.2,1.2-2.4,2.1-3.4
		c0.5-0.5,1-1,1.7-1.3c0.3-0.2,0.7-0.3,1.1-0.4c0.2,0,0.4,0,0.6-0.1c0.2,0,0.3,0,0.5,0c0.5,0,0.9,0.3,1.2,0.6
		c0.3,0.3,0.5,0.6,0.7,0.9c0.4,0.6,0.6,1.3,0.9,1.9c0.9,2.5,1.3,5.1,1.6,7.7c0.7,5.2,1,10.3,1.3,15.5c0.2,5.2,0.3,10.3,0.1,15.5
		l-0.1-0.6c0.3,0.6,0.6,1.2,1,1.7c0.2,0.3,0.4,0.5,0.5,0.8c0.2,0.2,0.4,0.5,0.6,0.7l0.3,0.3l0.3,0.2c0.2,0.1,0.4,0.2,0.6,0.3
		c0.2,0.1,0.3,0.1,0.5,0c0.2,0,0.3-0.1,0.5-0.2c0.2-0.1,0.4-0.3,0.6-0.4c0.2-0.2,0.4-0.4,0.6-0.6c0.4-0.5,0.7-1,1.1-1.6
		c0.3-0.6,0.6-1.2,0.9-1.8c0.3-0.6,0.5-1.3,0.7-1.9l0.8,1.4c-1.1-0.4-2.1-1-2.8-1.8c-0.4-0.4-0.7-0.9-1-1.3
		c-0.2-0.5-0.5-0.9-0.7-1.4c-0.2-0.5-0.4-0.9-0.5-1.4c-0.1-0.5-0.3-1-0.3-1.4c-0.1-0.5-0.2-1-0.2-1.4c-0.1-0.5-0.1-1-0.2-1.4
		c-0.1-1-0.1-1.9-0.1-2.9c0-1,0-1.9,0-2.8c0.1-1.9,0.2-3.8,0.4-5.6c0.2-1.9,0.4-3.7,0.7-5.6l0.7-5.6c0.2-1.9,0.5-3.7,0.6-5.6
		c0.1-0.9,0.1-1.9,0.1-2.8C509.5,323,509.5,322.1,509.2,321.2L509.2,321.2z"/>
</g>
<ellipse transform="matrix(0.5 -0.866 0.866 0.5 3.0989 579.8076)" class="st2" cx="503.7" cy="287.2" rx="2.4" ry="4.5"/>
<ellipse transform="matrix(0.5 -0.866 0.866 0.5 10.9383 573.2608)" class="st2" cx="501.9" cy="277.2" rx="2.8" ry="5.1"/>
<ellipse transform="matrix(0.5 -0.866 0.866 0.5 7.9377 583.708)" class="st2" cx="509.5" cy="285" rx="1.2" ry="2.2"/>
<ellipse transform="matrix(0.5 -0.866 0.866 0.5 13.4018 585.1721)" class="st2" cx="513.5" cy="281" rx="1.2" ry="2.2"/>
<path class="st6" d="M377.1,184.7c2,3.4,1.8,7.5-0.2,10.6c-0.1-1.3-0.4-2.6-1.1-3.8c-1-1.7-2.4-2.9-4.2-3.6
	c-1.7-0.7-3.6-0.9-5.5-0.7c-0.3-0.3-0.6-0.7-0.9-1.1c-1.3-2.3-0.5-5.2,1.8-6.5l0,0c2.1-0.3,4.2,0.2,6.1,1.2
	C374.7,181.6,376.1,182.9,377.1,184.7z"/>
<path class="st6" d="M393.4,169.8c1.4,5.8-0.6,11.5-4.7,15.1c0.5-1.9,0.5-3.9,0-5.8c-0.7-2.8-2.3-5.1-4.5-6.9
	c-2.1-1.7-4.7-2.8-7.6-3.3c-0.4-0.6-0.6-1.3-0.8-2c-0.9-3.8,1.4-7.7,5.3-8.6l0.1,0c3.1,0.5,5.9,2,8.2,4.2
	C391.2,164.4,392.7,166.9,393.4,169.8z"/>
<g>
	<path d="M286.3,313.6c0,0,0.6-0.6,1.6-1.6c1-1,2.5-2.5,4.2-4.3c1.7-1.8,3.5-4,5-6.5c0.4-0.6,0.7-1.3,1.1-2c0.3-0.6,0.7-1.4,1-2.1
		c0.6-1.4,1.2-3,1.8-4.5c0.6-1.6,1.2-3.2,1.9-4.8c0.6-1.6,1.3-3.1,2.1-4.5c0.8-1.4,1.7-2.7,2.6-3.8c0.9-1.2,1.9-2.2,2.8-3.1
		c1.8-1.8,3.6-3.2,4.9-4c0.6-0.4,1.2-0.7,1.6-0.9c0.4-0.2,0.6-0.3,0.6-0.3l0.5,0.4c0,0,0,0.2-0.2,0.6c-0.1,0.4-0.3,1-0.5,1.7
		c-0.3,0.7-0.5,1.6-0.9,2.5c-0.4,1-0.8,2-1.3,3.2c-0.5,1.1-1.1,2.3-1.7,3.6c-0.6,1.3-1.3,2.6-2.1,3.9c-0.8,1.3-1.7,2.6-2.6,3.9
		c-0.5,0.7-0.9,1.3-1.3,2c-0.2,0.4-0.4,0.7-0.7,1.1l-0.6,1c-0.8,1.4-1.6,2.9-2.6,4.4c-0.5,0.7-0.9,1.4-1.5,2.2c-0.5,0.7-1,1.4-1.6,2
		c-2.2,2.5-4.6,4.5-6.6,6c-2.1,1.5-3.8,2.6-5.1,3.4c-1.3,0.8-2,1.2-2,1.2L286.3,313.6z"/>
</g>
<g>
	<path d="M290.9,284.8c0,0,0.3-0.2,0.8-0.7c0.5-0.4,1.2-1,2-1.8c0.8-0.8,1.6-1.7,2.5-2.7c0.9-1.1,1.7-2.2,2.5-3.4
		c0.4-0.6,0.8-1.2,1.1-1.8c0.3-0.6,0.6-1.2,1-1.8c0.3-0.6,0.7-1.1,1.1-1.6c0.4-0.5,0.7-0.9,1.1-1.4c0.7-0.8,1.3-1.6,1.8-2
		c0.5-0.5,0.8-0.8,0.8-0.8l0.4,0.1c0,0,0.1,0.4,0.1,1.1c0,0.4,0,0.8,0,1.3c0,0.5-0.1,1-0.2,1.6c-0.1,0.6-0.3,1.2-0.6,1.8
		c-0.2,0.6-0.6,1.3-0.9,1.9c-0.8,1.2-2,2.3-3.1,3.5c-0.6,0.5-1.1,1.1-1.7,1.6c-0.6,0.5-1.2,1-1.7,1.4c-0.6,0.4-1.1,0.9-1.7,1.2
		c-0.6,0.4-1.1,0.7-1.6,1c-0.5,0.3-1,0.5-1.4,0.7c-0.4,0.2-0.8,0.4-1.1,0.5c-0.6,0.3-1,0.4-1,0.4L290.9,284.8z"/>
</g>
<g>
	<path d="M389,461.2l2.7,0.6l2.7,0.5l2.7,0.3l2.7,0.1l2.7,0l2.7-0.2l2.7-0.4l2.6-0.5l2.6-0.7l2.5-0.8l2.5-1l2.4-1.1l2.3-1.2l2.3-1.4
		l2.2-1.5l2-1.7l2-1.7l0.5,2.6l0.6,2.7l0.6,2.6l0.7,2.6l0.8,2.6c0.5,1.7,1.1,3.4,1.7,5.2l1.8,5.1l0.9,2.6l1,2.5l1,2.5
		c0.4,0.8,0.7,1.7,1,2.5c0.7,1.7,1.4,3.4,2.2,5l1.1,2.5c0.4,0.8,0.8,1.7,1.1,2.5l-0.3,0.2c-0.6-0.7-1.2-1.4-1.8-2.1l-1.7-2.2
		l-1.6-2.3l-1.5-2.4c-0.5-0.8-1-1.6-1.4-2.4l-1.3-2.5l-1.2-2.5l-1.2-2.6l-1-2.6l-0.9-2.7l-0.8-2.7l-0.7-2.7l-0.6-2.7l-0.5-2.8
		l-0.5-2.8l-0.4-2.8l2.6,1l-2.3,1.7l-2.4,1.5l-2.5,1.3l-2.6,1.2l-2.6,1l-2.7,0.9l-2.7,0.7l-2.7,0.5L408,464l-2.8,0.2l-2.8,0
		l-2.8-0.2l-2.8-0.3l-2.7-0.5l-2.7-0.7l-2.6-0.9L389,461.2z"/>
</g>
<g>
	<path d="M409.7,476.2c0.4,0,0.9,0,1.3-0.1c0.4-0.1,0.8-0.1,1.2-0.2c0.8-0.2,1.6-0.5,2.3-0.8c0.7-0.4,1.4-0.8,2.1-1.3
		c0.3-0.3,0.6-0.5,0.9-0.8c0.3-0.3,0.5-0.6,0.8-0.9l1.2-1.6l0.6,2c0.7,2.2,1.3,4.4,2.1,6.5c0.4,1.1,0.7,2.1,1.2,3.1
		c0.2,0.5,0.5,1,0.7,1.5l0.8,1.5l0.8,1.4c0.2,0.5,0.5,0.9,0.7,1.4l0.7,1.4l0.8,1.4l0.8,1.4c0.3,0.5,0.6,0.9,0.9,1.4l1,1.4l1,1.4
		l-0.2,0.3c-0.6-0.2-1.2-0.4-1.7-0.6c-0.6-0.3-1.1-0.6-1.6-0.9c-0.5-0.3-1-0.7-1.5-1.1c-0.5-0.4-0.9-0.8-1.4-1.3
		c-0.4-0.4-0.8-0.9-1.2-1.4c-0.4-0.5-0.7-1-1.1-1.5c-0.3-0.5-0.6-1.1-0.9-1.6l-0.4-0.9c-0.1-0.3-0.2-0.5-0.3-0.8
		c-0.4-1.1-0.7-2.3-1-3.5c-0.3-1.2-0.6-2.3-0.8-3.4c-0.5-2.3-0.9-4.6-1.2-6.9l1.8,0.5c-0.3,0.3-0.7,0.7-1.1,0.9
		c-0.4,0.3-0.8,0.5-1.2,0.8c-0.8,0.5-1.7,0.9-2.6,1.1c-0.9,0.3-1.8,0.4-2.7,0.5c-0.5,0-0.9,0-1.4,0c-0.5,0-0.9-0.1-1.3-0.2
		L409.7,476.2z"/>
</g>
<g>
	<path d="M561,379.4l-1,1.9l-1,1.9l-1.1,1.9l-1.2,1.8l-1.3,1.8l-1.3,1.7l-1.4,1.7l-1.5,1.6l-1.6,1.6l-1.6,1.5l-1.7,1.4l-1.7,1.4
		l-1.8,1.3l-1.8,1.2l-1.9,1.2l-1.9,1.1l0.5-2.6c0.9,1,1.8,2,2.8,3c0.9,1,1.8,2.1,2.6,3.1c0.8,1.1,1.6,2.2,2.4,3.3
		c0.7,1.1,1.4,2.3,2,3.5c0.6,1.2,1.2,2.4,1.7,3.7l0.8,1.9c0.2,0.6,0.5,1.3,0.7,1.9c0.4,1.3,0.8,2.6,1.1,3.9c0.1,0.7,0.3,1.3,0.4,2
		c0.1,0.7,0.2,1.3,0.3,2l-0.4,0.1c-0.7-1.2-1.3-2.3-2-3.5l-2-3.4l-2-3.4c-0.4-0.5-0.7-1.1-1-1.7l-1-1.6c-0.4-0.5-0.7-1.1-1.1-1.6
		c-0.4-0.5-0.7-1.1-1.1-1.6c-0.4-0.5-0.7-1.1-1.1-1.6c-0.4-0.5-0.7-1.1-1.1-1.6l-1.1-1.6l-1.1-1.6c-0.8-1.1-1.6-2.1-2.4-3.1
		l-1.4-1.7l1.9-0.9l1.9-0.9l1.9-1l1.8-1l1.8-1.1l1.7-1.2l1.7-1.3l1.7-1.3l1.6-1.4l1.6-1.4l1.5-1.5l1.5-1.6l1.4-1.6l1.3-1.7l1.3-1.7
		l1.2-1.8l1.2-1.8L561,379.4z"/>
</g>
<g>
	<path d="M569.3,386.7c0,0,0,0.2,0,0.4c0,0.3,0,0.7,0,1.3c-0.1,1.1-0.4,2.7-1.2,4.5c-0.4,0.9-0.9,1.8-1.5,2.7
		c-0.6,0.9-1.4,1.8-2.2,2.7c-1.7,1.8-3.8,3.3-5.9,4.7c-1,0.7-2.1,1.4-3.1,2.1c-0.2,0.2-0.6,0.4-0.6,0.4c0,0,0.1,0,0.2-0.1
		c0,0,0.1-0.1,0.1-0.1l0,0l0,0c0.1-0.2,0-0.1,0-0.1l0,0.1l0,0l0-0.1c0,0,0-0.1,0-0.1c0-0.1,0-0.1,0-0.2c0-0.4,0-0.4,0-0.3l0.4,0.6
		c1.2,1.9,2.2,3.9,3,5.6c0.8,1.7,1.3,3.2,1.7,4.2c0.3,1.1,0.5,1.7,0.5,1.7l-0.3,0.2c0,0-0.5-0.4-1.4-1.1c-0.8-0.7-1.9-1.9-3.2-3.3
		c-1.2-1.4-2.6-3.1-3.8-5.1l-0.2-0.4c-0.1-0.2-0.2-0.3-0.3-0.6c-0.2-0.4-0.5-1-0.4-2c0-0.1,0-0.2,0.1-0.4l0.1-0.2l0-0.1l0,0l0-0.1
		l0.1-0.1l0,0l0-0.1c0.1-0.1,0.1-0.2,0.2-0.3c0.3-0.4,0.6-0.6,0.8-0.8c0.5-0.3,0.7-0.3,1-0.5c1.1-0.5,2.2-1,3.3-1.6
		c2.1-1.1,4.2-2.3,5.9-3.7c1.7-1.4,3.1-2.9,4.1-4.4c1-1.5,1.5-2.9,1.8-3.9c0.1-0.5,0.2-0.9,0.3-1.2c0-0.3,0.1-0.4,0.1-0.4
		L569.3,386.7z"/>
</g>
<radialGradient id="SVGID_3_" cx="412.1253" cy="387.7928" r="175.3199" gradientUnits="userSpaceOnUse">
	<stop  offset="0" style="stop-color:#9E1F63"/>
	<stop  offset="1" style="stop-color:#232042"/>
</radialGradient>
<path class="st7" d="M579.7,329c1.3-17.8-5.4-29.5-5.4-29.5c-6.2-10.7-15.7-14.9-20.3-16.5c-4.7,4.1-13.9,12.1-27,21.2
	c-0.5,0.4-1.1,0.8-1.7,1.1c0,0.4,0,0.7,0,1c0,0-18,9.3-16,14.8c2,5.6-7.1,39.7,3.7,42.8c0,0-4.4,14.8-10.4,2.7c0,0,1-40.4-4.4-41.4
	c-5.4-1-8.7,12.8-7.5,15.5c1.2,2.7,1.9,7.2-1.2,7.2c-1.5,0-2.9,0.7-4.1,0.1c-2.5-1.1-3.1-7-3.2-7.4c-0.4-4.8-4.2-14.6-18.7-36.5
	c0,0,0.1-0.2,0.3-0.7c-25.6-37.3-49.3-68.6-61.4-84.3c-3.5-4.6-6.1-7.9-7.4-9.5c-0.3-0.6-0.7-1.5-1.5-2.3c-1-1.1-2-1.7-2.7-2
	c0,0-0.3-0.1-0.8-0.1c-0.8,0-2.3,0.4-4.4,2.3c-0.3,0.3-0.6,0.5-0.8,0.7c-0.1,0.1-0.1,0.1-0.2,0.2c-0.7,1.1-1.8,3.1-3.3,5.7
	c-0.7,1.1-1.4,2.4-2.2,3.8c-0.6,1-1.2,2-1.8,3.2v0c-0.2,0.4-0.4,0.7-0.6,1.1c-0.1,0.2-0.2,0.3-0.3,0.5c-1.6,2.8-3.4,6-5.3,9.4
	c-0.5,1-1.1,2-1.7,3c-7.7,13.8-17.5,31.8-28.1,52.3c-7.8,15.1-16,31.5-24,48.4c-1,2.2-2,4.3-3.1,6.5c-0.3-0.1-0.7-0.2-1-0.3
	c-3.6-1.1-7.1-2.3-10.5-3.4c-2.1-0.7-4.1-1.5-6.1-2.3c-4.4-1.7-8.5-3.4-12.4-5.2c-7.2-3.2-13.6-6.5-19.3-9.7
	c-7.8,3.2-12.7,10-15.7,17.8c-0.2,0.5-0.4,1-0.5,1.4c-0.2,0.5-0.3,1-0.5,1.4v0.1c0,0.6-0.2,1.3-0.6,1.8c0,0,0,0,0,0
	c-0.3,1.2-0.7,2.4-1,3.6c-0.3,1.5-0.6,3-0.9,4.4c-0.1,0.5-0.2,0.9-0.2,1.3c-0.1,0.9-0.3,1.8-0.4,2.6c-0.1,0.4-0.1,0.9-0.2,1.3v0
	c0,0.1,0,0.3,0,0.4c0,0.3-0.1,0.5-0.2,0.8c-0.2,1.4-0.3,2.8-0.4,4.2c0,0.5-0.1,0.9-0.1,1.3c0,0.9-0.1,1.7-0.1,2.5c0,0.3,0,0.7,0,1
	c0,1,0,2,0,3c0.2,0.3,0.3,0.7,0.3,1.1c0,0.3-0.1,0.7-0.2,1c0,0.1,0,0.3,0,0.4c0,0.5,0.1,0.9,0.1,1.3c0,0,0,0.1,0,0.1
	c0,0.2,0,0.5,0.1,0.7c2,1.6,4.2,3.3,6.4,5c0.8,0.6,1.5,1.1,2.3,1.7c1.6,1.2,3.3,2.4,5,3.6c0.8,0.6,1.6,1.2,2.5,1.7
	c0.9,0.6,1.8,1.2,2.6,1.8c1,0.7,1.9,1.3,2.9,2c1.9,1.2,3.8,2.5,5.8,3.7c1,0.6,2,1.2,3,1.9c0.5,0.3,1,0.6,1.5,0.9
	c0.5,0.3,1,0.6,1.6,0.9c1,0.6,2.1,1.2,3.2,1.9c2.1,1.2,4.3,2.5,6.6,3.7c-5.3,13.8-10,27.4-13.8,40.3c0,0.2-0.1,0.4-0.2,0.6
	c-0.8,2.8-1.6,5.6-2.4,8.4c0,0.1,0,0.2,0,0.3c0,1-0.3,2-0.8,2.7c-1,4-2,7.9-2.8,11.7c-0.3,1.3-0.6,2.6-0.8,3.9c-0.8,4-1.5,8-2,11.8
	c0,0,0.9,1,2.6,2.5c1,0.3,1.8,1,2.2,1.9c1.8,1.5,4.1,3.3,6.7,5.2c1.1,0.3,2.1,1,2.8,1.9c5.3,3.4,11.8,6.8,19.1,8.8
	c0.4,0.1,0.9,0.2,1.3,0.3c1,0,2,0.2,2.9,0.7c1.7,0.3,3.4,0.6,5.2,0.8c2.3,0.2,4.7,0.3,7.1,0.1l-0.7,0.9c10.8,21-1.3,60.8-1.3,60.8
	c9,7.5,12.3-2.3,12.3-2.3c-4.8-4,1-72.8,1-72.8l-0.1,0.1c2.6-9.6,6.6-24.4,11.3-42.3c0.3-1.2,0.7-2.4,1-3.7
	c1.7-6.6,3.6-13.5,5.5-20.8c1.3,0.3,2.7,0.7,4.1,1c0.5,0.1,1,0.2,1.5,0.3c0.8,0.2,1.7,0.4,2.5,0.5c2.9,0.6,5.9,1.2,8.8,1.6
	c3.2,0.5,6.4,1,9.6,1.3c19,2.2,37.4,1.9,55-0.5c11.5-1.5,22.6-3.9,33.2-6.9c0.7,1.8,1.4,3.5,2.1,5.3c0.5,1.2,0.9,2.3,1.3,3.4
	c1.2,3.2,2.5,6.3,3.7,9.3c0.4,1.1,0.8,2.2,1.3,3.2c1.9,4.7,3.7,9.2,5.4,13.5c0.4,0.9,0.7,1.8,1.1,2.7c0.4,0.9,0.8,1.9,1.1,2.8
	c0.5,1.2,0.9,2.3,1.4,3.5c0.5,1.3,1,2.6,1.5,3.9c1.1,2.7,2.1,5.3,3.1,7.7c1.3,3.1,2.4,6.1,3.5,8.7c0.5,1.3,1,2.4,1.4,3.6
	c0.6,1.4,1.1,2.7,1.6,3.9c0.5,1.2,0.9,2.3,1.3,3.3c0.7,1.7,1.3,3.1,1.8,4.3c1,2.5,1.6,3.9,1.6,3.9c14.1,2.9,27.3,0.5,38.3-3.5
	c2-0.8,4-1.5,5.9-2.4c15-6.7,24.6-15.7,24.6-15.7c-6.1-25.6-20.7-57.1-38.9-89.6C556.5,373.2,578.5,346.3,579.7,329z M403.8,337.4
	c-0.5,0.4-1.2,0.6-1.9,0.6c-0.2,0-0.3,0-0.5,0c-1,0.2-2,0.4-3,0.6c-0.2,0-0.5,0.1-0.7,0.1c-8.6,1.2-15.9-0.1-21-1.6c0,0,0,0,0,0
	c-0.3,0.1-0.5,0.1-0.8,0.1c-0.8,0-1.6-0.4-2.1-1c-0.6-0.2-1.1-0.4-1.6-0.6c2.2-9.2,5.4-19.6,10-30.7c0.7-1.7,1.5-3.4,2.2-5.1v0
	c0-0.1,0-0.3,0-0.4c0-1.4,0.7-2.7,1.8-3.4c0.1-0.2,0.1-0.3,0.2-0.5c2.7-5.5,5.5-10.6,8.3-15.3c1.4,1.2,2.9,2.6,4.5,4.3
	c3.3,3.3,6.8,7.6,10,12.8c2.3,3.8,4.2,7.5,5.8,11c3.6,8.3,5.1,15.9,5.9,21C417.7,331.7,411.9,335.3,403.8,337.4z"/>
<g>
	<path class="st8" d="M295,363.9c0.7,0.6,1.4,1.1,2.1,1.6c0.7,0.5,1.5,1,2.3,1.4c0.4,0.2,0.8,0.4,1.2,0.6c0.4,0.2,0.8,0.3,1.2,0.5
		c0.4,0.2,0.8,0.3,1.2,0.4c0.4,0.1,0.8,0.3,1.3,0.3l1.3,0.2l1.3,0.1c0.4,0.1,0.9,0,1.3,0c0.4,0,0.9,0,1.3-0.1l1.3-0.2l1.2-0.4
		c0.4-0.1,0.8-0.3,1.2-0.5l1.2-0.6l1-0.5l0,1.1c0,3.9-0.1,7.7-0.2,11.6c-0.1,3.9-0.2,7.7-0.5,11.6c-0.2,3.9-0.5,7.7-0.9,11.6
		c-0.4,3.9-0.9,7.7-1.7,11.5c-0.2,1-0.5,1.9-0.8,2.8l-0.3,0.7c-0.1,0.2-0.3,0.5-0.5,0.7c-0.3,0.3-0.6,0.7-0.9,1.1
		c-0.5,0.7-1,1.7-0.7,2.3c0.3,0.7,1.4,0.8,2.3,0.9c1.8,0.2,3.9-0.1,5.1-1.5c0.6-0.7,0.9-1.6,0.9-2.5c0-0.9-0.1-1.9-0.1-2.9
		c-0.2-3.9-0.5-7.7-0.6-11.6c-0.1-3.9-0.2-7.7-0.1-11.6c0.1-3.9,0.3-7.8,1.1-11.7c0.2-1,0.4-1.9,0.8-2.9c0.4-1,0.8-2,1.7-2.8
		c0.8-0.7,1.5-1.2,2.2-1.9l2.2-1.9c0.7-0.6,1.5-1.3,2.3-1.9c0.8-0.6,1.7-1.2,2.9-1.6c1.1-0.4,2.5-0.3,3.6,0.3l0.6,0.3
		c0.2,0.1,0.4,0.1,0.6,0.2c0.4,0.1,0.8,0.2,1.3,0.3c0.9,0.1,1.8,0.2,2.9,0.3c0.5,0.1,1.1,0.2,1.7,0.5c0.6,0.3,1.1,0.8,1.5,1.3
		c0.2,0.3,0.3,0.6,0.4,0.8l0.1,0.4l0.1,0.2l0,0.1c0-0.1,0,0.1,0,0.1l0,0c0,0.2,0.1,0.5,0.1,0.7c0,0.3,0,0.7,0,1
		c-0.1,1.2-0.6,2.2-1.1,3.1c-0.5,0.9-1.1,1.7-1.5,2.5c-0.2,0.4-0.4,0.8-0.4,0.9c0,0.1,0,0.1,0,0.1l0,0l0.1,0.1l0.1,0.2l0.2,0.3
		c0.3,0.5,0.5,0.9,0.7,1.3c0.1,0.2,0.2,0.4,0.3,0.4c0,0,0,0-0.1,0c-0.1,0-0.2,0-0.2,0c0,0,0.1,0,0.2-0.2l0.1,0l0,0
		c-0.2,0.2,0,0-0.1,0.1l0.1-0.1c0-0.1,0,0,0-0.1c0.2-0.4,0.3-0.8,0.4-1.2c1.1-3.6,1.9-7.5,3.1-11.2c0.6-1.9,1.3-3.7,2.4-5.4
		c0.3-0.4,0.6-0.9,1-1.2c0.4-0.4,0.9-0.7,1.5-0.8c0.2,0,0.3,0,0.5,0l0.1,0c0,0,0.1,0,0.1,0l0,0l0.2,0c0.2,0.1,0.5,0.1,0.7,0.2
		l0.8,0.3c0.2,0.1,0.5,0.2,0.7,0.4c1.7,1,3.1,2.5,4.6,3.7c0.7,0.6,1.5,1.1,2.4,1.3c0.9,0.2,1.8,0,2.7-0.5l0.1,0.2
		c-0.8,0.6-1.8,0.9-2.8,0.7c-1-0.2-1.9-0.7-2.7-1.2c-1.6-1.1-3-2.5-4.7-3.3c-0.2-0.1-0.4-0.2-0.6-0.3l-0.6-0.2
		c-0.2-0.1-0.5-0.1-0.7-0.1l-0.2,0l0,0c0,0,0.1,0,0,0l-0.1,0c-0.1,0-0.2,0-0.2,0c-0.6,0.1-1.2,0.9-1.7,1.7c-0.9,1.6-1.5,3.4-2,5.2
		c-1.1,3.7-1.8,7.4-2.8,11.2c-0.1,0.5-0.3,1-0.5,1.5c-0.1,0.1-0.2,0.4-0.3,0.5l-0.1,0.1c0,0.1,0.1-0.1-0.1,0.1l0,0l-0.1,0.1
		c-0.2,0.2-0.5,0.4-1,0.6c-0.1,0-0.3,0.1-0.4,0.1c-0.2,0-0.3,0-0.5-0.1c-0.3-0.1-0.5-0.3-0.7-0.4c-0.3-0.3-0.4-0.5-0.6-0.8
		c-0.3-0.5-0.5-0.9-0.7-1.2l-0.2-0.3l-0.1-0.1c0,0,0-0.1,0-0.1l-0.1-0.2c-0.3-0.4-0.3-0.9-0.3-1.3c0.1-0.8,0.4-1.3,0.6-1.8
		c0.5-0.9,1.1-1.7,1.5-2.5c0.4-0.8,0.7-1.6,0.8-2.3c0-0.2,0-0.3,0-0.5c0-0.2-0.1-0.5-0.1-0.7l-0.2-0.5c-0.1-0.2-0.2-0.3-0.2-0.5
		c-0.6-1-2.6-1-4.6-1.3c-0.5-0.1-1-0.2-1.6-0.3c-0.3-0.1-0.6-0.2-0.8-0.3l-0.7-0.3c-0.7-0.3-1.4-0.4-2.1-0.2c-1.5,0.4-2.9,1.8-4.4,3
		l-2.2,1.9c-0.7,0.6-1.6,1.3-2.3,1.8c-0.5,0.4-0.9,1.2-1.2,2.1c-0.3,0.8-0.6,1.7-0.8,2.6c-0.8,3.7-1.1,7.5-1.3,11.4
		c-0.2,3.8-0.3,7.7-0.3,11.5c0,3.9,0,7.7,0.2,11.6c0,1,0.1,1.9,0.1,2.9c-0.1,1-0.4,2.1-1.1,2.9c-0.7,0.8-1.7,1.3-2.6,1.5
		c-1,0.3-2,0.3-3,0.2c-0.5-0.1-1-0.1-1.5-0.3c-0.5-0.1-1.1-0.5-1.3-1c-0.3-0.6-0.2-1.2,0-1.7c0.2-0.5,0.4-0.9,0.7-1.4
		c0.3-0.4,0.6-0.8,0.9-1.2c0.1-0.2,0.2-0.3,0.3-0.5l0.3-0.6c0.3-0.9,0.5-1.8,0.7-2.7c0.7-3.8,0.9-7.6,1.2-11.5l0.6-11.5l0.5-11.6
		l0.5-11.6l1,0.6l-1.3,0.6c-0.4,0.2-0.9,0.4-1.3,0.5l-1.4,0.4l-1.4,0.2c-0.5,0.1-0.9,0.1-1.4,0.1c-0.5,0-0.9,0-1.4,0l-1.4-0.2
		l-1.3-0.3c-0.5-0.1-0.9-0.3-1.3-0.4c-0.4-0.1-0.9-0.3-1.3-0.5c-0.4-0.2-0.8-0.4-1.2-0.6c-0.4-0.2-0.8-0.4-1.2-0.7
		c-0.8-0.5-1.5-1-2.2-1.5c-0.7-0.6-1.4-1.2-2-1.8L295,363.9z"/>
</g>
<g>
	<g>
		<path class="st8" d="M371.3,310.2c3.2-13.4,9.5-25.6,18.6-36.1c0.8-1-0.8-4.1,0-5c-9.1,10.4-15.4,22.6-18.6,36.1
			C371,306.7,371.7,308.6,371.3,310.2L371.3,310.2z"/>
	</g>
</g>
<g>
	<g>
		<path class="st8" d="M398.3,233.1c22,20,39.2,44.8,50.3,72.4c-0.6-1.4,0.6-3.6,0-5c-11.1-27.6-28.3-52.3-50.3-72.4
			C399.1,228.9,397.5,232.4,398.3,233.1L398.3,233.1z"/>
	</g>
</g>
<g>
	<g>
		<path class="st8" d="M558.5,302.5c8.4,12.3,12.4,27.2,9.3,42c-0.3,1.6,0.3,3.4,0,5c3.7-17.7,0.9-36.9-9.3-52
			C559.2,298.6,557.7,301.3,558.5,302.5L558.5,302.5z"/>
	</g>
</g>
<g>
	<g>
		<path class="st8" d="M272.2,482c9.4,10,20.9,17.5,33.8,22.1c0.9,0.3,3.5-1,2.3-1.4c-12.8-4.6-24.1-12-33.4-21.8
			C274.2,480.1,271.5,481.2,272.2,482L272.2,482z"/>
	</g>
</g>
<g>
	<g>
		<path class="st8" d="M316.1,568c1.5,0.4,3,0.4,4.4-0.3c1.1-0.5,2-1.5,2.1-2.7c0.1-1.4-2.9-0.9-2.9,0.3c-0.1,1.1-0.9,1.1-1.8,0.9
			c-0.7-0.2-1.6,0-2,0.5C315.4,567.2,315.5,567.9,316.1,568L316.1,568z"/>
	</g>
</g>
<g>
	<g>
		<path class="st8" d="M495.9,332.6c-0.4-1.5,0-3.7,1.6-4.5c0.3-0.2,0.9-0.4,0.4-0.7c-0.5-0.2-1.6,0.2-2,0.4c-2.1,1-3.5,3.2-2.9,5.6
			C493.1,334,496,333.2,495.9,332.6L495.9,332.6z"/>
	</g>
</g>
<g>
	<g>
		<path class="st8" d="M524,311.1c-3.2,1.2-7.1,2.3-9.8,4.5c-3,2.5-3.2,6.4-3.2,10c0,0.4,2.9,0,2.9-0.8c0-3.4,0.1-7.4,3.1-9.6
			c2.4-1.8,5.8-2.7,8.6-3.8C527.4,310.7,524.7,310.8,524,311.1L524,311.1z"/>
	</g>
</g>
<g>
	<g>
		<path class="st8" d="M512.2,370.5c-0.5,1-1.3,2-2.3,2.5c-0.4,0.2-1.2,0.7-0.8,1.2c0.4,0.5,1.5,0.3,1.9,0.1c1.8-0.9,3.2-2.3,4-4.1
			c0.3-0.6-0.9-0.7-1.3-0.7C513.2,369.6,512.5,369.9,512.2,370.5L512.2,370.5z"/>
	</g>
</g>
</svg>
