<?xml version="1.0" encoding="utf-8"?>
<!-- Generator: Adobe Illustrator 19.2.1, SVG Export Plug-In . SVG Version: 6.00 Build 0)  -->
<svg version="1.1" id="Layer_1" xmlns="http://www.w3.org/2000/svg" xmlns:xlink="http://www.w3.org/1999/xlink" x="0px" y="0px"
	 viewBox="0 0 841.9 595.3" style="enable-background:new 0 0 841.9 595.3;" xml:space="preserve">
<style type="text/css">
	.st0{fill:#0B032C;stroke:#0B032C;stroke-miterlimit:10;}
	.st1{fill:#FFFFFF;stroke:#000000;stroke-miterlimit:10;}
	.st2{fill:url(#SVGID_1_);stroke:#FFFFFF;stroke-width:2;stroke-miterlimit:10;}
	.st3{fill:url(#SVGID_2_);stroke:#FFFFFF;stroke-width:2;stroke-miterlimit:10;}
	.st4{fill:url(#SVGID_3_);stroke:#FFFFFF;stroke-width:2;stroke-miterlimit:10;}
	.st5{fill:url(#SVGID_4_);stroke:#FFFFFF;stroke-width:2;stroke-miterlimit:10;}
	.st6{fill:#0B032C;}
	.st7{fill:#FFFFFF;stroke:#FFFFFF;stroke-miterlimit:10;}
	.st8{fill:none;stroke:#FFFFFF;stroke-miterlimit:10;}
	.st9{fill:#FFFFFF;}
</style>
<rect y="0" class="st0" width="841.9" height="595.3"/>
<g>
	<ellipse transform="matrix(0.641 -0.7676 0.7676 0.641 155.7807 494.9886)" class="st1" cx="607" cy="81" rx="10.2" ry="20.4"/>
	<ellipse transform="matrix(0.641 -0.7676 0.7676 0.641 167.5004 517.8012)" class="st1" cx="637.3" cy="79.8" rx="5.1" ry="10.2"/>
	<ellipse transform="matrix(0.641 -0.7676 0.7676 0.641 174.7286 482.2108)" class="st1" cx="602.8" cy="54.3" rx="4" ry="8"/>
	<radialGradient id="SVGID_1_" cx="348.9982" cy="26.0019" r="297.2575" gradientUnits="userSpaceOnUse">
		<stop  offset="0" style="stop-color:#00A14B"/>
		<stop  offset="1" style="stop-color:#0C003B"/>
	</radialGradient>
	<path class="st2" d="M611.8,185.4c-5.6-2.9-11-5.5-16.2-7.8c-69.4-31.4-97.4-16.1-106.3-9.6c-7.6,5.5-12.7,12.6-16.1,23.3
		c-8.4,25.6-7.3,71.4-8.5,162.1c-0.9,61.4-2.4,110.5-3.3,139.3c-8.2,10.1-18.6,17.3-29.7,21.3c-0.6,0.2-1.3,0.4-1.9,0.6
		c-11.4,3.6-23.4,3.8-34.4,0.1c-21-7.1-30.5-25.6-32.7-30c0.5-2.2,1.1-4.5,1.6-6.8c7.3-30.8,16.8-75,25-128.5
		c8.6-55.9,11.1-92,10.7-115.4c-0.6-35.4-8-41.9-11.5-44.4c-32.7-23.4-107.1,29-124.3,41.4c0,0,0,0,0,0.1c-0.6,2.8-1.3,6.6-1.9,11.2
		c-0.3,2.1-0.5,4.3-0.7,6.7c-1.4,15.6-0.2,28,0.9,38.8c0.5,4.9,1.3,11.8,2.8,20.1c-0.7,2.9-2.4,8.1-6.7,10.2
		c-6.8,3.3-17.5-2.1-22.4-8.8c-8.9-12,1.6-27.7,6.5-48.1c0.5-2.3,1-4.6,1.4-7c1-6.5,1.2-13.6,0-21.1c-2.6-15.5-10.5-27.1-16.4-34.2
		c-0.4-11.9-0.8-23.8-1.2-35.6c-0.1-1.9-0.1-3.8-0.2-5.8c-0.1-3.8-0.3-7.5-0.4-11.3c8.2-5.4,16.1-10.4,23.8-14.9
		c7.6,7.5,25.8,12.7,31.1,12.1c7.6-0.9-1-10-1-10s2.6-13.4,13.3-11.9c10.7,1.5,15.8,36,15.8,36c17.3,15.4,15.3-3.9,15.3-3.9
		c-38.2-49,41.8-72.6,41.8-72.6c-0.2-0.1-0.4-0.2-0.6-0.3c67.9-20.3,119.9-20.8,133-20.8c33.1,0,60.6,3.8,80.1,7.5
		c-1,34.3,49.5,41.4,49.5,41.4C638,127.9,611.8,185.4,611.8,185.4z"/>
	<radialGradient id="SVGID_2_" cx="368.9982" cy="170.002" r="269.416" gradientUnits="userSpaceOnUse">
		<stop  offset="0" style="stop-color:#00A14B"/>
		<stop  offset="1" style="stop-color:#0C003B"/>
	</radialGradient>
	<path class="st3" d="M244.1,254c-0.4,2.4-0.8,4.8-1.4,7c-3.8,0.2-8.9-0.2-14.2-2.5c-17.3-7.5-20.6-28-20.8-29.8
		c-0.6-17.5-1.2-35.1-1.7-52.6c7-4.7,13.9-9,20.6-13c0.4,11.9,0.8,23.7,1.2,35.6c6,7.1,13.9,18.8,16.4,34.2
		C245.4,240.4,245.1,247.4,244.1,254z"/>
	<radialGradient id="SVGID_3_" cx="368.9982" cy="170.002" r="269.416" gradientUnits="userSpaceOnUse">
		<stop  offset="0" style="stop-color:#00A14B"/>
		<stop  offset="1" style="stop-color:#0C003B"/>
	</radialGradient>
	<path class="st4" d="M429.7,514.6c-17,19.6-42.6,27.4-64.4,20.1c-21-7.1-30.5-25.6-32.7-30c7.5-31,17.8-77.7,26.7-135.3
		c21.6-140.5,5.1-155.7-0.8-159.9c-22.4-16-64.5,3.6-94.3,21.5c0,0,0,0,0-0.1c17.1-12.4,91.5-64.8,124.3-41.4
		c3.5,2.5,10.9,9,11.5,44.4c0.4,23.4-2.2,59.5-10.7,115.4c-8.2,53.5-17.7,97.7-25,128.5c-0.6,2.4-1.1,4.6-1.6,6.8
		c2.1,4.4,11.7,22.9,32.7,30C406.4,518.4,418.4,518.2,429.7,514.6z"/>
	<radialGradient id="SVGID_4_" cx="368.9982" cy="170.002" r="269.416" gradientUnits="userSpaceOnUse">
		<stop  offset="0" style="stop-color:#00A14B"/>
		<stop  offset="1" style="stop-color:#0C003B"/>
	</radialGradient>
	<path class="st5" d="M595.6,177.6c-5.5,19.4-13.8,37.8-13.8,37.8c-58.5-29.9-91.2-29.4-108.6-24.2c3.5-10.6,8.6-17.8,16.1-23.3
		C498.3,161.6,526.2,146.2,595.6,177.6z"/>
	<path class="st6" d="M324.3,153.4c0,0,2,19.4-15.3,3.9c0,0-5.1-34.6-15.8-36c-10.7-1.5-13.3,11.9-13.3,11.9s8.5,9.1,1,10
		c-5.3,0.6-23.5-4.6-31.1-12.1c-3.2-3.1-4.5-6.6-2.3-10.2c0,0,48.1-71,118-40.4c0.2,0.1,0.4,0.2,0.6,0.3
		C366.1,80.9,286.1,104.4,324.3,153.4z"/>
</g>
<line class="st7" x1="227" y1="168.3" x2="205.5" y2="181.8"/>
<line class="st8" x1="226.8" y1="174.8" x2="206.5" y2="187"/>
<line class="st8" x1="227.3" y1="182.5" x2="206.5" y2="194.3"/>
<line class="st8" x1="207" y1="200.5" x2="227.8" y2="189.5"/>
<line class="st8" x1="207" y1="207.8" x2="227.3" y2="197.8"/>
<line class="st8" x1="207.3" y1="215.5" x2="231.5" y2="203.5"/>
<line class="st8" x1="207.5" y1="222" x2="235" y2="208"/>
<line class="st8" x1="207" y1="229.8" x2="238.3" y2="213.8"/>
<line class="st8" x1="208.5" y1="235.8" x2="241" y2="220.5"/>
<line class="st8" x1="211.3" y1="242.3" x2="243" y2="227.3"/>
<line class="st8" x1="215.3" y1="247.5" x2="245" y2="232.8"/>
<line class="st8" x1="219.8" y1="253" x2="244.8" y2="239.8"/>
<line class="st8" x1="226.3" y1="256.8" x2="245" y2="247.3"/>
<line class="st8" x1="234" y1="259.8" x2="243.8" y2="254.5"/>
<line class="st8" x1="476.3" y1="182" x2="481.3" y2="188.8"/>
<line class="st8" x1="479.8" y1="176.8" x2="487" y2="188.3"/>
<line class="st8" x1="484.3" y1="171.3" x2="495" y2="189"/>
<line class="st8" x1="490.8" y1="166.8" x2="501.8" y2="189"/>
<line class="st8" x1="497.8" y1="162.3" x2="508.5" y2="189.5"/>
<line class="st8" x1="505.5" y1="160" x2="514.8" y2="190.8"/>
<line class="st8" x1="513.5" y1="159.5" x2="521.5" y2="192.3"/>
<line class="st8" x1="528.5" y1="158.8" x2="535.3" y2="196.3"/>
<line class="st8" x1="521.5" y1="158.5" x2="528" y2="194"/>
<line class="st8" x1="534.8" y1="158.8" x2="542" y2="198.3"/>
<line class="st8" x1="544" y1="160.5" x2="549.8" y2="201.3"/>
<line class="st8" x1="552.3" y1="162" x2="556.3" y2="203.5"/>
<line class="st8" x1="559.3" y1="164" x2="562.3" y2="206.3"/>
<line class="st8" x1="566.5" y1="166" x2="569" y2="209"/>
<line class="st8" x1="573" y1="168" x2="574" y2="210.8"/>
<line class="st8" x1="579.8" y1="170.8" x2="579" y2="213.8"/>
<line class="st8" x1="585.8" y1="172.8" x2="584" y2="209.3"/>
<line class="st8" x1="590" y1="174.5" x2="590" y2="193.5"/>
<circle class="st8" cx="378.6" cy="200.6" r="13.8"/>
<circle class="st8" cx="363" cy="207.3" r="3.3"/>
<circle class="st8" cx="373.5" cy="221.3" r="6.7"/>
<circle class="st8" cx="346.7" cy="196" r="8"/>
<circle class="st8" cx="307.8" cy="206.4" r="3.3"/>
<circle class="st8" cx="314.5" cy="203.7" r="3.3"/>
<circle class="st8" cx="322.3" cy="201.1" r="4.6"/>
<circle class="st8" cx="332.5" cy="198.3" r="6"/>
<circle class="st8" cx="300.9" cy="209.6" r="1.9"/>
<ellipse transform="matrix(0.7071 -0.7071 0.7071 0.7071 -28.6647 310.7974)" class="st8" cx="360.8" cy="190" rx="6" ry="6"/>
<circle class="st8" cx="358.7" cy="200.5" r="3.5"/>
<circle class="st8" cx="390.9" cy="219" r="7.6"/>
<circle class="st8" cx="384.2" cy="238.9" r="12.8"/>
<circle class="st8" cx="394" cy="255.6" r="5.3"/>
<circle class="st8" cx="377.3" cy="256.9" r="6.7"/>
<circle class="st8" cx="396.8" cy="228.5" r="2.5"/>
<circle class="st8" cx="386.4" cy="255.9" r="2.1"/>
<circle class="st8" cx="378.3" cy="272.1" r="8"/>
<circle class="st8" cx="387.3" cy="263.4" r="4.5"/>
<circle class="st8" cx="382.6" cy="293.3" r="12.9"/>
<circle class="st8" cx="392.6" cy="276.3" r="6.3"/>
<circle class="st8" cx="395.2" cy="265.2" r="2.7"/>
<circle class="st8" cx="374.7" cy="313.6" r="7.6"/>
<circle class="st8" cx="389.1" cy="310.1" r="4.4"/>
<circle class="st8" cx="386.4" cy="320.8" r="5.4"/>
<circle class="st8" cx="382.8" cy="334.4" r="8.2"/>
<circle class="st8" cx="371.4" cy="326.6" r="5.1"/>
<circle class="st8" cx="369.4" cy="337.1" r="4.6"/>
<circle class="st8" cx="373.2" cy="351.9" r="9.9"/>
<circle class="st8" cx="385.8" cy="346.1" r="3.4"/>
<circle class="st8" cx="377.4" cy="370.8" r="8.4"/>
<circle class="st8" cx="384.1" cy="360.6" r="2.6"/>
<circle class="st8" cx="365.3" cy="364.8" r="4.4"/>
<circle class="st8" cx="364.2" cy="372.6" r="2.7"/>
<circle class="st8" cx="370.7" cy="392.8" r="11.6"/>
<circle class="st8" cx="362.1" cy="379.4" r="3.2"/>
<circle class="st8" cx="359.6" cy="407" r="6.1"/>
<circle class="st8" cx="369.9" cy="415.8" r="7.3"/>
<circle class="st8" cx="357.8" cy="418.5" r="5.4"/>
<circle class="st8" cx="360.4" cy="437.3" r="11.4"/>
<circle class="st8" cx="370.8" cy="426.4" r="2.9"/>
<circle class="st8" cx="360" cy="457.8" r="8.5"/>
<ellipse transform="matrix(0.7071 -0.7071 0.7071 0.7071 -214.9587 378.4188)" class="st8" cx="349.3" cy="448.7" rx="4.4" ry="4.4"/>
<circle class="st8" cx="347.4" cy="457.9" r="3.7"/>
<circle class="st8" cx="351.9" cy="502.3" r="18"/>
<circle class="st8" cx="346.8" cy="467.3" r="4.9"/>
<circle class="st8" cx="358.1" cy="472.6" r="6.7"/>
<circle class="st8" cx="346.1" cy="478.5" r="6.3"/>
<ellipse transform="matrix(0.9806 -0.1961 0.1961 0.9806 -87.6443 79.3784)" class="st8" cx="357" cy="482.3" rx="2" ry="2"/>
<circle class="st8" cx="376.1" cy="513.4" r="8.5"/>
<circle class="st8" cx="362.9" cy="525.4" r="7.7"/>
<circle class="st8" cx="393.7" cy="525.4" r="10.7"/>
<circle class="st8" cx="412.6" cy="523.2" r="4.9"/>
<circle class="st8" cx="422.1" cy="519.6" r="2.5"/>
<circle class="st8" cx="376.9" cy="529.2" r="5.8"/>
<g>
	<path class="st9" d="M241.8,302.3c0.7,2,1.6,4,2.7,5.8c0.3,0.4,0.6,0.9,0.9,1.3c0.3,0.4,0.7,0.8,1,1.2c0.4,0.4,0.8,0.7,1.2,1
		c0.4,0.3,0.9,0.5,1.3,0.7c0.2,0.1,0.5,0.2,0.7,0.2c0.2,0,0.5,0.1,0.7,0.1c0.2,0,0.5,0,0.7-0.1c0.2,0,0.5-0.1,0.7-0.2
		c0.2-0.1,0.5-0.2,0.7-0.3c0.2-0.1,0.4-0.2,0.6-0.4c0.4-0.3,0.8-0.6,1.2-0.9c0.4-0.3,0.7-0.7,1.1-1.1c0.3-0.4,0.7-0.8,1-1.2
		c0.3-0.4,0.6-0.9,0.9-1.3l0.8-1.4l-0.1,0.5c-1-3.6-1.8-7.2-2.6-10.8c-0.7-3.6-1.4-7.3-1.7-11c-0.1-0.9-0.1-1.9-0.2-2.8
		c0-0.9-0.1-1.9-0.1-2.8c0-0.9,0-1.9,0-2.8c0-0.9,0.1-1.9,0.2-2.8c0.1-0.9,0.2-1.9,0.4-2.8c0.2-0.9,0.4-1.8,0.6-2.7
		c0.1-0.4,0.2-0.9,0.4-1.3l0.5-1.3l0.6-1.3l0.7-1.2l0.2,0.1l-0.5,1.3l-0.4,1.3c-0.2,0.9-0.4,1.8-0.5,2.7c-0.1,0.9-0.2,1.8-0.3,2.7
		c-0.1,0.9-0.1,1.8-0.1,2.7c0,0.9,0,1.8,0,2.7c0,0.9,0,1.8,0.1,2.7c0.1,1.8,0.2,3.6,0.4,5.4c0.3,3.6,0.7,7.2,1.3,10.9
		c0.6,3.6,1.3,7.2,2.1,10.7l0.1,0.3l-0.1,0.2l-0.9,1.4c-0.3,0.5-0.7,0.9-1,1.3c-0.3,0.4-0.7,0.8-1.1,1.3c-0.4,0.4-0.8,0.8-1.2,1.2
		c-0.4,0.4-0.9,0.7-1.4,1c-0.2,0.2-0.5,0.3-0.8,0.4c-0.3,0.1-0.5,0.2-0.8,0.3c-0.3,0.1-0.6,0.2-0.9,0.2c-0.3,0-0.6,0.1-0.9,0
		c-0.3,0-0.6,0-0.9-0.1c-0.3,0-0.6-0.2-0.8-0.3c-0.5-0.2-1-0.5-1.5-0.9c-0.4-0.3-0.8-0.7-1.2-1.1c-0.4-0.4-0.7-0.8-1-1.3
		c-0.3-0.5-0.6-0.9-0.9-1.4c-1.1-1.9-1.9-3.9-2.5-6L241.8,302.3z"/>
</g>
<g>
	<path class="st9" d="M303.2,152c0,0,0.4,1.9,1.3,4.7c0.5,1.4,1.2,3,2,4.6c0.9,1.6,2,3.2,3.4,4.5c0.7,0.7,1.5,1.2,2.3,1.6
		c0.8,0.5,1.7,0.7,2.5,0.9c0.4,0.1,0.8,0.1,1.3,0.2c0.4,0,0.8,0,1.2,0c0.4,0,0.8,0,1.2-0.1c0.4-0.1,0.7-0.1,1.1-0.2
		c0.7-0.2,1.3-0.3,1.9-0.5c0.6-0.2,1.1-0.4,1.4-0.5c0.8-0.3,1.2-0.5,1.2-0.5l0.1,0.1c0,0-0.4,0.3-1.1,0.7c-0.4,0.3-0.8,0.5-1.4,0.7
		c-0.5,0.3-1.2,0.5-1.9,0.8c-0.4,0.1-0.8,0.2-1.2,0.3c-0.4,0.1-0.8,0.1-1.3,0.2c-0.4,0.1-0.9,0-1.4,0c-0.5,0-0.9-0.1-1.4-0.2
		c-0.9-0.2-1.9-0.6-2.8-1.1c-0.9-0.5-1.7-1.2-2.4-1.9c-1.4-1.4-2.5-3.1-3.4-4.8c-0.8-1.7-1.4-3.3-1.9-4.7
		C303.4,154,303.1,152,303.2,152L303.2,152z"/>
</g>
<g>
	<path class="st9" d="M300.4,163.8c0,0,4.5,3.7,9.4,6.8c0.6,0.4,1.2,0.8,1.8,1.1c0.6,0.4,1.2,0.7,1.8,1.1c0.6,0.4,1.1,0.7,1.7,1
		c0.5,0.3,1,0.6,1.5,0.8c0.5,0.3,0.9,0.5,1.3,0.7c0.4,0.2,0.7,0.4,1,0.4c0.6,0.2,0.9,0.3,0.9,0.3l0,0.1c0,0-0.4,0-1-0.1
		c-0.3,0-0.7-0.1-1.1-0.2c-0.4-0.1-0.9-0.3-1.4-0.5c-0.5-0.2-1.1-0.4-1.6-0.7c-0.6-0.3-1.2-0.6-1.7-0.9c-0.6-0.4-1.2-0.8-1.8-1.2
		c-0.6-0.4-1.2-0.8-1.8-1.3c-2.4-1.7-4.6-3.6-6.3-5C301.4,164.9,300.3,163.9,300.4,163.8L300.4,163.8z"/>
</g>
<g>
	<path class="st9" d="M431.1,131c1.7,13.4,3,26.8,4,40.3c0.4,6.7,0.8,13.5,0.8,20.3c0,3.4-0.1,6.8-0.4,10.2
		c-0.2,1.7-0.4,3.4-0.7,5.1c-0.4,1.7-0.8,3.4-2.1,4.9l0.1-0.7c0.2,0.4,0.4,0.7,0.6,1.1c0.2,0.4,0.5,0.7,0.8,1.1
		c0.5,0.7,1.2,1.3,1.8,1.8c0.7,0.5,1.4,0.9,2.2,1.2c0.4,0.1,0.8,0.2,1.2,0.3c0.4,0.1,0.8,0.1,1.2,0.1c0.4,0,0.8,0,1.3-0.1
		c0.4-0.1,0.8-0.2,1.2-0.3c0.4-0.1,0.8-0.3,1.2-0.5c0.4-0.2,0.8-0.4,1.1-0.6c0.7-0.5,1.5-1,2.1-1.5c0.7-0.6,1.3-1.2,2-1.8l-0.2,0.6
		c-1.2-8-2-16-2.5-24.1c-0.5-8-0.7-16.1-0.1-24.2c0.3-4,0.8-8.1,1.8-12.1c0.5-2,1.1-4,1.9-5.9c0.8-1.9,1.8-3.8,3.2-5.4
		c0.7-0.8,1.5-1.6,2.4-2.2c0.9-0.6,2-1.1,3-1.4c1.1-0.3,2.2-0.4,3.3-0.3c1,0,2.1,0.1,3.1,0.3c1,0.2,2.1,0.5,3.2,1
		c0.5,0.3,1,0.7,1.5,1.2c0.2,0.3,0.4,0.6,0.4,1c0,0.4,0.1,0.7,0.1,1.1c-0.1,0.7-0.3,1.1-0.4,1.6c-0.1,0.5-0.2,0.9-0.3,1.4
		c-0.1,0.5-0.1,0.9-0.2,1.4c0,0.2,0,0.4,0,0.7c0,0.1,0,0.2,0,0.3c0,0.1,0.1,0.2,0,0.2l-1.4-0.2c0.9-1.1,1.9-2.1,2.9-3
		c1-1,2.1-1.9,3.3-2.7c0.6-0.4,1.2-0.8,1.9-1.1c0.7-0.3,1.5-0.5,2.3-0.5c0.7,0,1.4,0.2,2.1,0.3l2,0.3c2.7,0.4,5.4,0.8,8,0.5
		c1.3-0.2,2.6-0.5,3.4-1.4c0.4-0.4,0.7-0.9,0.9-1.5c0.2-0.6,0.2-1.2,0.2-1.9l0-0.3l0.2-0.1c0.5-0.2,1-0.3,1.6-0.4
		c0.5-0.1,1.1-0.2,1.6-0.2c0.3,0,0.5,0,0.8,0c0.3,0,0.5,0,0.8,0.1c0.3,0,0.5,0.1,0.8,0.1c0.3,0,0.5,0.1,0.8,0.2
		c0.3,0.1,0.5,0.2,0.8,0.3c0.2,0.1,0.5,0.2,0.7,0.4l0.7,0.5c0.2,0.1,0.4,0.4,0.6,0.5c0.2,0.2,0.4,0.4,0.6,0.6l0.5,0.6
		c0.2,0.2,0.3,0.4,0.4,0.7l0.4,0.7l-0.2,0.1l-0.4-0.6c-0.1-0.2-0.3-0.4-0.4-0.6l-0.5-0.6c-0.2-0.2-0.4-0.4-0.6-0.5
		c-0.2-0.2-0.4-0.4-0.6-0.5l-0.6-0.4c-0.2-0.1-0.5-0.2-0.7-0.3c-0.2-0.1-0.5-0.2-0.7-0.2c-0.2-0.1-0.5-0.1-0.7-0.2
		c-0.2,0-0.5-0.1-0.7-0.1c-0.3,0-0.5,0-0.8,0c-0.3,0-0.5,0-0.8,0c-0.5,0-1,0.1-1.5,0.2c-0.5,0.1-1,0.3-1.4,0.5l0.2-0.4
		c0,0.7,0.1,1.4-0.1,2.2c-0.2,0.7-0.6,1.4-1.1,2c-0.5,0.6-1.2,1-1.9,1.2c-0.7,0.3-1.4,0.4-2.1,0.6c-1.4,0.2-2.8,0.2-4.2,0.1
		c-1.4-0.1-2.8-0.2-4.1-0.4c-1.3-0.2-2.7-0.4-4-0.5c-0.5,0-1.1,0.1-1.6,0.4c-0.6,0.2-1.1,0.6-1.6,1c-1.1,0.8-2.1,1.6-3,2.6
		c-1,0.9-1.9,1.9-2.7,2.9l-0.9,1.1l-0.5-1.3c-0.1-0.3-0.1-0.4-0.2-0.6c0-0.2,0-0.3-0.1-0.5c0-0.3,0-0.6,0-0.9c0-0.6,0.1-1.1,0.2-1.6
		c0.1-0.5,0.2-1,0.3-1.6c0.1-0.5,0.3-1.1,0.3-1.3c0.1-0.2,0-0.3,0-0.4c0-0.1-0.1-0.2-0.2-0.4c-0.2-0.2-0.5-0.5-0.8-0.7
		c-0.7-0.4-1.6-0.6-2.6-0.8c-0.9-0.2-1.9-0.2-2.9-0.2c-0.9,0-1.8,0.1-2.7,0.3c-0.9,0.2-1.7,0.6-2.4,1.1c-0.7,0.5-1.4,1.1-2,1.8
		c-1.2,1.4-2.1,3.1-2.9,4.9c-0.7,1.8-1.3,3.7-1.8,5.6c-0.9,3.8-1.5,7.8-1.8,11.7c-0.7,7.9-0.6,16-0.2,24c0.2,4,0.5,8,0.9,12
		c0.4,4,0.8,8,1.3,11.9l0.1,0.4l-0.3,0.2c-0.7,0.6-1.4,1.3-2.1,1.9c-0.7,0.6-1.5,1.1-2.3,1.6c-0.4,0.2-0.8,0.5-1.3,0.7
		c-0.4,0.2-0.9,0.4-1.3,0.5c-0.5,0.2-0.9,0.3-1.4,0.4c-0.5,0.1-1,0.1-1.5,0.1c-0.5,0-1,0-1.5-0.1c-0.5-0.1-1-0.2-1.4-0.4
		c-0.9-0.3-1.8-0.8-2.5-1.4c-0.8-0.6-1.4-1.3-2-2c-0.3-0.4-0.6-0.8-0.8-1.2c-0.3-0.4-0.5-0.8-0.7-1.3l-0.2-0.4l0.3-0.3
		c1-1,1.5-2.7,1.8-4.3c0.4-1.6,0.6-3.3,0.8-4.9c0.3-3.3,0.5-6.7,0.5-10.1c0.1-6.7-0.2-13.5-0.5-20.2c-0.7-13.5-1.9-26.9-3.4-40.3
		L431.1,131z"/>
</g>
<g>
	<path class="st9" d="M440,221.7c0.8,0.1,1.6,0.2,2.5,0.1c0.8,0,1.7-0.1,2.5-0.2l1.2-0.2c0.4-0.1,0.8-0.2,1.2-0.3
		c0.4-0.1,0.8-0.3,1.2-0.4c0.4-0.1,0.7-0.3,1.1-0.5c0.4-0.2,0.7-0.4,1.1-0.6c0.3-0.2,0.7-0.4,1-0.7l0.9-0.8c0.3-0.2,0.6-0.6,0.9-0.9
		c0.3-0.3,0.6-0.6,0.8-0.9l0.7-1c0.3-0.3,0.4-0.7,0.6-1.1l0.6-1.1l0,0.3c-0.9-2.3-1.6-4.6-2.3-6.9c-0.7-2.3-1.4-4.7-1.9-7.1
		c-0.5-2.4-0.9-4.8-1-7.3c0-0.6,0-1.2,0-1.8c0-0.6,0.1-1.2,0.2-1.8c0.1-0.6,0.2-1.2,0.4-1.8c0.2-0.6,0.5-1.1,0.9-1.6l0.1,0.1
		c-0.3,0.5-0.5,1.1-0.7,1.7c-0.2,0.6-0.2,1.2-0.3,1.8c0,0.6-0.1,1.2,0,1.8c0,0.6,0.1,1.2,0.1,1.8c0.2,2.4,0.7,4.8,1.2,7.1
		c1,4.7,2.3,9.4,3.9,14l0.1,0.2l-0.1,0.1l-0.6,1.1c-0.2,0.4-0.4,0.7-0.7,1.1l-0.8,1c-0.2,0.4-0.6,0.6-0.8,0.9
		c-0.3,0.3-0.6,0.6-0.9,0.9l-1,0.8c-0.3,0.3-0.7,0.5-1.1,0.7c-0.4,0.2-0.7,0.4-1.1,0.6c-0.4,0.2-0.8,0.4-1.2,0.5
		c-0.4,0.1-0.8,0.3-1.2,0.4c-0.4,0.1-0.8,0.2-1.2,0.3l-1.2,0.2c-0.8,0.1-1.7,0.2-2.5,0.1C441.6,222,440.8,221.9,440,221.7L440,221.7
		z"/>
</g>
<g>
	<path class="st9" d="M474.9,225.8c-0.2-2.4-0.3-4.8-0.4-7.3c-0.1-2.4-0.1-4.9-0.1-7.3c0-1.2,0.1-2.4,0.1-3.6c0-0.6,0.1-1.2,0.1-1.8
		c0.1-0.6,0.1-1.2,0.2-1.8l0.2-1.8l0.3-1.8c0.1-0.6,0.3-1.2,0.5-1.8c0.2-0.6,0.5-1.2,0.7-1.8l0.1-0.3l0.4-0.1c1-0.4,2-0.7,3-0.9
		c1-0.3,2-0.5,3.1-0.7c2.1-0.4,4.2-0.6,6.3-0.6c1.1,0,2.1,0.1,3.2,0.2c0.5,0.1,1.1,0.2,1.6,0.3c0.5,0.1,1.1,0.3,1.6,0.4
		c0.5,0.2,1,0.4,1.5,0.6c0.5,0.2,1,0.5,1.4,0.8c0.5,0.3,0.9,0.6,1.3,1c0.4,0.4,0.7,0.8,1,1.2l-0.1,0.1c-0.4-0.3-0.8-0.6-1.2-0.9
		c-0.4-0.3-0.9-0.5-1.3-0.7c-0.5-0.2-0.9-0.4-1.4-0.5c-0.5-0.1-1-0.3-1.5-0.3c-2-0.4-4-0.4-6-0.3c-2,0.1-4,0.4-6,0.7
		c-1,0.2-2,0.4-3,0.6c-1,0.2-2,0.4-3,0.7l0.5-0.4c-0.2,0.5-0.5,1-0.7,1.5c-0.2,0.6-0.4,1.1-0.5,1.7l-0.4,1.7l-0.3,1.8
		c-0.1,0.6-0.2,1.2-0.2,1.8c-0.1,0.6-0.1,1.2-0.2,1.8c-0.1,1.2-0.2,2.4-0.3,3.6c-0.3,4.8-0.4,9.6-0.3,14.5L474.9,225.8z"/>
</g>
<g>
	<path class="st9" d="M480.6,219.3c-0.2-3-0.3-5.9-0.3-8.9c0-1.5,0-3,0.1-4.5c0.1-1.5,0.2-3,0.6-4.5l0-0.2l0.2-0.1
		c0.8-0.4,1.5-0.7,2.3-1c0.4-0.1,0.8-0.2,1.2-0.3c0.4,0,0.8-0.1,1.3-0.1c0.2,0,0.4,0,0.6,0.1c0.2,0,0.4,0.1,0.6,0.1
		c0.2,0.1,0.4,0.1,0.6,0.2c0.2,0.1,0.4,0.2,0.6,0.3l0.5,0.4c0.2,0.1,0.3,0.3,0.4,0.5c0.1,0.2,0.3,0.3,0.3,0.5l0.3,0.6l-0.1,0
		l-0.4-0.5c-0.1-0.2-0.3-0.3-0.4-0.4c-0.2-0.1-0.3-0.3-0.5-0.4l-0.5-0.3c-0.2-0.1-0.4-0.1-0.5-0.2c-0.2-0.1-0.4-0.1-0.5-0.1
		c-0.4-0.1-0.7-0.1-1.1-0.1c-0.4,0-0.8,0.1-1.1,0.2c-0.4,0.1-0.7,0.2-1.1,0.3c-0.7,0.2-1.5,0.5-2.1,0.9l0.2-0.3
		c-0.1,0.3-0.2,0.7-0.3,1c-0.1,0.4-0.2,0.7-0.2,1.1c-0.1,0.7-0.2,1.5-0.3,2.2c-0.1,1.5-0.2,2.9-0.3,4.4
		C480.7,213.3,480.7,216.3,480.6,219.3L480.6,219.3z"/>
</g>
<g>
	<path class="st9" d="M383.1,477.9c0,0,0.6,0.9,1.9,2.4c0.6,0.7,1.4,1.6,2.4,2.6c1,0.9,2,2,3.3,3.1c1.3,1.1,2.7,2.1,4.3,3.1
		c1.6,1,3.3,2,5.2,2.7c1.9,0.8,3.9,1.4,6,1.9c1,0.2,2.1,0.4,3.2,0.5c1.1,0.1,2.1,0.1,3.2,0.1c1.1,0,2.1-0.1,3.2-0.2
		c1.1-0.2,2.1-0.3,3.1-0.5c1-0.3,2.1-0.5,3-0.8c1-0.3,2-0.6,2.9-1c1.9-0.7,3.7-1.5,5.4-2.2c1.7-0.8,3.3-1.6,4.7-2.4
		c0.7-0.4,1.4-0.8,2.1-1.1c0.6-0.4,1.2-0.8,1.8-1.1c0.6-0.3,1.1-0.7,1.6-1c0.5-0.3,0.9-0.6,1.3-0.9c1.6-1.1,2.6-1.6,2.6-1.6l0.2,0.2
		c0,0-0.8,0.8-2.1,2.2c-0.4,0.4-0.7,0.7-1.2,1.2c-0.4,0.4-0.9,0.8-1.5,1.3c-0.5,0.5-1.1,0.9-1.7,1.4c-0.6,0.5-1.3,1-2,1.5
		c-0.7,0.5-1.4,1-2.2,1.5c-0.8,0.5-1.6,1-2.5,1.5c-1.7,0.9-3.6,1.9-5.7,2.6c-1,0.4-2.1,0.7-3.2,1c-1.1,0.3-2.2,0.5-3.3,0.7
		c-0.6,0.1-1.1,0.2-1.7,0.2l-1.7,0.2c-1.2,0-2.3,0.1-3.5,0c-1.2-0.1-2.3-0.1-3.4-0.3c-1.1-0.1-2.3-0.4-3.4-0.7
		c-2.2-0.6-4.3-1.3-6.2-2.3c-1.9-0.9-3.7-2-5.3-3.1c-1.6-1.1-3-2.3-4.2-3.5c-1.2-1.1-2.3-2.3-3.2-3.3c-0.9-1-1.6-2-2.2-2.8
		c-1.2-1.6-1.7-2.6-1.7-2.6L383.1,477.9z"/>
</g>
<g>
	<path class="st9" d="M400.6,481.9c0,0,1.7,0.9,4.3,1.9c2.6,1,6.3,2.1,9.9,2.1c0.9,0,1.8,0,2.7-0.2c0.9-0.1,1.7-0.3,2.5-0.5
		c0.8-0.2,1.5-0.5,2.3-0.7c0.4-0.1,0.7-0.3,1-0.5c0.3-0.1,0.6-0.3,0.9-0.5c0.6-0.3,1.1-0.7,1.6-1c0.5-0.3,0.8-0.6,1.2-0.9
		c0.6-0.5,1-0.8,1-0.8l0.2,0.1c0,0-0.2,0.4-0.6,1.2c-0.2,0.4-0.5,0.8-0.9,1.3c-0.4,0.4-0.9,1-1.5,1.4c-0.6,0.5-1.3,1-2,1.4
		c-0.4,0.2-0.8,0.4-1.2,0.6c-0.4,0.2-0.9,0.3-1.3,0.4c-0.9,0.3-1.9,0.4-2.9,0.4c-1,0-2,0-3-0.1c-1-0.1-1.9-0.3-2.9-0.5
		c-0.9-0.2-1.8-0.5-2.7-0.7c-1.7-0.6-3.3-1.2-4.5-1.9c-2.6-1.3-4.1-2.4-4.1-2.4L400.6,481.9z"/>
</g>
<g>
	<path class="st9" d="M454,277c0,0,0.5,10.2,1.2,25.6c0.3,7.7,0.7,16.6,1,26.2c0.3,9.6,0.5,19.8,0.7,30.1
		c0.2,10.2,0.3,20.5,0.2,30.1c-0.1,4.8-0.2,9.4-0.5,13.8c-0.2,4.4-0.5,8.6-0.8,12.4c-0.3,3.8-0.8,7.3-1.2,10.5
		c-0.4,3.1-0.9,5.8-1.5,8c-0.6,2.2-1.1,3.9-1.7,5c-0.1,0.3-0.3,0.5-0.4,0.7c-0.1,0.2-0.2,0.4-0.4,0.5c-0.2,0.2-0.3,0.4-0.3,0.4
		l-0.2-0.2c0,0,0.1-0.1,0.3-0.4c0.1-0.1,0.2-0.3,0.3-0.5c0.1-0.2,0.2-0.4,0.3-0.7c0.4-1.1,0.8-2.8,1.2-5c0.3-2.2,0.6-4.9,0.8-8
		c0.2-3.1,0.4-6.6,0.5-10.4c0.1-3.8,0.2-8,0.3-12.3c0.1-4.4,0.2-9,0.2-13.8c0.2-9.6,0.4-19.8,0.5-30c0.1-10.2,0-20.5,0-30
		c-0.1-9.6-0.2-18.5-0.3-26.2c-0.2-15.3-0.4-25.6-0.4-25.6L454,277z"/>
</g>
<path class="st7" d="M306.6,115.3c0,0,2.3-14.5,6.8-14.5c0,0,3.6-11.1-7.5-6.9S306.6,115.3,306.6,115.3z"/>
<g>
	<path class="st9" d="M258.2,128.9c0,0,1,0.8,2.7,1.8c0.8,0.5,1.8,1.1,2.8,1.7c1,0.6,2.2,1.2,3.3,1.7c0.6,0.3,1.2,0.5,1.7,0.7
		c0.6,0.2,1.2,0.4,1.7,0.6c0.5,0.2,1.1,0.4,1.6,0.6c0.5,0.2,1,0.3,1.4,0.5c0.4,0.1,0.9,0.3,1.2,0.4c0.4,0.2,0.7,0.2,1,0.3
		c0.5,0.2,0.9,0.3,0.9,0.3l0,0.2c0,0-0.3,0.1-0.9,0.2c-0.3,0.1-0.7,0.2-1.1,0.2c-0.4,0-0.9,0-1.4,0c-0.5-0.1-1.1-0.1-1.6-0.2
		c-0.6-0.1-1.2-0.3-1.8-0.5c-0.6-0.2-1.2-0.5-1.7-0.8c-0.6-0.3-1.2-0.6-1.7-1c-1.1-0.7-2.2-1.4-3.2-2.2c-1-0.7-1.9-1.5-2.6-2.1
		c-1.5-1.3-2.4-2.3-2.4-2.3L258.2,128.9z"/>
</g>
<path class="st7" d="M293.9,109.8c0,0-0.7-14.7,3.7-15.6c0,0,1.3-11.6-8.8-5.3C278.8,95.3,293.9,109.8,293.9,109.8z"/>
</svg>
