<?xml version="1.0" encoding="utf-8"?>
<!-- Generator: Adobe Illustrator 19.2.1, SVG Export Plug-In . SVG Version: 6.00 Build 0)  -->
<svg version="1.1" id="Layer_1" xmlns="http://www.w3.org/2000/svg" xmlns:xlink="http://www.w3.org/1999/xlink" x="0px" y="0px"
	 viewBox="0 0 841.9 595.3" style="enable-background:new 0 0 841.9 595.3;" xml:space="preserve">
<style type="text/css">
	.st0{stroke:#000000;stroke-width:2;stroke-miterlimit:10;}
	.st1{fill:url(#SVGID_1_);stroke:#000000;stroke-width:2;stroke-miterlimit:10;}
	.st2{fill:url(#SVGID_2_);stroke:#000000;stroke-width:2;stroke-miterlimit:10;}
	.st3{fill:url(#SVGID_3_);stroke:#000000;stroke-width:2;stroke-miterlimit:10;}
	.st4{fill:url(#SVGID_4_);stroke:#000000;stroke-width:2;stroke-miterlimit:10;}
	.st5{fill:url(#SVGID_5_);stroke:#000000;stroke-width:2;stroke-miterlimit:10;}
	.st6{fill:url(#SVGID_6_);stroke:#BE1E2D;stroke-width:2;stroke-miterlimit:10;}
	.st7{fill:none;stroke:#000000;stroke-miterlimit:10;}
	.st8{fill:none;stroke:#000000;stroke-width:2;stroke-miterlimit:10;}
	.st9{fill:url(#SVGID_7_);}
	.st10{fill:url(#SVGID_8_);}
	.st11{fill:url(#SVGID_9_);}
	.st12{fill:#FFFFFF;}
</style>
<path class="st0" d="M446.4,514.4L446.4,514.4c-6.1,0.1-12.5,0.2-18.4,0.3c0,0,0,0,0,0c-11.5,0.2-20.9,0.3-22.3,0.3
	c-4,0-13-10-13-10L264.6,166.7c-5.9,10.4-17.2,23-38.4,26.9l142,339.9c0,0,9,9.1,13,9.1c3.9,0,64.8-0.9,68.8-0.9l11.4-27.4
	C456.9,514.3,451.8,514.3,446.4,514.4z M464.6,513.8l-0.2,0.4c0.4,0,0.8,0,1.2,0C465.3,514,464.9,513.9,464.6,513.8z M476.7,254
	c0,0-5.6-5.9-12-7.8c-8.6-2.6-18.6,1.9-18.6,36.8c0,0-21.7,31-26.7-14.3c0,0-4-10.3-9-5.3c0,0-1.7,10.7-4.7,14.3
	c-3,3.7-28.3,14-2,41.3c0,0-8,20.3,23,25.7c0,0,3.4,6.7,6.2,16.7c2.8,9.8,5,22.8,3.2,36.1c-0.3,1.8-0.6,3.7-1,5.5c0,0-1,5.7,5,7
	c0,0,20.7,12.7,16-28.3c0,0-4.7-7.7,4.7-27c9.3-19.3,2.7-34.3,2.7-34.3s9.3-11.3,10.3-18.3s3-25.7,1-28.7c0,0,4.5-7.4,5.2-13.1
	C480.2,257.3,479.5,254.8,476.7,254z"/>
<path class="st0" d="M461.4,514.2L450,541.6c0.1,0,0.2,0,0.2,0l5-7.3l9.3-20.2C463.5,514.2,462.4,514.2,461.4,514.2z M621.8,164.4
	l-31,74.6l33.4-72.6C624.2,166.4,623.4,165.7,621.8,164.4z"/>
<path class="st0" d="M-13-4v601h861V-4H-13z M624.2,166.4L590.8,239L479.7,506l-5,8c0,0-3.6,0-9.1,0.1c-0.4,0-0.8,0-1.2,0l-9.3,20.2
	l-5,7.3c0,0-0.1,0-0.2,0c-4,0.1-64.9,0.9-68.8,0.9c-4,0-13-9.1-13-9.1l-142-339.9c21.2-3.9,32.5-16.5,38.4-26.9l-8.5-22.5l-5.4-14.2
	c38-7.7,44.3-46.3,44.3-46.3c49.3-29.3,48.7-11.3,48.7-11.3s61.7,196,66.7,191s9,5.3,9,5.3C424.3,314,446,283,446,283
	c0-34.9,10-39.4,18.6-36.8c6.4,1.9,12,7.8,12,7.8c26.4-67.8,47.6-111,63.6-138.4C563.7,75.4,575.7,69,575.7,69c39-3,73,31,73,31
	l-26.8,64.4C623.4,165.7,624.2,166.4,624.2,166.4z"/>
<radialGradient id="SVGID_1_" cx="361.5145" cy="518.639" r="170.9921" gradientUnits="userSpaceOnUse">
	<stop  offset="0" style="stop-color:#FBB040"/>
	<stop  offset="1" style="stop-color:#BE1E2D"/>
</radialGradient>
<path class="st1" d="M464.4,514.2l-9.3,20.2l-5,7.3c0,0-0.1,0-0.2,0c-4,0.1-64.9,0.9-68.8,0.9c-4,0-13-9.1-13-9.1l-142-339.9
	c12.8-9,25.6-17.9,38.4-26.9L392.7,505c0,0,9,10,13,10c1.5,0,10.9-0.1,22.3-0.3c0,0,0,0,0,0c5.9-0.1,12.2-0.2,18.3-0.3h0
	c5.4-0.1,10.5-0.2,15-0.2C462.4,514.2,463.5,514.2,464.4,514.2z"/>
<radialGradient id="SVGID_2_" cx="455.7294" cy="388.1094" r="41.2018" gradientUnits="userSpaceOnUse">
	<stop  offset="0" style="stop-color:#FBB040"/>
	<stop  offset="1" style="stop-color:#BE1E2D"/>
</radialGradient>
<path class="st2" d="M474.7,273.3c2,3,0,21.7-1,28.7s-10.3,18.3-10.3,18.3s6.7,15-2.7,34.3c-9.3,19.3-4.7,27-4.7,27
	c4.7,41-16,28.3-16,28.3c-6-1.3-5-7-5-7c0.4-1.8,0.8-3.7,1-5.5c0-0.1,0.1-0.2,0.1-0.3c9.3-17.5,2.7-31.1,2.7-31.1s1.5-1.7,3.4-4.1
	c2.8-3.6,6.4-8.8,7-12.6c1-6.3,3-23.3,1-26c0,0,10.3-15.4,2-17.5c7.7-17.9,15-34,21.8-48.3c2.1,0.6,4.1,1.5,5.9,2.5
	C479.2,265.9,474.7,273.3,474.7,273.3z"/>
<radialGradient id="SVGID_3_" cx="444" cy="447" r="279.7231" gradientUnits="userSpaceOnUse">
	<stop  offset="0" style="stop-color:#F9ED32"/>
	<stop  offset="1" style="stop-color:#BE1E2D"/>
</radialGradient>
<path class="st3" d="M648.7,100l-26.8,64.4l-31,74.6L479.7,506l-5,8c0,0-3.6,0-9.1,0.1c-0.3-0.1-0.7-0.2-1-0.4l-0.2,0.4
	c-1,0-2,0-3.1,0c-4.4,0.1-9.6,0.1-15,0.2h0c-6.1,0.1-12.5,0.2-18.3,0.3c0,0,0,0,0,0c-11.5,0.2-20.9,0.3-22.3,0.3c-4,0-13-10-13-10
	L264.6,166.7l-8.5-22.5l-5.4-14.2c38-7.7,44.3-46.3,44.3-46.3c49.3-29.3,48.7-11.3,48.7-11.3s61.7,196,66.7,191
	c0,0-1.7,10.7-4.7,14.3c-3,3.7-28.3,14-2,41.3c0,0-8,20.3,23,25.7c0,0,3.4,6.7,6.2,16.7c2.8,9.8,5,22.8,3.2,36.1
	c-0.3,1.8-0.6,3.7-1,5.5c0,0-1,5.7,5,7c0,0,20.7,12.7,16-28.3c0,0-4.7-7.7,4.7-27c9.3-19.3,2.7-34.3,2.7-34.3s9.3-11.3,10.3-18.3
	s3-25.7,1-28.7c0,0,4.5-7.4,5.2-13.1c0.3-2.9-0.3-5.4-3.2-6.2c26.4-67.8,47.6-111,63.6-138.4C563.7,75.4,575.7,69,575.7,69
	C614.7,66,648.7,100,648.7,100z"/>
<radialGradient id="SVGID_4_" cx="464.9626" cy="514.103" r="0.7551" gradientUnits="userSpaceOnUse">
	<stop  offset="0" style="stop-color:#FBB040"/>
	<stop  offset="1" style="stop-color:#BE1E2D"/>
</radialGradient>
<path class="st4" d="M465.6,514.1c-0.4,0-0.8,0-1.2,0l0.2-0.4C464.9,513.9,465.3,514,465.6,514.1z"/>
<radialGradient id="SVGID_5_" cx="424" cy="301" r="0" gradientUnits="userSpaceOnUse">
	<stop  offset="0" style="stop-color:#FBB040"/>
	<stop  offset="1" style="stop-color:#BE1E2D"/>
</radialGradient>
<path class="st5" d="M424,301"/>
<radialGradient id="SVGID_6_" cx="428.0025" cy="406.9999" r="101.1757" gradientUnits="userSpaceOnUse">
	<stop  offset="0" style="stop-color:#F15A29"/>
	<stop  offset="1" style="stop-color:#FFFFFF"/>
</radialGradient>
<path class="st6" d="M479.8,260.2c-0.7,5.7-5.2,13.1-5.2,13.1c2,3,0,21.7-1,28.7s-10.3,18.3-10.3,18.3s6.7,15-2.7,34.3
	c-9.3,19.3-4.7,27-4.7,27c4.7,41-16,28.3-16,28.3c-6-1.3-5-7-5-7c0.4-1.8,0.8-3.7,1-5.5c1.9-13.3-0.4-26.3-3.2-36.1
	c-2.8-10-6.2-16.7-6.2-16.7c-31-5.3-23-25.7-23-25.7c-26.3-27.3-1-37.7,2-41.3c3-3.7,4.7-14.3,4.7-14.3c5-5,9,5.3,9,5.3
	C424.3,314,446,283,446,283c0-34.9,10-39.4,18.6-36.8c6.4,1.9,12,7.8,12,7.8C479.5,254.8,480.2,257.3,479.8,260.2z"/>
<g>
	<path d="M387.7,461c0,0,0.3,1,1,2.9c0.6,1.8,1.6,4.4,2.8,7.4c0.6,1.5,1.3,3.1,2.1,4.9c0.8,1.7,1.6,3.5,2.6,5.3
		c0.9,1.8,1.9,3.7,3,5.5c1.1,1.9,2.2,3.7,3.4,5.5c1.2,1.8,2.5,3.5,3.9,5.1c0.3,0.4,0.7,0.8,1,1.2c0.4,0.4,0.7,0.8,1,1.1
		c0.7,0.8,1.4,1.5,2.1,2.2c0.6,0.8,1.4,1.4,2,2.1c0.7,0.7,1.4,1.3,2,1.9c1.3,1.2,2.7,2.3,3.9,3.2c1.3,0.9,2.5,1.7,3.6,2.4
		c0.6,0.3,1.1,0.7,1.6,0.9c0.5,0.3,1,0.5,1.4,0.7c0.9,0.4,1.6,0.7,2,0.9c0.5,0.2,0.7,0.3,0.7,0.3l-0.1,0.4c0,0-0.3,0-0.8,0
		c-0.5,0-1.3,0-2.3-0.2c-1-0.2-2.2-0.4-3.5-0.8c-1.3-0.4-2.8-1-4.4-1.8c-0.8-0.4-1.6-0.8-2.4-1.3c-0.8-0.5-1.6-1.1-2.4-1.6
		c-1.6-1.2-3.1-2.6-4.6-4.1c-0.7-0.8-1.5-1.6-2.1-2.5c-0.3-0.4-0.7-0.9-1-1.3c-0.3-0.5-0.6-0.9-1-1.4c-1.3-1.8-2.5-3.7-3.6-5.7
		c-1.1-1.9-2.2-3.9-3.2-5.9c-1-2-1.9-3.9-2.7-5.9c-1.7-3.8-2.9-7.5-3.9-10.7c-2-6.3-2.9-10.7-2.9-10.7L387.7,461z"/>
</g>
<g>
	<path d="M414.7,470.5c0,0,1.1,3.4,3.1,8.2c2.1,4.8,5.1,11.2,9,16.9c1,1.4,2,2.8,3.1,4.1c1.1,1.3,2.2,2.5,3.3,3.7
		c0.5,0.6,1.1,1.1,1.6,1.7c0.5,0.5,1,1.1,1.5,1.6c1,1,2,1.9,3,2.7c1,0.8,1.9,1.5,2.8,2.1c0.4,0.3,0.8,0.6,1.2,0.8
		c0.4,0.2,0.7,0.5,1.1,0.7c0.7,0.4,1.2,0.7,1.6,0.9c0.4,0.2,0.6,0.3,0.6,0.3l-0.1,0.4c0,0-0.2,0-0.7,0c-0.4,0-1.1-0.1-1.9-0.2
		c-0.8-0.2-1.8-0.3-2.8-0.7c-1.1-0.4-2.3-0.9-3.5-1.5c-0.6-0.4-1.2-0.7-1.9-1.1c-0.6-0.4-1.2-0.9-1.9-1.4c-1.3-1-2.5-2.1-3.7-3.4
		c-1.1-1.3-2.2-2.7-3.2-4.2c-1-1.5-1.9-3.1-2.8-4.6c-0.9-1.6-1.7-3.2-2.5-4.8c-0.8-1.6-1.5-3.2-2.1-4.7c-1.3-3.1-2.3-6.1-3-8.6
		c-1.6-5.1-2.2-8.6-2.2-8.6L414.7,470.5z"/>
</g>
<g>
	<path d="M440.2,477.5c0,0,0.9,2.7,2.6,6.5c0.4,1,0.9,2,1.4,3.1c0.5,1.1,1.1,2.2,1.7,3.4c1.2,2.3,2.6,4.7,4.1,7
		c0.8,1.1,1.6,2.3,2.4,3.3c0.9,1,1.7,2,2.5,3c0.4,0.5,0.8,0.9,1.2,1.4c0.4,0.5,0.8,0.9,1.1,1.3c0.4,0.4,0.8,0.8,1.1,1.2
		c0.4,0.4,0.7,0.8,1.1,1.1c0.7,0.7,1.4,1.4,2,1.9c0.6,0.6,1.2,1,1.6,1.4c0.5,0.4,0.9,0.7,1.1,0.9c0.3,0.2,0.4,0.3,0.4,0.3l-0.1,0.4
		c0,0-0.2,0-0.5-0.1c-0.3-0.1-0.9-0.1-1.5-0.3c-0.6-0.2-1.4-0.4-2.2-0.7c-0.9-0.3-1.8-0.8-2.7-1.4c-0.5-0.3-1-0.6-1.5-1
		c-0.5-0.4-1-0.8-1.5-1.2c-0.5-0.4-1-0.9-1.4-1.3c-0.5-0.5-0.9-1-1.4-1.5c-0.9-1.1-1.7-2.3-2.4-3.5c-0.7-1.2-1.5-2.5-2.1-3.8
		c-1.4-2.6-2.6-5.2-3.5-7.7c-1-2.5-1.7-4.9-2.3-7c-1.2-4.1-1.6-6.9-1.6-6.9L440.2,477.5z"/>
</g>
<path class="st7" d="M-276,11"/>
<circle class="st8" cx="257.8" cy="212.3" r="22.5"/>
<circle class="st8" cx="258.3" cy="178.8" r="10.5"/>
<circle class="st8" cx="229.9" cy="194.6" r="9.9"/>
<circle class="st8" cx="281.5" cy="259.2" r="16.8"/>
<circle class="st8" cx="280.5" cy="233.2" r="8.2"/>
<circle class="st8" cx="254.7" cy="247" r="11"/>
<circle class="st8" cx="284.7" cy="293" r="16.7"/>
<circle class="st8" cx="307" cy="312" r="11.7"/>
<circle class="st8" cx="301.7" cy="343.7" r="18.3"/>
<circle class="st8" cx="284.3" cy="320" r="10"/>
<circle class="st8" cx="384.3" cy="524.7" r="18.7"/>
<ellipse transform="matrix(0.591 -0.8067 0.8067 0.591 -256.9058 554.9572)" class="st8" cx="418.8" cy="530.8" rx="16.2" ry="16.2"/>
<circle class="st8" cx="443.3" cy="523.7" r="9.3"/>
<circle class="st8" cx="446.8" cy="546.8" r="13.8"/>
<circle class="st8" cx="379.2" cy="496.5" r="8.8"/>
<circle class="st8" cx="361.7" cy="505.7" r="10"/>
<circle class="st8" cx="359.3" cy="475" r="19"/>
<circle class="st8" cx="323.2" cy="391.2" r="12.8"/>
<circle class="st8" cx="337.3" cy="416.7" r="16"/>
<circle class="st8" cx="342.8" cy="392.8" r="6.5"/>
<circle class="st8" cx="326" cy="359.3" r="9.3"/>
<circle class="st8" cx="319.3" cy="327" r="5"/>
<circle class="st8" cx="310.2" cy="370.8" r="9.2"/>
<circle class="st8" cx="334.3" cy="374.3" r="6.3"/>
<circle class="st8" cx="341.7" cy="447.3" r="14"/>
<circle class="st8" cx="363.2" cy="448.2" r="7.2"/>
<circle class="st8" cx="356.7" cy="431.7" r="7.7"/>
<radialGradient id="SVGID_7_" cx="295.4962" cy="152.373" r="63.6542" gradientUnits="userSpaceOnUse">
	<stop  offset="0" style="stop-color:#F9ED32"/>
	<stop  offset="1" style="stop-color:#BE1E2D"/>
</radialGradient>
<path class="st9" d="M244,116.5c5.2,5.7,17.7,2.8,28-6.6c10.2-9.3,14.3-21.5,9-27.3c-5.2-5.7-17.7-2.8-28,6.6
	C242.9,98.6,238.8,110.8,244,116.5z"/>
<radialGradient id="SVGID_8_" cx="244.6873" cy="120.3118" r="27.3675" gradientTransform="matrix(0.9914 -0.1308 0.1308 0.9914 -10.7893 30.9889)" gradientUnits="userSpaceOnUse">
	<stop  offset="0" style="stop-color:#F9ED32"/>
	<stop  offset="1" style="stop-color:#BE1E2D"/>
</radialGradient>
<path class="st10" d="M223.6,105.9c2.5,2.1,7.7,0.2,11.5-4.4s4.9-10,2.3-12.1c-2.5-2.1-7.7-0.2-11.5,4.4S221,103.7,223.6,105.9z"/>
<radialGradient id="SVGID_9_" cx="268.2018" cy="90.8393" r="29.4723" gradientUnits="userSpaceOnUse">
	<stop  offset="0" style="stop-color:#F9ED32"/>
	<stop  offset="1" style="stop-color:#BE1E2D"/>
</radialGradient>
<path class="st11" d="M244.4,74.2c2.4,2.6,8.2,1.3,12.9-3c4.7-4.3,6.6-10,4.2-12.6c-2.4-2.6-8.2-1.3-12.9,3S242,71.6,244.4,74.2z"/>
<path class="st12" d="M450.9,229.7c-3.4-19.8-2.2-35.3,3.8-39.1c5-3.1,8.8-2.2,8.8-2.2c2.4,0.5,3.8,2,4.3,2.6
	c4.2,4.5,2.9,12.6-0.7,18.2c-2.5,3.9-4.3,3.9-8.8,9.1C454.6,222.7,452.3,226.8,450.9,229.7z"/>
<path class="st12" d="M433,244.9c10.3-15.5,15-29,11.4-34.4c-3.1-4.5-6.6-5.2-6.6-5.2c-2.2-0.4-4,0.3-4.6,0.6
	c-5.2,2.2-7.2,9.5-6.3,15.7c0.6,4.2,2.2,4.9,4.1,11C432.5,237.6,432.9,242,433,244.9z"/>
<g>
	<path d="M407.6,345.4c2.4,1.7,5,3.2,7.6,4.5c0.7,0.3,1.3,0.6,2,0.9c0.7,0.3,1.4,0.5,2.1,0.7c0.3,0.1,0.7,0.2,1,0.3
		c0.4,0.1,0.7,0.2,1.1,0.2c0.4,0,0.7,0.1,1.1,0.1l1,0l0.3,0l0.1,0.3c1.6,4.5,2.9,9.1,4.1,13.7c1.2,4.6,2.2,9.3,3,14.1
		c0.4,2.4,0.7,4.8,0.9,7.2c0.1,1.2,0.2,2.4,0.2,3.6c0,1.2,0,2.4,0,3.6c0,1.2-0.1,2.4-0.3,3.6c0,0.6-0.2,1.2-0.2,1.8
		c-0.1,0.6-0.2,1.2-0.3,1.8c-0.2,1.2-0.5,2.4-0.9,3.5c-0.2,0.6-0.4,1.2-0.6,1.7l-0.7,1.7l0-0.3c0.1,0.6,0.2,1.2,0.4,1.8
		c0.2,0.6,0.4,1.2,0.7,1.7c0.1,0.1,0.1,0.3,0.2,0.4c0.1,0.1,0.2,0.3,0.3,0.4l0.3,0.3l0.3,0.3c0.1,0.1,0.2,0.2,0.4,0.2
		c0.1,0.1,0.3,0.1,0.4,0.2c0.1,0.1,0.3,0.1,0.4,0.1l0.5,0.1v0.2l-0.5,0c-0.2,0-0.3,0-0.5-0.1c-0.2,0-0.3-0.1-0.5-0.2
		c-0.2-0.1-0.3-0.1-0.5-0.2l-0.4-0.3l-0.4-0.3c-0.1-0.1-0.2-0.2-0.3-0.4c-0.1-0.1-0.2-0.3-0.3-0.4c-0.4-0.5-0.7-1.1-1-1.7
		c-0.3-0.6-0.5-1.2-0.7-1.9l0-0.1l0.1-0.2l0.5-1.7c0.2-0.6,0.3-1.1,0.4-1.7c0.2-1.1,0.5-2.3,0.6-3.4c0.1-0.6,0.2-1.2,0.2-1.7
		c0.1-0.6,0.1-1.2,0.1-1.7c0.1-1.2,0.1-2.3,0.1-3.5c0-1.2,0-2.3,0-3.5c0-1.2-0.1-2.4-0.1-3.5c-0.2-2.4-0.4-4.7-0.6-7.1
		c-0.6-4.7-1.4-9.4-2.5-14c-1-4.6-2.3-9.2-3.7-13.8l0.5,0.3l-1.2,0c-0.4,0-0.8-0.1-1.1-0.2c-0.4-0.1-0.7-0.2-1.1-0.3
		c-0.4-0.1-0.7-0.2-1.1-0.3c-0.7-0.2-1.4-0.5-2.1-0.8c-0.7-0.3-1.4-0.6-2-1c-2.6-1.4-5.1-3-7.5-4.8L407.6,345.4z"/>
</g>
<g>
	<path d="M299.9,87.7c0,0,3.1-1.7,7.9-4.1c2.4-1.2,5.2-2.5,8.3-3.8c3.1-1.3,6.4-2.7,9.9-3.7c1.8-0.5,3.5-1,5.5-1.1
		c0.5,0,1,0,1.6,0.1c0.6,0.1,1.3,0.4,1.9,1.1l0.4,0.6l0.4,0.5c0.2,0.3,0.4,0.5,0.7,0.8c1,1.1,2.2,2.2,3.2,3.4c1.1,1.2,2,2.5,2.6,3.8
		c0.6,1.3,1,2.6,1.2,3.7c0.1,1.1,0.1,2.1,0.1,2.9c0,0.8-0.2,1.4-0.3,1.8c-0.1,0.4-0.1,0.6-0.1,0.6l-0.3,0c0,0,0-0.2-0.1-0.6
		c-0.1-0.4-0.1-1-0.3-1.8c-0.3-1.5-0.8-3.5-2.2-5.5c-0.7-1-1.6-2-2.7-3c-1.1-1-2.3-2.1-3.5-3.4c-0.3-0.3-0.6-0.8-0.9-1.1
		c-0.1-0.2-0.2-0.4-0.4-0.5l-0.2-0.3l-0.1-0.2c0,0,0,0,0,0c0.1,0,0-0.1-0.3-0.2c-0.2-0.1-0.6-0.1-0.9-0.2c-1.5-0.1-3.2,0.2-4.9,0.6
		c-3.4,0.8-6.7,1.9-9.8,3c-3.1,1.1-6,2.2-8.5,3.2c-4.9,2-8.2,3.4-8.2,3.4L299.9,87.7z"/>
</g>
<g>
	<path d="M308.5,90.2c0,0,1.7-1,4.4-2.3c1.3-0.7,2.9-1.4,4.6-2.2c1.7-0.7,3.6-1.5,5.5-2.1c1-0.3,2-0.6,3.1-0.6c0.1,0,0.3,0,0.5,0
		c0.2,0,0.3,0,0.5,0.1c0.2,0,0.4,0.1,0.6,0.2c0.1,0.1,0.2,0.1,0.3,0.2c0.1,0.1,0.2,0.2,0.3,0.3l0.1,0.2c0,0,0,0,0,0l0.1,0.1l0.2,0.3
		c0.1,0.1,0.2,0.3,0.4,0.4c0.6,0.6,1.2,1.2,1.8,1.9c0.6,0.7,1.1,1.4,1.5,2.1c0.4,0.7,0.5,1.5,0.6,2.1c0.1,0.7,0.1,1.2,0,1.7
		c0,0.5-0.1,0.8-0.2,1c-0.1,0.2-0.1,0.4-0.1,0.4l-0.2,0c0,0,0-0.1-0.1-0.4c0-0.2-0.1-0.6-0.2-1c-0.2-0.8-0.5-1.9-1.3-3
		c-0.4-0.5-0.9-1.1-1.5-1.6c-0.6-0.5-1.3-1.1-2-1.9c-0.2-0.2-0.3-0.4-0.5-0.7l-0.2-0.3l-0.1-0.2l-0.1-0.1c0,0,0,0,0,0
		c0.2,0.1-0.2-0.1-0.5-0.1c-0.8-0.1-1.8,0.1-2.7,0.3c-1.9,0.4-3.8,1-5.5,1.6c-1.7,0.6-3.4,1.2-4.7,1.8c-2.8,1.1-4.6,1.8-4.6,1.8
		L308.5,90.2z"/>
</g>
<g>
	<path d="M482.6,252c0.8,1.8,1.3,3.7,1.9,5.7c0.5,1.9,0.9,3.9,1.1,5.9c0.1,1,0.2,2,0.2,3c0,1,0,2-0.2,3.1c-0.1,0.5-0.2,1-0.3,1.5
		c-0.2,0.5-0.3,1-0.6,1.5c-0.2,0.5-0.6,1-0.9,1.4c-0.2,0.2-0.4,0.4-0.6,0.6c-0.2,0.2-0.5,0.3-0.7,0.5l0.4-0.8c0.1,2.1,0,4.2-0.1,6.2
		c-0.1,2.1-0.3,4.1-0.5,6.2c-0.1,1-0.2,2.1-0.4,3.1c-0.1,1-0.2,2.1-0.4,3.1c-0.3,2.1-0.5,4.1-0.9,6.1c-0.2,1-0.3,2-0.5,3.1
		c-0.2,1-0.4,2-0.6,3.1c-0.3,1-0.5,2-0.8,3c-0.3,1-0.6,2-1,3l-0.6,1.5l-0.7,1.4c-0.5,0.9-1.1,1.8-1.8,2.7c-0.7,0.9-1.4,1.6-2.3,2.3
		c-0.4,0.4-0.9,0.6-1.4,0.9c-0.5,0.3-1,0.5-1.5,0.7l0.6-1.3c0.7,1.6,1.2,3.2,1.7,4.8c0.5,1.6,1,3.2,1.4,4.9c0.4,1.6,0.7,3.3,1,5
		c0.1,0.8,0.2,1.7,0.3,2.5c0.1,0.8,0.1,1.7,0.2,2.5c0.1,1.7,0.1,3.4-0.1,5.1c-0.1,0.9-0.2,1.7-0.3,2.5c-0.2,0.8-0.3,1.7-0.6,2.5
		c-0.2,0.8-0.5,1.6-0.8,2.4c-0.4,0.8-0.7,1.6-1.2,2.3c-0.2,0.4-0.5,0.7-0.7,1.1c-0.3,0.3-0.5,0.7-0.8,1c-0.5,0.7-1.2,1.2-1.8,1.8
		l-0.1-0.1c0.5-0.6,1.1-1.3,1.5-1.9c0.3-0.3,0.4-0.7,0.6-1c0.2-0.4,0.4-0.7,0.6-1.1c0.4-0.7,0.6-1.5,0.9-2.3
		c0.2-0.8,0.5-1.6,0.6-2.4c0.2-0.8,0.3-1.6,0.4-2.4c0.1-0.8,0.1-1.6,0.2-2.4c0-1.6,0-3.3-0.2-4.9c-0.2-1.6-0.4-3.3-0.6-4.9
		c-0.3-1.6-0.6-3.2-1-4.8c-0.4-1.6-0.8-3.2-1.3-4.8c-0.5-1.6-1-3.2-1.5-4.7l-0.3-0.9l0.9-0.4c0.4-0.2,0.9-0.3,1.3-0.5
		c0.4-0.3,0.8-0.5,1.2-0.7c0.8-0.6,1.4-1.2,2.1-2c0.6-0.7,1.2-1.6,1.7-2.4l0.7-1.3l0.7-1.4c0.4-0.9,0.8-1.8,1.2-2.8
		c0.4-0.9,0.7-1.9,1-2.9c0.3-1,0.6-2,0.8-3c0.3-1,0.4-2,0.7-3c0.2-1,0.4-2,0.5-3c0.1-1,0.2-2,0.4-3.1c0.2-2,0.3-4.1,0.3-6.2
		c0-2.1,0-4.1,0-6.2l-0.1-6.1l0-0.5l0.4-0.3l0.5-0.4c0.1-0.1,0.3-0.3,0.4-0.4c0.3-0.3,0.5-0.7,0.7-1c0.2-0.4,0.4-0.8,0.5-1.2
		c0.1-0.4,0.2-0.9,0.3-1.3c0.3-1.8,0.3-3.8,0.2-5.7c-0.1-1.9-0.4-3.9-0.7-5.8c-0.3-1.9-0.7-3.9-1.1-5.8L482.6,252z"/>
</g>
<g>
	<path d="M557.4,104.4c0.5-1.6,1-3.1,1.7-4.5c0.3-0.7,0.7-1.5,1-2.2c0.3-0.7,0.7-1.4,1.1-2.1c0.4-0.7,0.8-1.4,1.2-2.1
		c0.4-0.7,0.8-1.4,1.3-2.1c0.4-0.7,0.9-1.3,1.4-2c0.5-0.7,1-1.3,1.5-1.9c1.1-1.2,2.2-2.4,3.3-3.6l3.3-3.5c0.6-0.6,1.1-1.2,1.7-1.7
		l0.9-0.8l1-0.8c0.3-0.3,0.7-0.5,1-0.7c0.4-0.2,0.8-0.4,1.2-0.6c0.8-0.4,1.9-0.5,2.9-0.4l-0.3,0c1.3-0.1,2.6-0.1,3.9-0.2
		c1.3,0,2.6,0,3.9,0.1c2.6,0.1,5.2,0.4,7.7,1c1.3,0.3,2.5,0.7,3.8,1.1c0.6,0.2,1.2,0.5,1.9,0.7c0.6,0.3,1.2,0.5,1.8,0.9
		c0.6,0.3,1.2,0.7,1.7,1c0.6,0.4,1.1,0.8,1.6,1.2l0.7,0.7l0.6,0.8l0.5,0.8l0.4,0.9l-0.3,0.2l-0.7-0.7l-0.7-0.6l-0.7-0.5l-0.8-0.5
		c-0.5-0.3-1.1-0.5-1.6-0.8c-0.6-0.2-1.1-0.4-1.7-0.6c-1.2-0.4-2.3-0.7-3.5-0.9c-0.6-0.1-1.2-0.2-1.8-0.4c-0.6-0.1-1.2-0.2-1.8-0.3
		c-1.2-0.2-2.5-0.4-3.7-0.5c-1.2-0.2-2.5-0.3-3.7-0.5c-1.2-0.1-2.5-0.3-3.7-0.4l-3.7-0.3l-0.2,0l-0.1,0c-0.5-0.1-1.1-0.2-1.8-0.1
		c-0.3,0-0.7,0.2-1,0.3c-0.3,0.1-0.7,0.3-1,0.5c-0.7,0.4-1.3,0.8-1.9,1.2c-0.6,0.5-1.2,1-1.8,1.6c-0.6,0.6-1.1,1.1-1.6,1.7
		c-0.5,0.6-1,1.3-1.4,1.9c-0.4,0.7-0.9,1.3-1.3,2c-0.4,0.7-0.8,1.4-1.2,2.1c-0.8,1.4-1.6,2.7-2.4,4.1l-1.3,2c-0.4,0.7-0.9,1.3-1.3,2
		c-0.9,1.3-1.8,2.6-2.7,3.9c-0.9,1.3-1.9,2.6-2.9,3.8L557.4,104.4z"/>
</g>
<g>
	<path d="M564.9,102.5c0.3-1.1,0.8-2.2,1.2-3.2c0.5-1,1-2.1,1.5-3.1c0.3-0.5,0.6-1,0.8-1.5c0.3-0.5,0.6-1,0.9-1.5
		c0.6-1,1.3-1.9,2.1-2.8c0.8-0.9,1.5-1.7,2.3-2.6l2.3-2.5c0.4-0.4,0.8-0.8,1.2-1.2c0.4-0.4,0.9-0.8,1.3-1.2c0.5-0.4,1-0.7,1.6-0.9
		c0.6-0.3,1.3-0.4,2-0.3l-0.2,0c1.9-0.2,3.7-0.1,5.6,0c1.8,0.1,3.7,0.3,5.5,0.7c1.8,0.4,3.6,1,5.3,1.9c0.4,0.2,0.8,0.5,1.2,0.7
		c0.4,0.3,0.8,0.6,1.1,0.9c0.4,0.3,0.7,0.7,1,1.1l0.4,0.6l0.3,0.6l-0.2,0.1c-0.3-0.3-0.6-0.6-1-0.9l-0.5-0.4l-0.6-0.3
		c-0.4-0.2-0.8-0.4-1.2-0.6c-0.4-0.2-0.8-0.3-1.2-0.5c-1.7-0.6-3.4-0.9-5.1-1.2c-1.8-0.3-3.5-0.5-5.3-0.7c-1.8-0.2-3.6-0.3-5.4-0.4
		l-0.1,0l0,0c-0.4-0.1-0.8-0.1-1.3,0c-0.2,0-0.5,0.1-0.7,0.2c-0.2,0.1-0.5,0.2-0.7,0.3c-0.5,0.3-0.9,0.6-1.4,0.9
		c-0.4,0.4-0.9,0.7-1.3,1.1c-0.8,0.8-1.5,1.7-2.2,2.6c-0.6,0.9-1.2,1.9-1.8,2.9c-0.6,1-1.1,1.9-1.7,2.9c-0.3,0.5-0.6,0.9-0.9,1.4
		L569,97c-1.3,1.9-2.5,3.7-4,5.6L564.9,102.5z"/>
</g>
<g>
	<path d="M623,135c0,0-82.5,176-78,181.5"/>
	<path d="M623.1,135.1c0,0-5.1,11.3-12.7,28.2c-3.8,8.5-8.2,18.4-12.9,28.9c-4.7,10.6-9.7,21.9-14.7,33.2
		c-4.9,11.4-9.8,22.7-14.4,33.4c-4.6,10.6-9,20.5-12.7,29c-1.8,4.3-3.5,8.1-5,11.6c-1.4,3.5-2.7,6.5-3.6,9c-1,2.5-1.6,4.5-1.9,5.9
		c-0.2,0.7-0.2,1.2-0.2,1.6c0,0.4,0.1,0.5,0.1,0.5l-0.2,0.2c0,0-0.2-0.2-0.2-0.6c-0.1-0.4,0-1,0.1-1.7c0.2-1.5,0.7-3.5,1.4-6.2
		c0.7-2.6,1.8-5.8,3-9.3c1.3-3.6,2.7-7.6,4.4-11.9c1.7-4.3,3.5-9,5.5-13.9c2-4.9,4.2-10.1,6.5-15.4c4.7-10.6,9.9-21.9,15-33.1
		c10.3-22.5,20.8-44.9,28.8-61.6c8-16.7,13.4-27.9,13.4-27.9L623.1,135.1z"/>
</g>
<g>
	<path d="M546.3,277.3c0,0,41.2-86.3,39-89"/>
	<path d="M546.2,277.3c0,0,2.5-5.6,6.2-13.9c3.7-8.4,8.6-19.5,13.5-30.6c2.4-5.6,4.8-11.2,7-16.4c1.2-2.6,2.3-5.1,3.4-7.5
		c1.1-2.4,2.1-4.6,3.1-6.7c1-2.1,1.8-4,2.6-5.6c0.8-1.7,1.4-3.1,2-4.4c0.5-1.2,0.9-2.2,1.1-2.8c0.1-0.3,0.1-0.6,0.2-0.7
		c0-0.1,0-0.2,0-0.2l0.2-0.2c0,0,0.1,0.1,0.1,0.3c0,0.2,0,0.5,0,0.9c-0.1,0.7-0.3,1.8-0.6,3.1c-0.3,1.3-0.8,2.9-1.3,4.7
		c-0.6,1.8-1.3,3.8-2,5.9c-0.8,2.2-1.7,4.5-2.7,6.9c-1,2.4-2.1,5-3.2,7.6c-1.2,2.6-2.4,5.3-3.7,8c-1.3,2.7-2.6,5.4-3.9,8.2
		c-2.7,5.5-5.3,11-7.8,16.1c-2.5,5.1-4.9,9.9-6.9,14c-4.1,8.2-6.9,13.6-6.9,13.6L546.2,277.3z"/>
</g>
</svg>
