<?xml version="1.0" encoding="utf-8"?>
<!-- Generator: Adobe Illustrator 19.2.1, SVG Export Plug-In . SVG Version: 6.00 Build 0)  -->
<svg version="1.1" id="Layer_1" xmlns="http://www.w3.org/2000/svg" xmlns:xlink="http://www.w3.org/1999/xlink" x="0px" y="0px"
	 viewBox="0 0 841.9 595.3" style="enable-background:new 0 0 841.9 595.3;" xml:space="preserve">
<style type="text/css">
	.st0{fill:url(#SVGID_1_);stroke:#231F20;stroke-miterlimit:10;}
	.st1{fill:url(#SVGID_2_);}
	.st2{fill:#00FEEE;}
	.st3{fill:url(#SVGID_3_);}
	.st4{fill:url(#SVGID_4_);}
	.st5{fill:url(#SVGID_5_);}
	.st6{fill:url(#SVGID_6_);}
	.st7{fill:url(#SVGID_7_);}
	.st8{fill:none;stroke:#00FEEE;stroke-miterlimit:10;}
	.st9{fill:url(#SVGID_8_);}
	.st10{fill:url(#SVGID_9_);}
	.st11{fill:url(#SVGID_10_);}
	.st12{fill:url(#SVGID_11_);}
	.st13{fill:url(#SVGID_12_);}
	.st14{fill:url(#SVGID_13_);}
	.st15{fill:url(#SVGID_14_);stroke:#231F20;stroke-miterlimit:10;}
	.st16{fill:url(#SVGID_15_);}
</style>
<radialGradient id="SVGID_1_" cx="391.0919" cy="706.0701" r="278.3968" gradientUnits="userSpaceOnUse">
	<stop  offset="0" style="stop-color:#3497EA"/>
	<stop  offset="0.1847" style="stop-color:#266FB2"/>
	<stop  offset="0.3909" style="stop-color:#19487C"/>
	<stop  offset="0.5829" style="stop-color:#0E2950"/>
	<stop  offset="0.7544" style="stop-color:#061231"/>
	<stop  offset="0.8993" style="stop-color:#02051E"/>
	<stop  offset="1" style="stop-color:#000017"/>
</radialGradient>
<rect x="0" y="0" class="st0" width="841.9" height="595.3"/>
<linearGradient id="SVGID_2_" gradientUnits="userSpaceOnUse" x1="337.2622" y1="106.5017" x2="347.8109" y2="106.5017">
	<stop  offset="0" style="stop-color:#34FFEA"/>
	<stop  offset="0.9027" style="stop-color:#33FDE9;stop-opacity:0.9989"/>
	<stop  offset="0.9839" style="stop-color:#33FCE8;stop-opacity:0.9988"/>
</linearGradient>
<path class="st1" d="M344.7,116c-0.5-1-1-2.6-1-4.5c0.1-4,2.7-7,3.7-8.1c1.3-3.6-1.4-6.4-4.2-6.4c-2.3,0-5.2,2-6,4.8
	C337.3,101.8,336.1,115,344.7,116z"/>
<g>
	<g>
		<path class="st2" d="M584,441.2c5.6,2.1,11.3,3.3,17.3,2.8c0.1,0,0-5,0-5c-5.9-0.3-11.6-1.3-17.3-2.8
			C584.3,436.3,583.5,441.1,584,441.2c5.7,1.5,11.4,2.4,17.3,2.8c0-1.7,0-3.3,0-5c-6,0.5-11.7-0.7-17.3-2.8
			C584.5,436.4,583.4,441,584,441.2z"/>
	</g>
</g>
<g>
	<g>
		<path class="st2" d="M326.5,282.8c-0.9,2.2-1.8,4.4-2.7,6.6c-0.4,1-0.9,2.1-1.3,3.1c-0.2,0.4-1.2,2.4-1.2,2.6c0,1.7,0,3.3,0,5
			c1.8-4.1,3.5-8.2,5.1-12.4C327.1,286.4,325.9,284.2,326.5,282.8c-1.2,3-2.4,5.9-3.7,8.9c-0.5,1.1-1.2,2.4-1.5,3.6
			c-0.2,0.8,0,1.9,0,2.7c0,0.2-0.1,2.1,0,2.1c0.1,0,1.2-2.7,1.3-3c1.3-3.1,2.6-6.2,3.8-9.3C327.1,286.4,325.9,284.2,326.5,282.8z"/>
	</g>
</g>
<g>
	<g>
		<path class="st2" d="M389.8,363.9c-0.7-0.1-1.3-0.1-2-0.2c0,1.7,0,3.3,0,5c0.7,0.1,1.3,0.1,2,0.2
			C389.6,368.9,389.9,363.9,389.8,363.9c-0.7-0.1-1.3-0.1-2-0.2c0,0,0,2.3,0,2.5c0,0.2-0.1,2.5,0,2.5c0.7,0.1,1.3,0.1,2,0.2
			C389.7,368.9,389.9,363.9,389.8,363.9z"/>
	</g>
</g>
<g>
	<g>
		<path class="st2" d="M408.7,364.2c-1.3,1.1-6.1,0.3-7.8,0.3c-3.2-0.1-6.4-0.2-9.5-0.5c0,1.7,0,3.3,0,5c5.8,0.4,11.6,0.5,17.3,0.2
			C408.8,369.2,408.6,364.2,408.7,364.2c-5.8,0.3-11.6,0.2-17.3-0.2c0.1,0-0.2,5,0,5c3.2,0.3,6.3,0.4,9.5,0.5c1.7,0,6.5,0.8,7.8-0.3
			C409.5,368.5,407.9,364.8,408.7,364.2z"/>
	</g>
</g>
<g>
	<linearGradient id="SVGID_3_" gradientUnits="userSpaceOnUse" x1="350.4405" y1="331.7813" x2="229.3974" y2="276.7617">
		<stop  offset="0" style="stop-color:#2483C5"/>
		<stop  offset="1" style="stop-color:#2483C5;stop-opacity:0"/>
	</linearGradient>
	<path class="st3" d="M332.8,130.3c-2,1.6-4,3.4-6,5.3c-9.7,9.4-20.7,23.4-33,43.3c-62.4,165.7-91.2,209.3-105.1,209.8
		c-1.7,0.1-11.4-0.2-15.5,5.9c-4.2,6.2-0.5,16.1,3.2,23.6c1.9,5.3,6,14.5,14.8,22.9c5.3,5,10.8,8.5,16,10.8
		c-5.2,0.4-21.2,1-37.3-9.5c-14.1-9.2-20.4-21.8-22.6-26.9c43.1-50.2,64.5-95.6,76.1-127.8c13.2-36.9,16.8-65.4,41.3-99
		c20.3-27.9,44.7-45.3,63.3-55.9C329.7,132,331.3,131.1,332.8,130.3z"/>
</g>
<g>
	<linearGradient id="SVGID_4_" gradientUnits="userSpaceOnUse" x1="447.1478" y1="281.3203" x2="343.1478" y2="329.3203">
		<stop  offset="0" style="stop-color:#2483C5"/>
		<stop  offset="1" style="stop-color:#2483C5;stop-opacity:0"/>
	</linearGradient>
	<path class="st4" d="M408.7,366.7c-0.1,0.1-0.2,0.2-0.3,0.3c-3.2,2.7-12.3,9.7-25.5,9.8c-22.1,0.1-34.5-19.6-35.2-20.7
		c-8.8-19.4-17.5-38.9-26.3-58.3c0,0,0,0,0,0c1.7-4,3.5-8.2,5.1-12.4c0.7-1.7,1.3-3.3,2-5c1.3-3.3,2.6-6.6,3.8-9.8
		c0.6-1.6,1.2-3.2,1.8-4.8c0,0,1.8-5.4,4.3,0.1c4,14.7,9.3,30.8,16.2,47.9c7.8,19.4,16.3,36.6,24.6,51.3c1.2,0.2,2.5,0.4,3.8,0.6
		c1.3,0.2,2.6,0.3,4,0.5c0.3,0,0.6,0.1,0.9,0.1c0.3,0,0.6,0.1,1,0.1c0.3,0,0.7,0.1,1,0.1c0.1,0,0.3,0,0.4,0c0,0,0,0,0,0
		c0.1,0,0.3,0,0.4,0c0.2,0,0.5,0,0.7,0.1c0.4,0,0.8,0,1.1,0.1c2.1,0.1,4.2,0.2,6.2,0.3c0.9,0,1.9,0,2.8,0c0.6,0,1.3,0,1.9,0
		c0.6,0,1.2,0,1.8,0c0.6,0,1.2,0,1.8-0.1C407.5,366.7,408.1,366.7,408.7,366.7z"/>
</g>
<g>
	<linearGradient id="SVGID_5_" gradientUnits="userSpaceOnUse" x1="667.3082" y1="250.0265" x2="396.6415" y2="136.0265">
		<stop  offset="0" style="stop-color:#2483C5"/>
		<stop  offset="1" style="stop-color:#2483C5;stop-opacity:0"/>
	</linearGradient>
	<path class="st5" d="M480.5,107.5c-16.7,14-36.7,43.3-60.5,95.5c0,0-10.3,13-13.7-9.7c-0.4-2.4-0.9-6-1.8-10.4
		C437.4,119.6,462.2,102.9,480.5,107.5z"/>
</g>
<g>
	<g>
		<path class="st2" d="M455.8,280.3C455.7,280.2,455.7,280.2,455.8,280.3c0,0,0,0.2,0,0.3c0,0,0,0,0-0.1c0,1.6,0,3.1,0,4.7
			c0,0,0,0.1,0,0.1c0-0.2,0-0.6,0-0.7c0-0.6,0-1.2,0-1.8c0-0.6,0-1.2,0-1.8C455.8,280.8,455.8,280.5,455.8,280.3c0,0,0-0.1,0-0.1
			c0,0.1,0,0.4,0,0.5c0,0.4,0,0.9,0,1.3c0,0.9,0,1.9,0,2.8c0,0.2,0,0.3,0.1,0.5c0-0.1,0-0.7,0-0.7c0-0.6,0-1.2,0-1.8
			c0-0.6,0-1.2,0-1.8C455.8,280.8,455.8,280.4,455.8,280.3z"/>
	</g>
</g>
<g>
	<linearGradient id="SVGID_6_" gradientUnits="userSpaceOnUse" x1="616.4264" y1="194.8578" x2="483.4264" y2="400.8578">
		<stop  offset="0" style="stop-color:#2483C5"/>
		<stop  offset="1" style="stop-color:#2483C5;stop-opacity:0"/>
	</linearGradient>
	<path class="st6" d="M554,418.5c1.2,2.6,4,10.4,4.6,26.5c-21.9-11.2-43.7-28-56.9-39.9c-33.4-30.1-50.8-63.8-59.6-84.8
		c10.5-23.8,14.5-35,13.8-37.5c6,17.3,18.2,44.5,43.3,69.5c0,0,0,0,0,0C515.6,376.2,534.9,401.1,554,418.5z"/>
</g>
<g>
	<linearGradient id="SVGID_7_" gradientUnits="userSpaceOnUse" x1="717.3113" y1="259.9922" x2="584.3113" y2="465.9922">
		<stop  offset="0" style="stop-color:#2483C5"/>
		<stop  offset="1" style="stop-color:#2483C5;stop-opacity:0"/>
	</linearGradient>
	<path class="st7" d="M616,452c-10.8,7.7-26.5,5.9-43.2-0.5c1.5-5.3,3.5-10.9,5.9-15.1c1.8,0.9,3.5,1.7,5.3,2.4
		c6,2.3,11.8,3.4,17.3,2.8c7.1-6.2,17.8-16.8,26.7-32.6c0.6-1.1,1.2-2.1,1.8-3.3c0.2,0,0.4,0,0.6,0C631.6,438,621,448.4,616,452z"/>
</g>
<g>
	<g>
		<path class="st2" d="M601.3,439c-6,0.5-11.7-0.7-17.3-2.8c0,1.7,0,3.3,0,5c5.7,1.5,11.4,2.4,17.3,2.8
			C601.2,444,601.4,439,601.3,439c-5.9-0.3-11.6-1.3-17.3-2.8c0.4,0.1-0.5,4.8,0,5c5.6,2.1,11.3,3.3,17.3,2.8
			C601.4,444,601.1,439,601.3,439z"/>
	</g>
</g>
<path class="st8" d="M428.5,349c0,0,0,0.4,0,1.2"/>
<path class="st8" d="M554,418.5c-0.3-0.7-0.5-1-0.5-1"/>
<g>
	<radialGradient id="SVGID_8_" cx="597.8987" cy="381.9276" r="75.2804" gradientUnits="userSpaceOnUse">
		<stop  offset="0" style="stop-color:#8997EA"/>
		<stop  offset="2.271712e-003" style="stop-color:#8996E9"/>
		<stop  offset="0.2139" style="stop-color:#6069A6"/>
		<stop  offset="0.4147" style="stop-color:#3E446F"/>
		<stop  offset="0.5991" style="stop-color:#232643"/>
		<stop  offset="0.764" style="stop-color:#101124"/>
		<stop  offset="0.9032" style="stop-color:#040511"/>
		<stop  offset="1" style="stop-color:#00000A"/>
	</radialGradient>
	<path class="st9" d="M654.5,380.8c-3.3,1.4-7.2,0.5-11-2.2c-4.3-3-8.5-8.3-11.3-15c-3.2-7.5-3.9-15.1-2.3-20.6
		c1-3.5,2.9-6.2,5.7-7.4c7.1-3,17.1,4.7,22.3,17.2C663,365.3,661.5,377.8,654.5,380.8z"/>
	<g>
		<path class="st2" d="M654.5,380.8c0,0-0.1,0-0.3,0.1c-0.2,0.1-0.5,0.2-1,0.3c-0.9,0.2-2.2,0.4-3.9,0.1c-1.7-0.3-3.6-1.1-5.6-2.4
			c-2-1.3-3.9-3.1-5.8-5.3c-1.9-2.2-3.6-4.8-5.2-7.8c-1.5-3-2.8-6.3-3.6-9.9c-0.8-3.6-1.2-7.4-0.5-11.3c0.3-1.9,0.9-3.9,2-5.6
			c1-1.8,2.6-3.3,4.6-4.2l1.5-0.5c0.5-0.1,1.1-0.2,1.6-0.2l1.6,0.1l1.5,0.3c2,0.5,3.8,1.4,5.4,2.5c1.6,1.1,3,2.4,4.3,3.8
			c0.6,0.7,1.3,1.4,1.8,2.2l0.8,1.1l0.8,1.2c2,3.1,3.5,6.3,4.5,9.4c1.1,3.2,1.7,6.3,2,9.2c0.2,2.9,0.1,5.6-0.3,7.9
			c-0.4,2.3-1.3,4.2-2.2,5.6c-0.3,0.3-0.4,0.7-0.7,1c-0.3,0.3-0.5,0.5-0.7,0.8c-0.5,0.4-1,0.8-1.3,1
			C654.9,380.6,654.5,380.8,654.5,380.8z M654.4,380.7c0,0,0.4-0.2,1.2-0.6c0.4-0.3,0.8-0.6,1.3-1c0.2-0.2,0.5-0.5,0.7-0.8
			c0.3-0.3,0.4-0.6,0.7-1c0.9-1.4,1.7-3.3,2.1-5.6c0.4-2.3,0.5-4.9,0.2-7.8c-0.6-5.7-2.8-12.2-6.8-18.2c-2-3-4.5-5.8-7.6-7.9
			c-1.6-1-3.3-1.9-5.1-2.4c-1.8-0.5-3.8-0.4-5.6,0.3c-1.8,0.7-3.2,2.1-4.2,3.7c-1,1.6-1.6,3.5-1.9,5.3c-0.7,3.7-0.4,7.5,0.3,11
			c1.4,7,4.6,13.2,8.2,17.6c1.8,2.2,3.8,4,5.7,5.3c1.9,1.3,3.8,2.1,5.5,2.4c1.6,0.3,3,0.2,3.8,0c0.4-0.1,0.8-0.2,1-0.3
			C654.3,380.8,654.4,380.7,654.4,380.7z"/>
	</g>
</g>
<path class="st8" d="M667.1,340.9c-1.6,0.7-3.5,0.2-5.3-1.1c-2.1-1.5-4.1-4-5.4-7.2c-1.5-3.6-1.9-7.3-1.1-9.9c0.5-1.7,1.4-3,2.8-3.6
	c3.4-1.4,8.2,2.3,10.8,8.3C671.2,333.4,670.5,339.4,667.1,340.9z"/>
<g>
	<radialGradient id="SVGID_9_" cx="662.4988" cy="329.982" r="9.5947" gradientUnits="userSpaceOnUse">
		<stop  offset="0" style="stop-color:#8997EA"/>
		<stop  offset="2.271712e-003" style="stop-color:#8996E9"/>
		<stop  offset="0.2139" style="stop-color:#6069A6"/>
		<stop  offset="0.4147" style="stop-color:#3E446F"/>
		<stop  offset="0.5991" style="stop-color:#232643"/>
		<stop  offset="0.764" style="stop-color:#101124"/>
		<stop  offset="0.9032" style="stop-color:#040511"/>
		<stop  offset="1" style="stop-color:#00000A"/>
	</radialGradient>
	<path class="st10" d="M667.1,340.9c-1.6,0.7-3.5,0.2-5.3-1.1c-2.1-1.5-4.1-4-5.4-7.2c-1.5-3.6-1.9-7.3-1.1-9.9
		c0.5-1.7,1.4-3,2.8-3.6c3.4-1.4,8.2,2.3,10.8,8.3C671.2,333.4,670.5,339.4,667.1,340.9z"/>
	<g>
		<path class="st2" d="M667.1,340.9c0,0-0.2,0.1-0.6,0.2c-0.4,0.1-1.1,0.2-1.9,0c-0.8-0.1-1.8-0.5-2.7-1.1c-1-0.6-1.9-1.5-2.9-2.5
			c-0.9-1.1-1.8-2.3-2.6-3.7c-0.8-1.4-1.4-3-1.8-4.8c-0.4-1.7-0.7-3.6-0.3-5.6c0.2-1,0.4-2,1-2.9c0.5-0.9,1.3-1.8,2.4-2.2l0.7-0.2
			c0.3-0.1,0.6-0.1,0.9-0.1l0.8,0l0.8,0.1c1,0.3,1.9,0.8,2.7,1.3c1.6,1.1,2.8,2.6,3.8,4.1c1.9,3.1,2.8,6.3,3,9.1
			c0.1,1.4,0,2.7-0.2,3.8c-0.2,1.1-0.6,2.1-1.1,2.7c-0.4,0.7-1,1.1-1.4,1.3C667.3,340.8,667.1,340.9,667.1,340.9z M667,340.8
			c0,0,0.2-0.1,0.6-0.3c0.3-0.2,0.9-0.6,1.3-1.3c0.9-1.3,1.4-3.7,1.1-6.4c-0.3-2.7-1.3-5.9-3.3-8.8c-1-1.4-2.2-2.8-3.7-3.8
			c-0.7-0.5-1.6-0.9-2.5-1.1c-0.9-0.2-1.8-0.2-2.7,0.2c-0.8,0.3-1.5,1-2,1.8c-0.5,0.8-0.7,1.7-0.9,2.5c-0.3,1.8-0.2,3.6,0.2,5.3
			c0.7,3.4,2.2,6.3,4,8.5c1.7,2.1,3.8,3.4,5.4,3.7c0.8,0.2,1.4,0.1,1.8,0C666.8,340.9,667,340.8,667,340.8z"/>
	</g>
</g>
<g>
	<radialGradient id="SVGID_10_" cx="638.6667" cy="395.6667" r="68.1175" gradientUnits="userSpaceOnUse">
		<stop  offset="0" style="stop-color:#8997EA"/>
		<stop  offset="2.271712e-003" style="stop-color:#8996E9"/>
		<stop  offset="0.2139" style="stop-color:#6069A6"/>
		<stop  offset="0.4147" style="stop-color:#3E446F"/>
		<stop  offset="0.5991" style="stop-color:#232643"/>
		<stop  offset="0.764" style="stop-color:#101124"/>
		<stop  offset="0.9032" style="stop-color:#040511"/>
		<stop  offset="1" style="stop-color:#00000A"/>
	</radialGradient>
	<path class="st11" d="M674.3,355.1c1.3-0.5,2.8-0.2,4.3,0.9c1.7,1.2,3.3,3.2,4.4,5.8c1.2,2.9,1.5,5.9,0.9,8
		c-0.4,1.4-1.1,2.4-2.2,2.9c-2.8,1.2-6.6-1.8-8.7-6.7C671,361.1,671.6,356.3,674.3,355.1z"/>
	<path class="st2" d="M674.3,355.1c0,0,0.2-0.1,0.5-0.2c0.3-0.1,0.9-0.2,1.5,0c0.7,0.1,1.4,0.4,2.2,0.9c0.8,0.5,1.6,1.2,2.3,2
		c0.8,0.8,1.5,1.9,2.1,3c0.6,1.2,1.2,2.4,1.5,3.9c0.4,1.4,0.6,3,0.3,4.6c-0.1,0.8-0.4,1.6-0.8,2.4c-0.4,0.8-1.1,1.5-2,1.9l-0.1,0
		l0,0l-0.1,0l-0.1,0l-0.3,0.1c-0.3,0-0.5,0.1-0.8,0.1l-0.7,0l-0.7-0.1c-0.9-0.2-1.6-0.6-2.3-1.1c-1.3-0.9-2.3-2.2-3.1-3.4
		c-1.5-2.5-2.2-5.2-2.4-7.4c0-1.1,0-2.2,0.2-3.1c0.2-0.9,0.5-1.7,0.9-2.2c0.4-0.6,0.8-0.9,1.1-1.1
		C674.1,355.2,674.3,355.1,674.3,355.1z M674.3,355.2c0,0-0.2,0.1-0.5,0.2c-0.3,0.2-0.7,0.5-1,1.1c-0.7,1.1-1.2,3-0.9,5.2
		c0.2,2.2,1.1,4.8,2.6,7.1c0.8,1.1,1.7,2.2,3,3.1c1.2,0.8,2.7,1.4,4.1,0.8c1.4-0.6,2.1-2.1,2.3-3.5c0.3-1.4,0.1-2.9-0.1-4.3
		c-0.6-2.7-1.8-5.1-3.2-6.8c-1.4-1.7-3.1-2.8-4.3-3c-0.6-0.1-1.1-0.1-1.5,0C674.5,355.1,674.3,355.2,674.3,355.2z"/>
</g>
<g>
	<radialGradient id="SVGID_11_" cx="403.1136" cy="319.4866" r="224.2137" gradientUnits="userSpaceOnUse">
		<stop  offset="0" style="stop-color:#8997EA"/>
		<stop  offset="0.1923" style="stop-color:#646EAF"/>
		<stop  offset="0.3966" style="stop-color:#404779"/>
		<stop  offset="0.5868" style="stop-color:#25284D"/>
		<stop  offset="0.7567" style="stop-color:#11122E"/>
		<stop  offset="0.9002" style="stop-color:#04051B"/>
		<stop  offset="1" style="stop-color:#000014"/>
	</radialGradient>
	<path class="st12" d="M619.8,369.7c-4.6-10.9-5.6-21.8-3.4-29.7C589.7,325.9,544,285.9,554,179c0,0-4.4-28.5-15.3-52.5
		c-0.5,7.6-1.8,16.6-4.7,22.8c-5.8,12.3-8.5-0.5-8.5-0.5c11.3-14-6-33-6-33c-6.3-3.5,0.5,11.5,0.5,11.5c-5.5,8.8-7.5-1.5-7.5-1.5
		c0.8-12.5-7.8-9.3-7.8-9.3c-6.5-1.8,5,32.5,5,32.5c-5.5,11.8-9.3,0.8-9.3,0.8c-1-41.5-8.3-11-8.3-11c-6,10-7.8-0.8-7.8-0.8
		s3.3-4-1.3-5s-3.8,19.8-3.8,19.8c-2,2.6-3.4,3.3-4.2,3c-1.3-0.5-1.3-4-1.3-5.6c2.1-6.4,4.4-15.2,5.4-25.7c1.3-12.5,1.9-19,0-19.9
		c-0.1,0-0.3-0.1-0.4-0.1h0c-1.6-0.1-4.9,2.8-10.8,11.3c0,0,0,0,0,0c-9,12.8-24.2,38-49.3,84.3c0,0-10.3,13-13.7-9.7
		c-0.4-2.4-0.9-6-1.8-10.4c-1.2-6.4-3-14.4-5.5-22.6c-2.2,3.5-8.4-2.3-8.4-2.3s1.7-10.7-5.7-15.3c-7.3-4.7,2,23.7,2,23.7
		c-4.3,13-9.3,1-9.3,1c3.7-46.3-7.3-26-7.3-26c-1.7,1.7,2.3,17,2.3,17c-5.3,10.7-8.3-1.7-8.3-1.7c4.7-12.3,0-19.3,0-19.3
		c-11-15.3-7,18-7,18c-5,10-6.7-1-6.7-1c2-11.3-5.7-7.3-5.7-7.3c-3,0.3-0.7,23.7-0.7,23.7c-6.7,8.7-7-2.3-7-2.3
		C343,154,337,136,337,136s-7-0.7-3.7,12.7c3.3,13.3-9,10-9,10c-3.5-5,3.1-21,6.5-28.4c-10,9.5-21.4,23.8-34.1,44.1
		C232.2,342.9,202.4,387.1,188,387.7c-1.7,0.1-11.8-0.2-16,6c-4.3,6.3-0.5,16.4,3.3,24c2,5.4,6.3,14.8,15.3,23.3
		c5.5,5.1,11.2,8.6,16.5,11c7.9,3.5,14.7,4.6,18.1,5c17.1-21,35.2-45.9,52.7-74.7c16.2-26.6,29.2-52.4,39.8-76.3
		c1.2-2.8,2.4-5.5,3.6-8.3c0,0,0,0,0,0c1.7-4,3.5-8.2,5.1-12.4c0.7-1.7,1.3-3.3,2-5c1.3-3.3,2.6-6.6,3.8-9.8
		c0.6-1.6,1.2-3.2,1.8-4.8c0,0,1.8-5.4,4.3,0.1c4,14.7,9.3,30.8,16.2,47.9c7.8,19.4,16.3,36.6,24.6,51.3c1.2,0.2,2.5,0.4,3.8,0.6
		c1.3,0.2,2.6,0.3,4,0.5c0.3,0,0.6,0.1,0.9,0.1c0.3,0,0.6,0.1,1,0.1c0.5,0,1,0.1,1.5,0.1c0,0,0,0,0,0c0.1,0,0.3,0,0.4,0
		c0.2,0,0.5,0,0.7,0.1c0.4,0,0.8,0,1.1,0.1c2.1,0.1,4.2,0.2,6.2,0.3c0.9,0,1.9,0,2.8,0c0.6,0,1.3,0,1.9,0c0.6,0,1.2,0,1.8,0
		c0.6,0,1.2,0,1.8-0.1c0.6,0,1.2,0,1.8-0.1c-0.1,0.1-0.2,0.2-0.3,0.3c2-0.1,3.9-0.2,5.8-0.3c2.5,6.2-0.6,25.1-0.6,25.1
		c1.5,4.5-2,15-2,15c3,12.8,6.8-11,6.8-11s-0.5-1.8,3.5-3.8s-1.3,47.8-1.3,47.8c8.8,16.5,12.8-1.3,12.8-1.3
		c-0.1-0.3-0.2-0.6-0.3-0.9c-6.3-20.7-4.8-78.4-4.5-87.4c5.4-11.6,9.9-21.5,13.6-29.8c10.5-23.8,14.5-35,13.8-37.5
		c6,17.3,18.2,44.5,43.3,69.5c0,0,0,0,0,0c16.4,23.7,35.7,48.6,54.8,66.1c1.2,2.6,4,10.4,4.6,26.5c0,0,0,0,0,0
		c0.6,16.8-1.3,42.6-10.1,80.9c0,0,4,18.5,14.5,1c0,0-5-23-0.5-31c0,0,8-5.5,9.5,7.5c0,0,9.5,10,9.5-4.5c0,0-19.5-25.5-12.5-31.5
		c0,0,1.3-7.6,3.8-16c1.5-5.3,3.5-10.9,5.9-15.1c1.8,0.9,3.5,1.7,5.3,2.4c7.3,2,13.5,2.6,17.3,2.8c0.4-0.4,0.8-0.7,1.3-1.1
		c0.3-0.2,0.5-0.5,0.8-0.7c0.1-0.1,0.3-0.3,0.4-0.4c0.4-0.4,0.8-0.7,1.2-1.1c2.4-2.3,4.6-4.5,6.6-6.7c0.3-0.4,0.7-0.7,1-1.1
		c0.3-0.4,0.7-0.7,1-1.1c1-1.2,2-2.3,3-3.6c0.3-0.3,0.5-0.7,0.8-1c0.2-0.3,0.4-0.5,0.6-0.8c0.3-0.3,0.5-0.7,0.8-1
		c1.4-1.8,2.7-3.7,4.1-5.6c0.4-0.5,0.7-1.1,1.1-1.6c1.4-2.1,2.8-4.4,4.1-6.7c0.4-0.6,0.7-1.3,1.1-2c2.9-5.3,5.2-10.5,7.1-15.6
		C629.9,386.9,623.9,379.3,619.8,369.7z M455.7,282.6c0,0,0,0.1,0,0.1C455.7,282.7,455.7,282.6,455.7,282.6z"/>
	<g>
		<path class="st2" d="M455.7,285.1c0,0,0,0.1,0,0.1c0-1.7,0-3.3,0-5c0,0,0,0,0-0.1c0,0.1,0,0.2,0,0.3c0,0,0,0,0-0.1
			c0,0.1,0-0.6,0-0.3c0,0.4,0,0.8,0,1.1c0,1.1,0,2.3,0,3.4c0,0.2,0,0.3,0.1,0.5c0-0.1,0-0.7,0-0.7c0-0.6,0-1.2,0-1.8
			c0-0.6,0-1.2,0-1.8c0-0.2,0-0.5,0-0.7c0,0,0-0.1,0-0.1c0,0.2,0,0.6,0,0.7c0,0.6,0,1.2,0,1.8c0,0.6,0,1.2,0,1.8
			C455.7,284.6,455.6,284.9,455.7,285.1z"/>
		<path class="st2" d="M619.8,367.2c-3.2-7.8-5.5-16.3-3.4-24.7c0.1-0.5,0.3-4.8,0-5c-23.7-12.6-41-34-51.1-58.6
			c-8.4-20.6-11.9-42.9-12.6-65c-0.3-9.9,0.2-19.8,1-29.6c0.2-2.5,0.5-5.2,0.2-7.7c-0.6-6.4-2.5-13.1-4.1-19.3
			c-1.9-7.5-4.1-14.8-6.7-22.1c-0.4-1-4.2-11.3-4.5-11.2c-0.4,0.1-1.1,10.1-1.3,11.1c-0.6,3.7-2.7,16.7-7.8,16.9
			c-2.5,0.1-3.6-3.9-4-5.8c0,1.7,0,3.3,0,5c8.1-10.9,3-26.7-4.6-36.3c-0.7-0.9-2.1-3-3.5-2.1c-1.1,0.7-0.6,3.8-0.6,4.8
			c0,4.3,1.4,8.2,3.2,12.1c0-1.7,0-3.3,0-5c-3.3,4.7-6.4,3.8-7.5-1.5c0,1.6,0,3.3,0,4.9c0.1-4.6,1.4-13.8-4.9-14.5
			c-4.1-0.5-4.8,1.5-4.9,5.2c-0.1,11.2,3.5,22.2,7,32.7c0-1.7,0-3.3,0-5c-1.7,3.4-4.7,7.8-8,3.3c-2.5-3.4-1.4-8.5-1.7-12.5
			c-0.1-1.7-0.3-13.8-4-11.3c-2.3,1.6-2.7,6.8-3.6,9.2c-0.7,1.9-2.4,5.3-4.7,5.2c-2.2-0.1-3-3.3-3.3-5c0,1.7,0,3.3,0,5
			c1.4-1.8,1.6-5.3,1.1-7.5c-0.3-1.4-1.4-3.1-3.2-2.5c-1.5,0.5-1.9,3.2-2.2,4.5c-1.3,6.5-1,13.5-0.8,20.1c0-1.6,0-3.3,0-4.9
			c-1.4,1.6-5.5,5.2-5.5,0.5c0,0.6,0,1.2,0,1.8c3.5-10.8,5.2-21.9,6.2-33.2c0.4-4.6,1.3-10.4,0.4-15.1c-1.3-6.3-7.7,2.8-9.2,4.7
			c-3.5,4.6-6.7,9.4-9.8,14.3c-9.2,14.5-17.7,29.4-26.1,44.4c-2.8,4.9-5.5,9.9-8.2,14.8c-2.7,4.9-4.9,10.7-8.3,15.1
			c-1.6,2.1-4.7,4.3-7.4,3.4c-3.2-1.1-4.5-5.6-5.2-8.4c-1.5-6-2-12.2-3.3-18.2c-0.7-3.4-1.5-6.8-2.3-10.2c-0.3-1.2-0.6-2.4-1-3.7
			c-0.3-1.2-0.7-2.5-1-3.7c0-2-0.4-2.4-1.1-1.2c-0.1,0-1.4,0.5-1.5,0.5c-1,0.1-2.1-0.5-3-1c-1.2-0.7-2.4-1.5-3.4-2.5
			c0,1.7,0,3.3,0,5c0.5-3.5,0.5-7.5-0.1-10.9c-0.5-3.1-2.5-8.8-6-9.7c-1.9-0.4-2.1,0.5-2.3,2.2c-1.1,8.9,2.1,18.4,4.8,26.7
			c0-1.7,0-3.3,0-5c-0.9,2.6-2.8,7.7-6.3,5.4c-1.4-0.9-2.4-2.8-3-4.4c0,1.7,0,3.3,0,5c0.7-9.3,1.5-19.2,0.4-28.6
			c-0.3-2.7-1.2-8.8-5-5.9c-1.8,1.4-2.9,3.6-3.1,5.7c-0.6,6.6,1.1,13.5,2.8,19.8c0-1.7,0-3.3,0-5c-1.3,2.4-3.5,6.1-6.2,3.2
			c-1.2-1.2-1.8-3.2-2.2-4.8c0,1.7,0,3.3,0,5c2.2-6.3,3.2-14.5,1.3-21.1c-0.8-2.7-5-10.2-7.8-5.9c-2.2,3.4-1.3,10-1.2,13.9
			c0,3.9,0.3,7.8,0.7,11.7c0-1.7,0-3.3,0-5c-1.1,2-2.9,5.7-5.2,3.2c-0.9-1-1.2-2.9-1.5-4.2c0,1.7,0,3.3,0,5c0.4-3,1.7-10.2-1-12.3
			c-2.7-2.2-5.5,0.2-6,2.8c-1.5,8.2-0.2,17.6,0.6,25.9c0-1.7,0-3.3,0-5c-1.4,1.7-3.8,4.7-5.8,2.3c-0.9-1.1-1.1-3.2-1.1-4.6
			c0,1.6,0,3.3,0,4.9c4.5-8.3,3.9-19.9,2-28.9c-0.4-1.9-0.2-5.5-2.5-5.3c-2.9,0.2-3.4,4.3-3.5,6.4c-0.1,1.7-0.1,3.4,0,5
			c0.1,2.5,1.1,5,1.2,7.5c0-1.5-0.2,0.8-0.6,1.4c-0.5,0.7-1.1,1.3-1.8,1.7c-1.3,0.8-3,0.9-4.5,0.8c-0.5,0-1.9,0-2.3-0.3
			c-0.6-0.5-0.7-1.5-0.9-2.2c-0.1,1.5-0.1,1.4,0.1,0c0.1-0.8,0.3-1.6,0.4-2.4c1.4-6.5,4.1-12.8,6.8-18.9c0.5-1-0.8-4.3,0-5
			c-8.5,8.2-16,17.5-22.8,27.1c-4.4,6.2-9.7,12.7-12.4,19.7c-2.9,7.5-5.7,14.9-8.7,22.3c-9.9,25.2-20,50.3-30.7,75.2
			c-12.8,29.7-25.9,60-43.1,87.5c-4.1,6.6-8.6,13.3-14,18.9c-2.7,2.8-6.1,5.9-10.2,6.6c-6.6,1.1-14.6,0.4-17.8,7.8
			c-3.1,7.1-0.3,17.3,2.6,23.7c5.2,11.7,10.8,22.3,21.1,30.4c5.5,4.3,11.8,7.6,18.5,9.8c2.8,0.9,5.7,1.6,8.6,2.2
			c0.7,0.1,2.3,0.7,3,0.5c1.3-0.4,2.5-2.5,3.5-3.7c18.9-23.6,36.2-48.4,51.7-74.3c8.3-13.8,16-27.9,23.2-42.3
			c3.3-6.6,6.5-13.2,9.6-19.9c1.4-3.1,2.8-6.2,4.2-9.3c1.3-3,3.7-6.6,4.3-9.9c0.2-1.2,0.4-3.9,0-5c0,1.7,0,3.3,0,5
			c3.4-7.9,6.6-15.9,9.7-23.9c0.7-1.9,3-13,6.5-9.3c2.1,2.2,2.7,8.2,3.5,11c1.2,3.9,2.4,7.8,3.7,11.7c2.7,8,5.5,16,8.6,23.8
			c6.1,15.6,13.1,30.8,21,45.5c0.8,1.5,1.5,2.9,2.3,4.3c0.5,0.9,1,1.9,1.6,2.8c0.3,1.4,1.2,2,2.7,1.7c2.7,0.9,6.4,0.8,9.3,1.1
			c6.2,0.5,12.3,0.6,18.5,0.3c0-1.7,0-3.3,0-5c-0.1,0.1-0.2,0.2-0.3,0.3c-0.4,0.3,0.2,5,0,5c1.8-0.1,5-0.8,6,0.4
			c0.6,0.7,0.5,2.6,0.6,3.5c0.2,3-0.2,6-0.5,9c-0.3,2.6-0.8,5.1-0.9,7.7c-0.1,1.3,0,2.6,0,3.9c0,0.4,0.2,0.9,0.2,1.2
			c0-2-0.4,2.3-0.5,2.8c-0.6,2.8-1.6,5.4-1.7,8.2c0,1.4-0.2,6.6,1.8,6.9c2,0.3,2.9-4.9,3.3-6.3c1.1-4.2,2.4-9.1,1.7-13.6
			c0,1.6,0,3.3,0,4.9c0-1.2,2.7-4.1,3.7-3.6c0.6,0.3,0.5,0.7,0.8,1.2c1.4,2,0.4,7.3,0.3,9.5c-0.4,8.2-1.1,16.5-1.8,24.7
			c-0.3,3.6-1.3,7.8-0.7,11.4c0.4,2.7,3.7,8.4,7.2,8c2.7-0.3,4.1-3.8,4.9-6c1.7-4.7-0.1-9.1-1-13.7c-2-10.2-2.6-20.8-3-31.2
			c-0.5-11.8-0.6-23.7-0.3-35.5c0.1-3-0.2-6.2,0.2-9.1c0.4-2.9,2.3-5.8,3.5-8.6c1.7-3.6,3.3-7.2,4.9-10.8c5.9-13,12-26,16.7-39.5
			c1.5-4.4,3.2-9.7,2.2-14.4c0,1.7,0,3.3,0,5c5.4,15.5,12.7,30.2,22,43.8c6,8.8,12.9,16.6,20.1,24.4c7,7.5,12.3,17,18.6,25.2
			c6.6,8.7,13.5,17.2,20.9,25.3c3.5,3.9,7,7.6,10.7,11.3c2.4,2.4,5.6,4.4,6.8,7.6c4.8,13.2,4.3,25.9,3.4,39.6
			c-1.3,18.9-4.5,37.7-8.6,56.2c-0.8,3.5-1.6,6.9-0.9,10.5c0.6,2.9,2.7,7.8,6.3,7.8c5.1-0.1,8.3-6.9,8-11.3c-0.2-3.3-1.1-6.6-1.5-10
			c-0.4-2.9-0.9-7.3-0.8-9.2c0.1-2.1,0.2-6.6,1.9-8.2c3.3-3,7.3,0.1,8.5,3.4c0.9,2.5,0.4,4,2.5,5.6c1.3,1,3.2,2.4,5,1.9
			c3.3-0.9,3.9-9.7,3-12.7c-1-3-4.4-6.2-6.1-9c-2.9-4.6-7.9-11.5-7.9-17.2c0,1.1,0,2.1,0,3.2c0.2-2,1.3-3.5,1.8-5.3
			c1.3-4.7,2.1-9.6,3.5-14.3c0.9-2.9,1.8-5.9,2.9-8.7c0.5-1.3,1-2.5,1.6-3.7c1.2-2.6,0.6-2.5,3.1-1.8c3,0.7,5.7,2.1,8.8,2.7
			c2.7,0.5,5.4,0.9,8.1,1.2c2.6,0.3,3.6,0.6,5.6-1.2c2.1-1.9,4.1-3.9,6.1-5.9c3.6-3.8,7-7.7,10.2-11.9c7.1-9.4,12.7-19.8,16.9-30.9
			c0.2-0.5,0.3-4.8,0-5C628.6,383.4,623.5,375.6,619.8,367.2c0.6,1.4-0.6,3.6,0,5c3.7,8.4,8.8,16.2,16.3,21.7c0-1.7,0-3.3,0-5
			c-5.1,13.4-12.3,25.8-21.6,36.8c-2.4,2.8-4.9,5.5-7.5,8c-2.2,2.1-4.4,5.1-7.3,5.3c-2.8,0.2-6.1-0.6-8.9-1.1c-2-0.4-4-0.7-6-1.3
			c-1.1-0.3-5.3-2.9-6.2-2.6c-1.6,0.5-3.6,7.9-4.1,9.5c-1.3,3.8-2.4,7.7-3.4,11.6c-0.7,2.7-1.2,5.5-1.8,8.3c-0.3,1.4-0.8,1.8-1.3,3
			c-2,4.7-0.2,11.6,1.7,16c3,6.8,7.2,13.3,11.8,19.2c0-1.6,0-3.3,0-4.9c-0.1,2.9-0.3,8.3-4.5,7.7c-1.5-0.2-4-1.8-4.9-3.1
			c-1.8-2.7-0.5-7.2-4.6-8.6c-1.4-0.5-3.9-0.2-5,0.9c-3.2,3.3-2,12.8-1.9,17.1c0.2,6.3,1,12.7,2.4,18.9c0-1.7,0-3.3,0-5
			c-2.2,3.5-6.7,10.4-11.2,6.1c-1.8-1.7-2.8-4.7-3.3-7.1c0,1.7,0,3.3,0,5c4.5-19.9,8.2-40.1,9.6-60.5c0.4-6.1,0.6-12.2,0.6-18.3
			c0-2.1,0-4.1-0.1-6.2c0.2,3.5,0,0.2,0-0.6c-0.1-2.5-0.2-5-0.4-7.5c-0.5-5.8-0.9-13.9-4-19.1c-1.1-1.8-3.5-3.4-4.9-4.8
			c-2-2-4-4-6-6c-4.1-4.3-8-8.7-11.9-13.1c-8-9.3-15.5-19.1-22.7-29c-3.2-4.4-6-9.3-9.5-13.4c-3.9-4.7-8.4-8.8-12.3-13.5
			c-13.6-16.6-24-35.7-31.1-56c0.5,1.5-0.3,3.5,0,5c0.1,0.3,0.8-5.2-0.1-2.9c-0.2,0.5-0.2,1.2-0.4,1.7c-0.5,1.9-1.1,3.8-1.7,5.6
			c-2.2,6.2-4.7,12.2-7.3,18.2c-3.2,7.4-6.5,14.7-9.8,22.1c-1.8,3.9-3.6,7.8-5.4,11.7c-1.1,2.4-2.5,4.7-2.8,7.3
			c-0.9,7.8-0.3,16-0.4,23.8c0,10.9,0.1,21.9,0.6,32.8c0.6,11.7,1,24.1,4.6,35.4c0-1.7,0-3.3,0-5c-0.5,2.3-1.4,5.1-3.1,6.8
			c-4.1,4.2-7.8-2.3-9.7-5.6c0,1.7,0,3.3,0,5c1.3-12.4,2.5-24.8,2.7-37.3c0.1-2.8,0.1-5.7,0-8.5c0-1.6,0.3-4.6-0.5-6
			c-1.3-2.2-3.9,0.4-4.5,2.4c-0.4,1.4-0.2,3.9,0,5.4c0-1.7,0-3.3,0-5c-0.6,3.5-1.2,6.9-2.3,10.3c-1.3,4.1-3.1,6.2-4.5,0.7
			c0,1.7,0,3.3,0,5c2-6,3.6-13.7,2-20c0,1.7,0,3.3,0,5c0.9-5.6,1.5-11.3,1.6-17c0-2.3,0.1-4.5,0-6.8c0-1.3-0.1-2.7-0.3-4.1
			c-0.1-0.4-0.2-2-0.6-2.3c-0.6-0.5-5,0.3-5.8,0.3c0,1.7,0,3.3,0,5c0.1-0.1,0.2-0.2,0.3-0.3c0.4-0.3-0.2-5,0-5
			c-7,0.3-14,0.2-20.9-0.5c-1.7-0.2-3.3-0.4-4.9-0.6c-3.3-0.5-3.8-0.5-5.3-3.4c-1.9-3.4-3.7-6.8-5.5-10.2
			c-8.8-17.1-16.5-34.7-23.1-52.7c-3.1-8.4-5.9-16.9-8.4-25.5c-0.5-1.8-1.8-10.4-4.3-10.4c-1.8,0-2.3,2.7-2.8,4
			c-3.1,8.4-6.4,16.8-9.9,25.2c-1.1,2.7-3.5,7.1-2.2,10.3c0-1.7,0-3.3,0-5c-15,35.2-32.9,69-53.7,101.1
			c-10.1,15.6-20.8,30.7-32.2,45.4c-2.5,3.3-5.1,6.5-7.6,9.7c-1.1,1.3-1.8,2.8-3.4,3c-1.5,0.2-3.7-0.6-5.2-0.9
			c-8.3-1.8-16.3-5.3-23.1-10.4c-7.5-5.5-13.6-12.8-17.8-21c-3.6-7.1-8.2-15.7-8.2-23.8c0,1.4,0,2.8,0,4.3c0.6-7.4,6-11.1,12.9-12.1
			c2.1-0.3,4.3-0.1,6.4-0.5c2.3-0.5,4.4-1.9,6.3-3.4c7.2-5.8,12.5-14.2,17.3-21.9c9.4-15,17.3-31,24.9-47
			c12.3-26,23.6-52.6,34.4-79.3c3.9-9.6,7.7-19.1,11.5-28.7c4.2-10.5,7.6-21.6,12.4-31.9c4.3-9.4,11.7-18.2,18-26.4
			c5.1-6.6,10.5-12.9,16.5-18.6c0-1.7,0-3.3,0-5c-3.3,7.3-7,15.3-7.5,23.4c-0.1,2.3-0.9,8.7,1.3,10.1c3.2,2,8.2-0.8,9.1-4
			c0.5-1.8,0.3-3.9,0.2-5.8c0-2.8-1.5-6.1-1.5-8.4c0,0.4,0,0.8,0,1.2c0.1-1.8,1.1-6,3.7-5.7c1.6,0.2,1.4,2,1.8,3.5
			c0.5,2.3,0.9,4.5,1.2,6.8c0.1,1,0.2,2.1,0.3,3.1c0-0.6,0.2-2.1-0.1,0.5c-0.2,1.8-0.4,3.6-0.9,5.3c-0.5,1.9-1.8,3.7-2.1,5.5
			c-0.2,1.1,0,2.6,0,3.7c0.1,1.6,0,3.8,1,5.1c2,2.8,5.5-0.4,6-2.8c1.2-5.1-0.8-11.6-0.8-16.7c0-2.2-0.2-5.2,1.9-6.4
			c3-1.7,5.2,0.6,5.6,3.5c0-0.4,0-0.8,0-1.2c0,0.4,0,0.8,0,1.1c0-1.3,0-2.5,0-3.8c-0.2,2-1.2,16.5,4.2,12.1
			c3.9-3.2,1.8-10.8,1.6-15.1c-0.2-4.1,0.9-15.2,7-7c2.5,3.4,2.8,7.5,1.7,11.6c-0.8,2.9-1.7,5.5-1.1,8.6c0.4,2.1,2,6.3,4.6,5.8
			c3.7-0.6,4-5.9,3.7-8.7c-0.3-3-1.3-6-1.9-8.9c-0.2-1.1-0.2-2.4-0.6-3.5c-0.7-2,0.2-0.1-0.2,0.5c0.1-0.2,0.1-0.5,0.3-0.7
			c0.1-0.1,0.2-0.4,0.3-0.6c1.1-1.4,2.7-4.7,5-3.7c1.7,0.7,2,4,2.3,5.6c1,6.7,0,13.5-0.3,20.2c-0.1,2.2-0.3,4.1,0.8,6
			c2.5,4.7,6,3.9,7.9-0.9c2.1-5.1-0.7-10.6-2-15.5c-0.6-2.1-1.1-4.3-1.5-6.5c-0.2-0.9-0.4-1.9-0.5-2.8c-0.1-0.5-0.1-1-0.1-1.4
			c-0.1-1.5-0.1-0.9,0,2c0-0.1,0.1-0.3,0.1-0.4c0.1,0,0.9-1.1,1.7-1.1c2.3,0.1,4.6,4,5.3,5.8c0.5,1.2,0.7,2.4,1,3.6
			c0.1,0.2,0.3,2.3,0.2,1.1c-0.1-0.8,0-0.2,0,0c0,0.9-0.1,1.9-0.1,2.8c0,3.1,2.1,5.4,5.6,5.9c0.9,0.1,2.1-0.8,2.6-0.7
			c0.8,0.1,1.5,3.8,1.9,5.3c1.2,4.6,2.3,9.2,3.3,13.9c1.4,7,1.6,15.1,4.4,21.7c2.4,5.8,7.8,6.5,11.5,1.5c1.9-2.5,3.2-5.9,4.7-8.6
			c2.2-4,4.4-7.9,6.5-11.9c3.8-6.9,7.7-13.8,11.6-20.6c5.7-10.1,11.6-20.1,17.7-29.9c4.7-7.4,9.4-15.6,15.5-21.9c2-2,3.8-4,5.4-1.2
			c0.6,1.1,0.2-0.1,0.2,1.4c-0.1,2-0.3,4.1-0.5,6.1c-0.4,4.7-0.9,9.3-1.7,14c-1,6.1-3.6,12-4.4,18c-0.2,1.7-0.7,8.7,0.7,9.8
			c1.7,1.3,4.2-1.1,4.8-2.7c0.4-1.1,0-2.9,0-4.1c0-3.5,0.1-7.1,0.7-10.5c0.2-1.2,0.5-3.8,1.7-4.5c1.5-0.9,3.3,0.1,3.7,1.8
			c0-1.7,0-3.3,0-5c-0.1,1.4-0.9,2.4-1.2,3.8c-0.2,1.3-0.1,3,0.1,4.3c0.9,5.6,5.4,5.8,7.7,0.3c0.8-1.8,2.3-11.8,5.4-10.5
			c5.1,2.2-1.2,29.7,8.4,25.9c3.8-1.5,4.3-7,3.7-10.4c-0.7-3.9-2.5-7.8-3.5-11.6c-0.7-2.7-1.4-5.4-2-8.1c-0.3-1.4-0.6-2.8-0.8-4.3
			c-0.1-0.5-0.1-1.1-0.2-1.6c-0.6-2.8,0.3,0.2-0.2,0.3c0.2-0.1,0.1-1.4,0.6-1.6c0.5-0.2,0.9-0.2,1.3-0.4c1-0.4,2.3-0.5,3.4-0.3
			c2.5,0.5,3,2.3,4,4.3c0.9,1.8,0.2-0.6,0.3,1.4c0.1,1-0.1,2,0,3c0.4,3.6,2.6,7.9,6.2,4c2.3-2.5,1.5-6.1,0.4-8.9
			c-0.2-0.6-1.9-6.8-2.1-6.8c0,0.9,0,1.8,0,2.7c0-0.2,0.2-0.4,0.3-0.5c0,0,0.7-0.4,1-0.2c0.5,0.3,1.1,0.5,1.5,0.8
			c3.8,2.8,6.7,9.8,8.1,14c1.2,3.7,1.4,6.7-0.3,10.3c-1.4,2.8-2.2,3.4-2.1,6.5c0.1,2.8,1.4,9.2,5.2,7.1c3.7-2,5.2-9.5,6-13.2
			c0.7-3.2,1.2-6.4,1.5-9.6c0.1-1,0.1-2.2,0.3-3.2c0.7-3.1,0.9,0.2,1.5,1.6c6.7,15.6,11.3,32.5,14,49.3c0-1.7,0-3.3,0-5
			c-4.8,52.4-0.1,113.7,41.5,151.2c6.3,5.7,13.4,10.7,20.9,14.7c0-1.7,0-3.3,0-5c-2.8,11.3-0.9,24.1,3.4,34.7
			C619.2,370.7,620.4,368.6,619.8,367.2z"/>
	</g>
</g>
<linearGradient id="SVGID_12_" gradientUnits="userSpaceOnUse" x1="492.0388" y1="80.9953" x2="507.5332" y2="80.9953">
	<stop  offset="0" style="stop-color:#34FFEA"/>
	<stop  offset="0.9027" style="stop-color:#33FDE9;stop-opacity:0.9989"/>
	<stop  offset="0.9839" style="stop-color:#33FCE8;stop-opacity:0.9988"/>
</linearGradient>
<path class="st13" d="M496.5,92.3c0-1.4,0.1-3.4,1.1-5.5c2.1-4.4,6.4-6.5,8.1-7.2c3.2-3.4,1.5-7.9-1.5-9.2c-2.6-1.1-6.8-0.4-9.1,2.5
	C495.2,72.7,487.3,86.9,496.5,92.3z"/>
<linearGradient id="SVGID_13_" gradientUnits="userSpaceOnUse" x1="511.0264" y1="83.8028" x2="526.7832" y2="83.8028">
	<stop  offset="0" style="stop-color:#34FFEA"/>
	<stop  offset="0.9027" style="stop-color:#33FDE9;stop-opacity:0.9989"/>
	<stop  offset="0.9839" style="stop-color:#33FCE8;stop-opacity:0.9988"/>
</linearGradient>
<path class="st14" d="M512.5,91.9c0.4-1.1,1.2-2.6,2.7-3.9c3-2.7,7-2.9,8.6-2.9c3.6-1.6,3.7-5.5,1.8-7.6c-1.6-1.7-5.1-2.5-7.8-1
	C517.8,76.5,507.2,84.8,512.5,91.9z"/>
<g>
	<g>
		<path class="st2" d="M353.5,266.5c3-5.6,9.5-13.2,16.5-9.7c3,1.5,3.3,3.8,4.1,6.9c1.6,5.5,3,11.6,3,17.4c-0.1,6.5-4,12.5-2.1,19
			c0.9,3.1,3.8,13,8.5,11.5c3.9-1.3,5.8-9.9,6.3-13.1c0.3-1.9,0.5-4,0.2-6c-0.8-5.2-2.8-10.5-4-15.6c-0.9-3.7-1.7-7.4-2.3-11.2
			c-0.2-1.5-0.3-3.1-0.6-4.6c-0.4-2,0.1,2.4,0,2.4c0,0,0.1-0.5,0.1-0.5c0,0,0.3-0.9,0.5-0.8c2.3,0.9,3.7,3.7,6.1,4.5
			c3.3,1.1,4.6-2.4,5.3-5c0.6-2.8,0.4-3.8,3.3-5.3c5.9-3,5.1,4.1,8.7,6.3c5.6,3.5,16.1-2.4,21-5.1c0.7-0.4-0.7-4.6,0-5
			c-4.9,2.8-15.8,8.8-21.3,5c-3.4-2.4-2.8-9.3-8.7-6c-2.9,1.6-2.3,2.8-3.1,5.7c-1.2,4.3-3.8,6.1-7.5,2.7c-1.4-1.3-3-4.4-4.2-1.7
			c-0.8,1.8-0.2,5.2-0.1,7.1c0.2,3.5,0.9,7.1,1.6,10.5c1.5,7.3,3.3,14.5,5.4,21.6c0-1.7,0-3.3,0-5c-0.9,3.5-4.5,19.5-10.6,12.3
			c-2.6-3-3.9-7.5-4.9-11.3c0,1.7,0,3.3,0,5c4.9-12.4,3.1-28.2-0.6-40.7c-0.4-1.3-0.6-3.2-1.4-4.3c-1.8-2.6-6.2-3.1-8.9-2.1
			c-4.4,1.6-7.9,6.1-10.1,10.1C352.8,262.8,354.2,265.2,353.5,266.5L353.5,266.5z"/>
	</g>
</g>
<g>
	<path class="st2" d="M203.2,434.8c0,0,0.6,0.7,1.8,1.8c1.2,1.1,2.8,2.8,4.9,4.6c2.1,1.8,4.7,3.9,7.6,5.5c1.5,0.8,3.2,1.6,4.8,1.6
		c0.8,0,1.5-0.3,2.3-0.8c0.7-0.5,1.4-1.1,2-1.8c1.3-1.3,2.5-2.8,3.6-4.2c1.1-1.5,2.2-2.9,3.2-4.4c2-2.9,3.8-5.6,5.3-8
		c3-4.8,4.8-8,4.8-8s-1.7,3.3-4.6,8.2c-1.4,2.4-3.1,5.3-5,8.2c-1,1.5-2,3-3,4.5c-1.1,1.5-2.2,3-3.5,4.4c-0.6,0.7-1.3,1.4-2.1,2
		c-0.2,0.2-0.4,0.3-0.6,0.4l-0.3,0.2c-0.1,0.1-0.3,0.1-0.4,0.2c-0.3,0.1-0.5,0.2-0.8,0.2c-0.3,0.1-0.5,0.1-0.8,0.1
		c-2.1,0-3.9-0.8-5.5-1.5c-3.2-1.7-5.9-3.7-8.1-5.4c-2.2-1.8-4-3.4-5.2-4.5c-1.2-1.1-1.9-1.8-1.9-1.8L203.2,434.8z"/>
</g>
<g>
	<path class="st2" d="M210.7,433.6c0,0,0.4,0.4,1.1,1.1c0.7,0.7,1.7,1.7,2.9,2.8c1.3,1.1,2.8,2.3,4.5,3.4c0.9,0.5,1.9,0.9,2.8,0.9
		c0.2,0,0.4,0,0.6-0.1c0,0,0.1,0,0.1,0l0.2-0.1l0.4-0.2c0.3-0.1,0.4-0.3,0.6-0.5c0.2-0.2,0.4-0.3,0.6-0.5c0.8-0.8,1.5-1.6,2.2-2.5
		c0.7-0.9,1.3-1.8,1.9-2.6c1.2-1.7,2.3-3.4,3.2-4.8c1.8-2.9,3-4.8,3-4.8s-1,2-2.7,5c-0.8,1.5-1.8,3.2-3,5c-0.6,0.9-1.2,1.8-1.8,2.8
		c-0.6,0.9-1.3,1.8-2.1,2.7c-0.4,0.4-0.9,0.9-1.3,1.3l-0.3,0.2l-0.2,0.1c-0.2,0.1-0.2,0.1-0.3,0.1c-0.3,0.2-0.7,0.2-1,0.2
		c-1.3,0-2.4-0.5-3.4-0.9c-2-1-3.6-2.2-5-3.3c-1.4-1.1-2.4-2-3.2-2.7c-0.7-0.7-1.2-1.1-1.2-1.1L210.7,433.6z"/>
</g>
<g>
	<path class="st2" d="M551.8,540.5c1,0.3,2.1,0.6,3.1,0.8c1.1,0.2,2.1,0.4,3.2,0.5c2.1,0.2,4.3,0.3,6.4-0.1c0.5-0.1,1-0.2,1.5-0.4
		c0.5-0.1,1-0.3,1.4-0.6c0.5-0.2,0.9-0.5,1.3-0.8c0.2-0.2,0.4-0.3,0.6-0.5l0.5-0.6c0.3-0.4,0.6-0.8,0.8-1.3c0.1-0.2,0.2-0.5,0.3-0.7
		c0.1-0.2,0.2-0.5,0.2-0.7l0.2-0.8l0.1-0.8c0.1-0.5,0-1.1,0.1-1.6l0,0.2c-1.6-4.3-3.1-8.6-4.5-12.9c-0.7-2.2-1.3-4.4-1.7-6.6
		c-0.2-1.1-0.4-2.2-0.5-3.4c0-0.6,0-1.1,0-1.7c0.1-0.6,0.2-1.2,0.7-1.5c-0.5,0.3-0.6,0.9-0.7,1.5c-0.1,0.6,0,1.1,0,1.7
		c0.1,1.1,0.4,2.2,0.6,3.3c0.5,2.2,1.2,4.4,2,6.5c1.5,4.3,3.1,8.5,4.9,12.7l0,0.1l0,0.1c0,0.6,0.1,1.1,0,1.7l-0.1,0.9
		c0,0.3-0.1,0.6-0.2,0.9c0,0.3-0.1,0.6-0.2,0.9c-0.1,0.3-0.2,0.6-0.3,0.8c-0.2,0.6-0.5,1.1-0.9,1.6l-0.6,0.7
		c-0.2,0.2-0.4,0.4-0.7,0.6c-0.5,0.4-1,0.7-1.5,1c-0.5,0.3-1.1,0.5-1.6,0.7c-0.6,0.2-1.1,0.4-1.7,0.5c-2.3,0.5-4.6,0.5-6.9,0.4
		c-1.1-0.1-2.3-0.2-3.4-0.4c-1.1-0.2-2.2-0.4-3.4-0.7L551.8,540.5z"/>
</g>
<radialGradient id="SVGID_14_" cx="604.5" cy="349" r="0" gradientUnits="userSpaceOnUse">
	<stop  offset="0" style="stop-color:#3497EA"/>
	<stop  offset="0.1847" style="stop-color:#266FB2"/>
	<stop  offset="0.3909" style="stop-color:#19487C"/>
	<stop  offset="0.5829" style="stop-color:#0E2950"/>
	<stop  offset="0.7544" style="stop-color:#061231"/>
	<stop  offset="0.8993" style="stop-color:#02051E"/>
	<stop  offset="1" style="stop-color:#000017"/>
</radialGradient>
<path class="st15" d="M604.5,349"/>
<g>
	<g>
		<path class="st2" d="M610.5,344.5c-4.1,18.1-3.4,46,17,53.5c-0.5-0.2,0.6-4.8,0-5c-17.5-6.5-20.6-27.3-17-43.5
			C610.9,347.9,610.1,346.1,610.5,344.5L610.5,344.5z"/>
	</g>
</g>
<g>
	<path class="st2" d="M612.5,399c0,0-1.7-2.4-4-6.3c-2.2-3.8-4.9-9.2-6.7-14.9c-0.5-1.4-0.8-2.9-1.2-4.3c-0.3-1.4-0.5-2.9-0.7-4.3
		c-0.1-0.7-0.1-1.4-0.1-2.1c0-0.7,0-1.3,0.1-2c0.1-1.3,0.3-2.5,0.6-3.6c0.1-0.6,0.3-1.1,0.5-1.5c0.2-0.5,0.4-0.9,0.6-1.3
		c0.4-0.8,0.8-1.5,1.2-2c0.4-0.5,0.7-0.9,0.9-1.2c0.2-0.3,0.3-0.4,0.3-0.4l0.1,0.1c0,0-0.1,0.2-0.3,0.4c-0.2,0.3-0.5,0.7-0.8,1.3
		c-0.3,0.6-0.7,1.2-1,2.1c-0.2,0.4-0.3,0.8-0.5,1.3c-0.1,0.5-0.3,1-0.4,1.5c-0.2,1.1-0.4,2.2-0.4,3.5c0,0.6,0,1.3,0,1.9
		c0,0.7,0,1.3,0.1,2c0.1,1.4,0.3,2.8,0.6,4.2c0.3,1.4,0.6,2.8,1,4.3c1.6,5.7,4.2,11,6.2,14.9C611,396.5,612.6,398.9,612.5,399
		L612.5,399z"/>
</g>
<g>
	<path class="st2" d="M333.6,171c0.9,2.4,1.7,4.7,2.7,6.9c0.2,0.6,0.5,1.1,0.8,1.6l0.4,0.8l0.5,0.7c0.3,0.5,0.6,0.9,1,1.3
		c0.4,0.4,0.8,0.7,1.3,0.8c0.2,0,0.5,0.1,0.8,0.1c0.3,0,0.5-0.1,0.8-0.1c0.5-0.2,1.1-0.5,1.5-0.9c0.2-0.2,0.5-0.4,0.7-0.6
		c0.2-0.2,0.4-0.4,0.6-0.7c0.4-0.5,0.7-1,1-1.5c0.3-0.5,0.6-1.1,0.9-1.6c0.3-0.6,0.5-1.1,0.8-1.7l1.4-3.4l0,0.7l-0.7-2.2
		c-0.2-0.7-0.5-1.5-0.7-2.2c-0.2-0.8-0.4-1.5-0.6-2.3c-0.2-0.8-0.3-1.5-0.5-2.3c-0.3-1.5-0.5-3.1-0.6-4.7c0-0.8-0.1-1.6,0-2.4
		c0-0.4,0.1-0.8,0.2-1.2c0.1-0.4,0.2-0.8,0.6-1.1l0.1,0.2c-0.2,0.3-0.2,0.6-0.2,1c0,0.4,0.1,0.7,0.1,1.1c0.1,0.7,0.3,1.5,0.5,2.2
		c0.4,1.5,0.8,3,1.2,4.4l0.6,2.2c0.2,0.7,0.4,1.5,0.6,2.2l1.1,4.5l0.1,0.4l-0.1,0.3l-0.9,1.7c-0.3,0.6-0.6,1.1-1,1.6
		c-0.3,0.5-0.7,1.1-1.1,1.6c-0.4,0.5-0.7,1-1.1,1.5c-0.4,0.5-0.8,1-1.2,1.5c-0.2,0.3-0.4,0.5-0.6,0.7c-0.2,0.2-0.4,0.5-0.7,0.7
		c-0.5,0.4-1,0.9-1.6,1.2c-0.6,0.3-1.3,0.5-2.1,0.5c-0.7-0.1-1.5-0.4-2.1-0.8c-0.6-0.4-1.1-0.9-1.5-1.5c-0.4-0.6-0.7-1.1-1-1.7
		c-0.3-0.6-0.5-1.2-0.8-1.8c-0.4-1.2-0.7-2.5-1-3.7c-0.2-1.3-0.4-2.5-0.3-3.8L333.6,171z"/>
</g>
<g>
	<g>
		<path class="st2" d="M407,210c1.5,3.6,5,6,8.9,4.9c5.1-1.4,9-6.8,11.8-10.9c7.6-10.9,12.8-23.4,17.7-35.6c0.6-1.4-0.6-3.6,0-5
			c-4.9,12.2-10.2,24.7-17.7,35.6c-2.9,4.1-6.7,9.4-11.8,10.9c-3.9,1.1-7.5-1.4-8.9-4.9C407.6,206.4,406.4,208.6,407,210L407,210z"
			/>
	</g>
</g>
<g>
	<path class="st2" d="M427.2,453.5c0.6,0.4,1.4,0.6,2.1,0.9c0.7,0.2,1.5,0.4,2.2,0.5c0.4,0,0.7,0,1.1,0c0.4,0,0.7-0.1,1.1-0.2
		c0.3-0.1,0.7-0.2,1-0.4c0.3-0.2,0.6-0.4,0.9-0.6l0.4-0.4l0.3-0.4c0.2-0.3,0.4-0.6,0.5-1c0.3-0.7,0.5-1.4,0.7-2.1
		c0.3-1.5,0.4-3,0.4-4.6l0,0.1c-0.9-4.5-1.7-8.9-2.4-13.4c-0.4-2.3-0.7-4.5-0.9-6.8c-0.1-1.1-0.2-2.3-0.3-3.4c0-0.6,0-1.1,0-1.7
		c0.1-0.6,0.1-1.2,0.4-1.6c-0.3,0.5-0.3,1.1-0.4,1.6c0,0.6,0,1.1,0,1.7c0.1,1.1,0.2,2.3,0.3,3.4c0.3,2.3,0.7,4.5,1.1,6.7
		c0.8,4.5,1.7,8.9,2.7,13.4l0,0l0,0c0,1.6,0,3.2-0.3,4.7c-0.2,0.8-0.4,1.6-0.7,2.3c-0.2,0.4-0.4,0.7-0.6,1.1l-0.4,0.5l-0.4,0.5
		c-0.3,0.3-0.6,0.6-1,0.8c-0.4,0.2-0.8,0.4-1.2,0.5c-0.4,0.1-0.8,0.2-1.2,0.2c-0.4,0-0.8,0-1.2,0c-0.8-0.1-1.6-0.2-2.4-0.4
		c-0.8-0.2-1.5-0.5-2.3-0.9L427.2,453.5z"/>
</g>
<path class="st2" d="M554.6,525.3l1.2-2.6c1.4,0.5,2.4,1.6,2.3,2.8c-0.1,1.5-1.8,2.7-3.7,2.6s-3.4-1.5-3.3-3L554.6,525.3z"/>
<linearGradient id="SVGID_15_" gradientUnits="userSpaceOnUse" x1="658.4" y1="351.55" x2="647.9" y2="355.55">
	<stop  offset="0" style="stop-color:#34FFEA"/>
	<stop  offset="0.2972" style="stop-color:#34FDE8;stop-opacity:0.7028"/>
	<stop  offset="0.4347" style="stop-color:#32F5E2;stop-opacity:0.5653"/>
	<stop  offset="0.5394" style="stop-color:#2FE9D7;stop-opacity:0.4606"/>
	<stop  offset="0.6276" style="stop-color:#2CD6C8;stop-opacity:0.3724"/>
	<stop  offset="0.7052" style="stop-color:#27BFB5;stop-opacity:0.2948"/>
	<stop  offset="0.7755" style="stop-color:#21A19D;stop-opacity:0.2245"/>
	<stop  offset="0.8404" style="stop-color:#1A7F80;stop-opacity:0.1596"/>
	<stop  offset="0.9009" style="stop-color:#12565E;stop-opacity:9.913361e-002"/>
	<stop  offset="0.9557" style="stop-color:#092A3A;stop-opacity:4.431742e-002"/>
	<stop  offset="1" style="stop-color:#000017;stop-opacity:0"/>
</linearGradient>
<path class="st16" d="M653.9,352.5c2.8,4.9,3.4,9.9,1.2,11.1s-6.2-1.7-9-6.6c-2.8-4.9-3.4-9.9-1.2-11.1S651.1,347.6,653.9,352.5z"/>
</svg>
